STARTFONT 2.1
FONT -FontForge-Noto Mono-Book-R-Normal--18-170-75-75-P-109-ISO8859-1
SIZE 17 75 75
FONTBOUNDINGBOX 15 25 -3 -5
COMMENT "Generated by fontforge, http://fontforge.sourceforge.net"
COMMENT "Copyright 2007 Google Inc. All Rights Reserved."
STARTPROPERTIES 41
FOUNDRY "FontForge"
FAMILY_NAME "Noto Mono"
WEIGHT_NAME "Book"
SLANT "R"
SETWIDTH_NAME "Normal"
ADD_STYLE_NAME ""
PIXEL_SIZE 18
POINT_SIZE 170
RESOLUTION_X 75
RESOLUTION_Y 75
SPACING "P"
AVERAGE_WIDTH 109
CHARSET_REGISTRY "ISO8859"
CHARSET_ENCODING "1"
FONTNAME_REGISTRY ""
CHARSET_COLLECTIONS "ISO8859-2 ISO8859-5 ISO8859-7 ISO8859-9 ISO8859-4 ISOLatin1Encoding"
FONT_NAME "NotoMono"
FACE_NAME "Noto Mono"
COPYRIGHT "Copyright 2007 Google Inc. All Rights Reserved."
FONT_VERSION "1.00"
FONT_ASCENT 14
FONT_DESCENT 4
UNDERLINE_POSITION -2
UNDERLINE_THICKNESS 1
X_HEIGHT 9
CAP_HEIGHT 12
DEFAULT_CHAR 1
RAW_ASCENT 799
RAW_DESCENT 200
NORM_SPACE 11
RELATIVE_WEIGHT 40
RELATIVE_SETWIDTH 50
SUPERSCRIPT_X 0
SUPERSCRIPT_Y 8
SUPERSCRIPT_SIZE 11
SUBSCRIPT_X 0
SUBSCRIPT_Y 2
SUBSCRIPT_SIZE 11
FIGURE_WIDTH 11
AVG_LOWERCASE_WIDTH 110
AVG_UPPERCASE_WIDTH 110
ENDPROPERTIES
CHARS 897
STARTCHAR uni0000
ENCODING 0
SWIDTH 0 0
DWIDTH 0 0
BBX 1 1 0 0
BITMAP
00
ENDCHAR
STARTCHAR uni000D
ENCODING 13
SWIDTH 600 0
DWIDTH 11 0
BBX 1 1 0 0
BITMAP
00
ENDCHAR
STARTCHAR space
ENCODING 32
SWIDTH 600 0
DWIDTH 11 0
BBX 1 1 0 0
BITMAP
00
ENDCHAR
STARTCHAR exclam
ENCODING 33
SWIDTH 600 0
DWIDTH 11 0
BBX 2 13 4 0
BITMAP
C0
C0
C0
C0
C0
C0
C0
40
40
00
00
C0
C0
ENDCHAR
STARTCHAR quotedbl
ENCODING 34
SWIDTH 600 0
DWIDTH 11 0
BBX 6 4 2 9
BITMAP
CC
CC
CC
CC
ENDCHAR
STARTCHAR numbersign
ENCODING 35
SWIDTH 600 0
DWIDTH 11 0
BBX 11 13 0 0
BITMAP
0840
18C0
1080
7FE0
1080
3180
3180
2100
FFC0
2100
2100
6300
4200
ENDCHAR
STARTCHAR dollar
ENCODING 36
SWIDTH 600 0
DWIDTH 11 0
BBX 9 15 1 -1
BITMAP
0800
0800
3F00
E900
C800
C800
7800
3E00
0B00
0980
0980
CB80
FE00
0800
0800
ENDCHAR
STARTCHAR percent
ENCODING 37
SWIDTH 600 0
DWIDTH 11 0
BBX 11 13 0 0
BITMAP
7180
D900
8900
8A00
DA00
7600
0400
0DC0
0B60
0A20
1220
1360
31C0
ENDCHAR
STARTCHAR ampersand
ENCODING 38
SWIDTH 600 0
DWIDTH 11 0
BBX 10 13 1 0
BITMAP
3C00
6600
6600
6600
6400
3C00
3800
6D80
CD80
C700
C300
E780
7CC0
ENDCHAR
STARTCHAR quotesingle
ENCODING 39
SWIDTH 600 0
DWIDTH 11 0
BBX 2 4 4 9
BITMAP
C0
C0
C0
C0
ENDCHAR
STARTCHAR parenleft
ENCODING 40
SWIDTH 600 0
DWIDTH 11 0
BBX 5 16 3 -3
BITMAP
18
30
60
60
40
C0
C0
C0
C0
C0
C0
C0
60
60
30
18
ENDCHAR
STARTCHAR parenright
ENCODING 41
SWIDTH 600 0
DWIDTH 11 0
BBX 5 16 3 -3
BITMAP
C0
60
30
30
10
18
18
18
18
18
18
18
30
30
60
C0
ENDCHAR
STARTCHAR asterisk
ENCODING 42
SWIDTH 600 0
DWIDTH 11 0
BBX 9 8 1 6
BITMAP
0800
0800
0880
FF80
0C00
1400
3600
2200
ENDCHAR
STARTCHAR plus
ENCODING 43
SWIDTH 600 0
DWIDTH 11 0
BBX 8 8 2 2
BITMAP
10
10
10
FF
10
10
10
10
ENDCHAR
STARTCHAR comma
ENCODING 44
SWIDTH 600 0
DWIDTH 11 0
BBX 3 4 4 -2
BITMAP
60
60
C0
C0
ENDCHAR
STARTCHAR hyphen
ENCODING 45
SWIDTH 600 0
DWIDTH 11 0
BBX 5 1 3 5
BITMAP
F8
ENDCHAR
STARTCHAR period
ENCODING 46
SWIDTH 600 0
DWIDTH 11 0
BBX 2 2 4 0
BITMAP
C0
C0
ENDCHAR
STARTCHAR slash
ENCODING 47
SWIDTH 600 0
DWIDTH 11 0
BBX 7 13 2 0
BITMAP
06
04
0C
0C
08
18
10
30
20
60
60
40
C0
ENDCHAR
STARTCHAR zero
ENCODING 48
SWIDTH 600 0
DWIDTH 11 0
BBX 9 13 1 0
BITMAP
3E00
6700
4100
C180
C180
C180
C180
C180
C180
C180
4100
6700
3E00
ENDCHAR
STARTCHAR one
ENCODING 49
SWIDTH 600 0
DWIDTH 11 0
BBX 5 13 2 0
BITMAP
18
38
D8
98
18
18
18
18
18
18
18
18
18
ENDCHAR
STARTCHAR two
ENCODING 50
SWIDTH 600 0
DWIDTH 11 0
BBX 9 13 1 0
BITMAP
3E00
E300
0180
0180
0180
0100
0300
0600
0C00
1000
6000
C000
FF80
ENDCHAR
STARTCHAR three
ENCODING 51
SWIDTH 600 0
DWIDTH 11 0
BBX 9 13 1 0
BITMAP
3E00
E300
0180
0180
0180
0300
3C00
0700
0180
0180
0180
C700
FE00
ENDCHAR
STARTCHAR four
ENCODING 52
SWIDTH 600 0
DWIDTH 11 0
BBX 10 13 1 0
BITMAP
0300
0700
0700
0F00
1B00
3300
2300
6300
C300
FFC0
0300
0300
0300
ENDCHAR
STARTCHAR five
ENCODING 53
SWIDTH 600 0
DWIDTH 11 0
BBX 9 13 1 0
BITMAP
FF00
C000
C000
C000
C000
FE00
0700
0180
0180
0180
0180
C700
FE00
ENDCHAR
STARTCHAR six
ENCODING 54
SWIDTH 600 0
DWIDTH 11 0
BBX 9 13 1 0
BITMAP
1F00
3800
6000
4000
C000
DE00
E300
C180
C180
C180
4180
7300
3E00
ENDCHAR
STARTCHAR seven
ENCODING 55
SWIDTH 600 0
DWIDTH 11 0
BBX 9 13 1 0
BITMAP
FF80
0180
0100
0300
0200
0600
0600
0400
0C00
0800
1800
1000
3000
ENDCHAR
STARTCHAR eight
ENCODING 56
SWIDTH 600 0
DWIDTH 11 0
BBX 9 13 1 0
BITMAP
3E00
E300
C180
C180
C100
7E00
3C00
6300
C180
C180
C180
6300
3E00
ENDCHAR
STARTCHAR nine
ENCODING 57
SWIDTH 600 0
DWIDTH 11 0
BBX 9 13 1 0
BITMAP
3E00
6700
C100
C180
C180
C180
6380
3D80
0180
0100
0300
0E00
7C00
ENDCHAR
STARTCHAR colon
ENCODING 58
SWIDTH 600 0
DWIDTH 11 0
BBX 2 10 4 0
BITMAP
C0
C0
00
00
00
00
00
00
C0
C0
ENDCHAR
STARTCHAR semicolon
ENCODING 59
SWIDTH 600 0
DWIDTH 11 0
BBX 3 12 3 -2
BITMAP
60
60
00
00
00
00
00
00
60
60
C0
C0
ENDCHAR
STARTCHAR less
ENCODING 60
SWIDTH 600 0
DWIDTH 11 0
BBX 9 9 1 2
BITMAP
0080
0380
1E00
7000
C000
7000
1E00
0380
0080
ENDCHAR
STARTCHAR equal
ENCODING 61
SWIDTH 600 0
DWIDTH 11 0
BBX 9 5 1 4
BITMAP
FF80
0000
0000
0000
FF80
ENDCHAR
STARTCHAR greater
ENCODING 62
SWIDTH 600 0
DWIDTH 11 0
BBX 9 9 1 2
BITMAP
8000
E000
3C00
0700
0180
0700
3C00
E000
8000
ENDCHAR
STARTCHAR question
ENCODING 63
SWIDTH 600 0
DWIDTH 11 0
BBX 8 13 1 0
BITMAP
7C
C7
03
03
03
06
18
10
30
00
00
30
30
ENDCHAR
STARTCHAR at
ENCODING 64
SWIDTH 600 0
DWIDTH 11 0
BBX 11 15 0 -2
BITMAP
1F00
3180
6040
4060
CF20
8920
9120
9120
9120
9B60
CEC0
4000
6000
3080
1F80
ENDCHAR
STARTCHAR A
ENCODING 65
SWIDTH 600 0
DWIDTH 11 0
BBX 11 13 0 0
BITMAP
0E00
0E00
0A00
1B00
1B00
1100
3180
3180
3F80
60C0
60C0
4040
C060
ENDCHAR
STARTCHAR B
ENCODING 66
SWIDTH 600 0
DWIDTH 11 0
BBX 9 13 1 0
BITMAP
FE00
C380
C180
C180
C180
FE00
C700
C180
C180
C180
C180
C700
FE00
ENDCHAR
STARTCHAR C
ENCODING 67
SWIDTH 600 0
DWIDTH 11 0
BBX 9 13 1 0
BITMAP
1F00
3980
6000
C000
C000
C000
C000
C000
C000
C000
6000
3980
1F80
ENDCHAR
STARTCHAR D
ENCODING 68
SWIDTH 600 0
DWIDTH 11 0
BBX 9 13 1 0
BITMAP
FC00
CE00
C300
C180
C180
C180
C180
C180
C180
C100
C300
CE00
FC00
ENDCHAR
STARTCHAR E
ENCODING 69
SWIDTH 600 0
DWIDTH 11 0
BBX 8 13 2 0
BITMAP
FF
C0
C0
C0
C0
FF
C0
C0
C0
C0
C0
C0
FF
ENDCHAR
STARTCHAR F
ENCODING 70
SWIDTH 600 0
DWIDTH 11 0
BBX 8 13 2 0
BITMAP
FF
C0
C0
C0
C0
FF
C0
C0
C0
C0
C0
C0
C0
ENDCHAR
STARTCHAR G
ENCODING 71
SWIDTH 600 0
DWIDTH 11 0
BBX 9 13 1 0
BITMAP
1F00
3B00
6000
C000
C000
C780
C180
C180
C180
C180
6180
3B80
1F00
ENDCHAR
STARTCHAR H
ENCODING 72
SWIDTH 600 0
DWIDTH 11 0
BBX 9 13 1 0
BITMAP
C180
C180
C180
C180
C180
FF80
C180
C180
C180
C180
C180
C180
C180
ENDCHAR
STARTCHAR I
ENCODING 73
SWIDTH 600 0
DWIDTH 11 0
BBX 7 13 2 0
BITMAP
FE
30
30
30
30
30
30
30
30
30
30
30
FE
ENDCHAR
STARTCHAR J
ENCODING 74
SWIDTH 600 0
DWIDTH 11 0
BBX 8 13 1 0
BITMAP
03
03
03
03
03
03
03
03
03
03
03
CE
FC
ENDCHAR
STARTCHAR K
ENCODING 75
SWIDTH 600 0
DWIDTH 11 0
BBX 9 13 2 0
BITMAP
C180
C300
C600
CC00
D800
F000
F000
C800
CC00
C600
C200
C300
C180
ENDCHAR
STARTCHAR L
ENCODING 76
SWIDTH 600 0
DWIDTH 11 0
BBX 8 13 2 0
BITMAP
C0
C0
C0
C0
C0
C0
C0
C0
C0
C0
C0
C0
FF
ENDCHAR
STARTCHAR M
ENCODING 77
SWIDTH 600 0
DWIDTH 11 0
BBX 9 13 1 0
BITMAP
C180
C180
C180
E380
E380
E380
E580
D580
D580
D580
D580
C980
C980
ENDCHAR
STARTCHAR N
ENCODING 78
SWIDTH 600 0
DWIDTH 11 0
BBX 9 13 1 0
BITMAP
C180
C180
A180
B180
9180
D980
C980
CD80
C480
C680
C280
C180
C180
ENDCHAR
STARTCHAR O
ENCODING 79
SWIDTH 600 0
DWIDTH 11 0
BBX 9 13 1 0
BITMAP
3E00
7700
6300
C180
C180
C180
C180
C180
C180
C180
6300
7700
3E00
ENDCHAR
STARTCHAR P
ENCODING 80
SWIDTH 600 0
DWIDTH 11 0
BBX 9 13 1 0
BITMAP
FE00
C700
C180
C180
C180
C300
FE00
C000
C000
C000
C000
C000
C000
ENDCHAR
STARTCHAR Q
ENCODING 81
SWIDTH 600 0
DWIDTH 11 0
BBX 9 16 1 -3
BITMAP
3E00
7700
6300
C180
C180
C180
C180
C180
C180
C180
6300
7700
3E00
0600
0380
0100
ENDCHAR
STARTCHAR R
ENCODING 82
SWIDTH 600 0
DWIDTH 11 0
BBX 10 13 1 0
BITMAP
FE00
C700
C180
C180
C180
C300
FE00
CC00
C600
C300
C100
C180
C0C0
ENDCHAR
STARTCHAR S
ENCODING 83
SWIDTH 600 0
DWIDTH 11 0
BBX 9 13 1 0
BITMAP
3F00
7380
C000
C000
C000
7000
3E00
0700
0180
0180
0180
C700
FE00
ENDCHAR
STARTCHAR T
ENCODING 84
SWIDTH 600 0
DWIDTH 11 0
BBX 10 13 0 0
BITMAP
FFC0
0C00
0C00
0C00
0C00
0C00
0C00
0C00
0C00
0C00
0C00
0C00
0C00
ENDCHAR
STARTCHAR U
ENCODING 85
SWIDTH 600 0
DWIDTH 11 0
BBX 9 13 1 0
BITMAP
C180
C180
C180
C180
C180
C180
C180
C180
C180
C180
C180
7700
3E00
ENDCHAR
STARTCHAR V
ENCODING 86
SWIDTH 600 0
DWIDTH 11 0
BBX 11 13 0 0
BITMAP
C060
4040
60C0
60C0
2080
3180
3180
1100
1B00
1B00
0A00
0E00
0600
ENDCHAR
STARTCHAR W
ENCODING 87
SWIDTH 600 0
DWIDTH 11 0
BBX 11 13 0 0
BITMAP
C060
C060
C060
C060
4440
4A40
4A40
4A40
5B40
5140
5140
61C0
60C0
ENDCHAR
STARTCHAR X
ENCODING 88
SWIDTH 600 0
DWIDTH 11 0
BBX 11 13 0 0
BITMAP
C060
60C0
2080
3100
1B00
0E00
0400
0A00
1B00
3180
2080
60C0
C060
ENDCHAR
STARTCHAR Y
ENCODING 89
SWIDTH 600 0
DWIDTH 11 0
BBX 9 13 1 0
BITMAP
8180
C100
4300
6200
2600
3400
1C00
1800
1800
1800
1800
1800
1800
ENDCHAR
STARTCHAR Z
ENCODING 90
SWIDTH 600 0
DWIDTH 11 0
BBX 9 13 1 0
BITMAP
FF80
0180
0300
0200
0600
0C00
0800
1800
3000
2000
6000
C000
FF80
ENDCHAR
STARTCHAR bracketleft
ENCODING 91
SWIDTH 600 0
DWIDTH 11 0
BBX 4 16 4 -3
BITMAP
F0
C0
C0
C0
C0
C0
C0
C0
C0
C0
C0
C0
C0
C0
C0
F0
ENDCHAR
STARTCHAR backslash
ENCODING 92
SWIDTH 600 0
DWIDTH 11 0
BBX 7 13 2 0
BITMAP
C0
40
60
60
20
30
10
18
08
0C
0C
04
06
ENDCHAR
STARTCHAR bracketright
ENCODING 93
SWIDTH 600 0
DWIDTH 11 0
BBX 4 16 3 -3
BITMAP
F0
30
30
30
30
30
30
30
30
30
30
30
30
30
30
F0
ENDCHAR
STARTCHAR asciicircum
ENCODING 94
SWIDTH 600 0
DWIDTH 11 0
BBX 9 8 1 5
BITMAP
0800
1C00
1400
3600
2200
6300
4100
C180
ENDCHAR
STARTCHAR underscore
ENCODING 95
SWIDTH 600 0
DWIDTH 11 0
BBX 11 1 0 -3
BITMAP
FFE0
ENDCHAR
STARTCHAR grave
ENCODING 96
SWIDTH 600 0
DWIDTH 11 0
BBX 3 3 4 11
BITMAP
C0
40
20
ENDCHAR
STARTCHAR a
ENCODING 97
SWIDTH 600 0
DWIDTH 11 0
BBX 8 10 1 0
BITMAP
7E
67
03
03
3F
E3
C3
C3
C7
79
ENDCHAR
STARTCHAR b
ENCODING 98
SWIDTH 600 0
DWIDTH 11 0
BBX 9 14 1 0
BITMAP
C000
C000
C000
C000
DE00
E300
C180
C180
C180
C180
C180
C180
E300
9E00
ENDCHAR
STARTCHAR c
ENCODING 99
SWIDTH 600 0
DWIDTH 11 0
BBX 7 10 2 0
BITMAP
3E
62
C0
C0
C0
C0
C0
C0
62
3E
ENDCHAR
STARTCHAR d
ENCODING 100
SWIDTH 600 0
DWIDTH 11 0
BBX 8 14 1 0
BITMAP
03
03
03
03
3B
67
C3
C3
C3
C3
C3
C3
67
39
ENDCHAR
STARTCHAR e
ENCODING 101
SWIDTH 600 0
DWIDTH 11 0
BBX 9 10 1 0
BITMAP
3E00
6300
4180
C180
FF80
C000
C000
4000
7100
1F00
ENDCHAR
STARTCHAR f
ENCODING 102
SWIDTH 600 0
DWIDTH 11 0
BBX 9 14 1 0
BITMAP
0F80
1880
1800
1800
FF00
1800
1800
1800
1800
1800
1800
1800
1800
1800
ENDCHAR
STARTCHAR g
ENCODING 103
SWIDTH 600 0
DWIDTH 11 0
BBX 10 14 0 -4
BITMAP
1FC0
6180
6180
6180
6180
3E00
3000
2000
3F80
60C0
C0C0
C0C0
E180
3F00
ENDCHAR
STARTCHAR h
ENCODING 104
SWIDTH 600 0
DWIDTH 11 0
BBX 8 14 1 0
BITMAP
C0
C0
C0
C0
DE
E7
C3
C3
C3
C3
C3
C3
C3
C3
ENDCHAR
STARTCHAR i
ENCODING 105
SWIDTH 600 0
DWIDTH 11 0
BBX 8 14 2 0
BITMAP
18
18
00
00
78
18
18
18
18
18
18
18
18
FF
ENDCHAR
STARTCHAR j
ENCODING 106
SWIDTH 600 0
DWIDTH 11 0
BBX 6 18 1 -4
BITMAP
0C
0C
00
00
7C
0C
0C
0C
0C
0C
0C
0C
0C
0C
0C
0C
9C
F8
ENDCHAR
STARTCHAR k
ENCODING 107
SWIDTH 600 0
DWIDTH 11 0
BBX 8 14 2 0
BITMAP
C0
C0
C0
C0
C2
C4
C8
D0
A0
F0
C8
CC
C6
C3
ENDCHAR
STARTCHAR l
ENCODING 108
SWIDTH 600 0
DWIDTH 11 0
BBX 8 14 2 0
BITMAP
78
18
18
18
18
18
18
18
18
18
18
18
18
FF
ENDCHAR
STARTCHAR m
ENCODING 109
SWIDTH 600 0
DWIDTH 11 0
BBX 8 10 1 0
BITMAP
B6
DB
DB
DB
DB
DB
DB
DB
DB
DB
ENDCHAR
STARTCHAR n
ENCODING 110
SWIDTH 600 0
DWIDTH 11 0
BBX 8 10 1 0
BITMAP
9E
E7
C3
C3
C3
C3
C3
C3
C3
C3
ENDCHAR
STARTCHAR o
ENCODING 111
SWIDTH 600 0
DWIDTH 11 0
BBX 9 10 1 0
BITMAP
3E00
6300
C180
C180
C180
C180
C180
4180
6300
3E00
ENDCHAR
STARTCHAR p
ENCODING 112
SWIDTH 600 0
DWIDTH 11 0
BBX 9 14 1 -4
BITMAP
DE00
E300
C180
C180
C180
C180
C180
C180
E300
DE00
C000
C000
C000
C000
ENDCHAR
STARTCHAR q
ENCODING 113
SWIDTH 600 0
DWIDTH 11 0
BBX 8 14 1 -4
BITMAP
39
67
C3
C3
C3
C3
C3
C3
67
3B
03
03
03
03
ENDCHAR
STARTCHAR r
ENCODING 114
SWIDTH 600 0
DWIDTH 11 0
BBX 7 10 2 0
BITMAP
9E
A2
C0
C0
C0
C0
C0
C0
C0
C0
ENDCHAR
STARTCHAR s
ENCODING 115
SWIDTH 600 0
DWIDTH 11 0
BBX 7 10 2 0
BITMAP
7E
C6
C0
C0
78
1C
06
06
CE
FC
ENDCHAR
STARTCHAR t
ENCODING 116
SWIDTH 600 0
DWIDTH 11 0
BBX 7 13 2 0
BITMAP
10
30
30
FE
30
30
30
30
30
30
30
30
1E
ENDCHAR
STARTCHAR u
ENCODING 117
SWIDTH 600 0
DWIDTH 11 0
BBX 8 10 1 0
BITMAP
C3
C3
C3
C3
C3
C3
C3
C3
E7
79
ENDCHAR
STARTCHAR v
ENCODING 118
SWIDTH 600 0
DWIDTH 11 0
BBX 9 10 1 0
BITMAP
C180
4100
4100
6300
2200
3200
3600
1400
1400
1C00
ENDCHAR
STARTCHAR w
ENCODING 119
SWIDTH 600 0
DWIDTH 11 0
BBX 11 10 0 0
BITMAP
8420
CE60
CA60
4A40
4A40
5140
5140
5140
3180
2080
ENDCHAR
STARTCHAR x
ENCODING 120
SWIDTH 600 0
DWIDTH 11 0
BBX 9 10 1 0
BITMAP
4100
6300
3600
1400
1C00
1C00
3600
2200
6300
C180
ENDCHAR
STARTCHAR y
ENCODING 121
SWIDTH 600 0
DWIDTH 11 0
BBX 9 14 1 -4
BITMAP
C180
4100
6300
6300
2200
3600
3600
1400
1400
0800
0800
1800
3000
E000
ENDCHAR
STARTCHAR z
ENCODING 122
SWIDTH 600 0
DWIDTH 11 0
BBX 7 10 2 0
BITMAP
FE
06
04
08
18
30
20
60
C0
FE
ENDCHAR
STARTCHAR braceleft
ENCODING 123
SWIDTH 600 0
DWIDTH 11 0
BBX 7 16 2 -3
BITMAP
0E
1C
18
18
18
18
30
E0
30
18
18
18
18
18
1C
0E
ENDCHAR
STARTCHAR bar
ENCODING 124
SWIDTH 600 0
DWIDTH 11 0
BBX 1 18 5 -4
BITMAP
80
80
80
80
80
80
80
80
80
80
80
80
80
80
80
80
80
80
ENDCHAR
STARTCHAR braceright
ENCODING 125
SWIDTH 600 0
DWIDTH 11 0
BBX 7 16 2 -3
BITMAP
E0
70
30
30
30
30
18
0E
18
30
30
30
30
30
70
E0
ENDCHAR
STARTCHAR asciitilde
ENCODING 126
SWIDTH 600 0
DWIDTH 11 0
BBX 9 3 1 5
BITMAP
7000
DD80
0700
ENDCHAR
STARTCHAR uni00A0
ENCODING 160
SWIDTH 600 0
DWIDTH 11 0
BBX 1 1 0 0
BITMAP
00
ENDCHAR
STARTCHAR exclamdown
ENCODING 161
SWIDTH 600 0
DWIDTH 11 0
BBX 2 13 4 -3
BITMAP
C0
C0
00
40
40
C0
C0
C0
C0
C0
C0
C0
C0
ENDCHAR
STARTCHAR cent
ENCODING 162
SWIDTH 600 0
DWIDTH 11 0
BBX 7 13 2 0
BITMAP
18
18
3E
62
C0
C0
C0
C0
C0
62
3E
18
18
ENDCHAR
STARTCHAR sterling
ENCODING 163
SWIDTH 600 0
DWIDTH 11 0
BBX 9 13 1 0
BITMAP
1F00
3900
3000
3000
3000
3000
FE00
3000
3000
3000
2000
6000
FF80
ENDCHAR
STARTCHAR currency
ENCODING 164
SWIDTH 600 0
DWIDTH 11 0
BBX 7 7 2 3
BITMAP
BA
6C
C6
82
C6
6C
BA
ENDCHAR
STARTCHAR yen
ENCODING 165
SWIDTH 600 0
DWIDTH 11 0
BBX 10 13 1 0
BITMAP
C0C0
4180
6100
3300
1200
1C00
7F80
0C00
0C00
7F80
0C00
0C00
0C00
ENDCHAR
STARTCHAR brokenbar
ENCODING 166
SWIDTH 600 0
DWIDTH 11 0
BBX 1 18 5 -4
BITMAP
80
80
80
80
80
80
80
00
00
00
00
80
80
80
80
80
80
80
ENDCHAR
STARTCHAR section
ENCODING 167
SWIDTH 600 0
DWIDTH 11 0
BBX 7 14 2 0
BITMAP
7E
C4
C0
E0
78
CC
C6
C6
76
3C
06
06
86
FC
ENDCHAR
STARTCHAR dieresis
ENCODING 168
SWIDTH 600 0
DWIDTH 11 0
BBX 5 2 3 12
BITMAP
D8
D8
ENDCHAR
STARTCHAR copyright
ENCODING 169
SWIDTH 600 0
DWIDTH 11 0
BBX 11 13 0 0
BITMAP
1F00
2080
4040
8F20
9120
B020
A020
B020
9020
8F20
4040
2080
1F00
ENDCHAR
STARTCHAR ordfeminine
ENCODING 170
SWIDTH 600 0
DWIDTH 11 0
BBX 6 6 2 7
BITMAP
F8
04
7C
C4
8C
74
ENDCHAR
STARTCHAR guillemotleft
ENCODING 171
SWIDTH 600 0
DWIDTH 11 0
BBX 8 7 1 1
BITMAP
33
22
44
CC
44
22
33
ENDCHAR
STARTCHAR logicalnot
ENCODING 172
SWIDTH 600 0
DWIDTH 11 0
BBX 9 5 1 2
BITMAP
FF80
0080
0080
0080
0080
ENDCHAR
STARTCHAR uni00AD
ENCODING 173
SWIDTH 600 0
DWIDTH 11 0
BBX 5 1 3 5
BITMAP
F8
ENDCHAR
STARTCHAR registered
ENCODING 174
SWIDTH 600 0
DWIDTH 11 0
BBX 11 13 0 0
BITMAP
1F00
2080
4040
9E20
9320
9320
9E20
9220
9320
9120
4040
2080
1F00
ENDCHAR
STARTCHAR macron
ENCODING 175
SWIDTH 600 0
DWIDTH 11 0
BBX 11 1 0 14
BITMAP
FFE0
ENDCHAR
STARTCHAR degree
ENCODING 176
SWIDTH 600 0
DWIDTH 11 0
BBX 7 7 2 6
BITMAP
38
44
C6
82
82
44
38
ENDCHAR
STARTCHAR plusminus
ENCODING 177
SWIDTH 600 0
DWIDTH 11 0
BBX 8 10 2 0
BITMAP
10
10
10
FF
10
10
10
10
00
FF
ENDCHAR
STARTCHAR uni00B2
ENCODING 178
SWIDTH 600 0
DWIDTH 11 0
BBX 5 7 3 6
BITMAP
F0
08
08
10
20
40
F8
ENDCHAR
STARTCHAR uni00B3
ENCODING 179
SWIDTH 600 0
DWIDTH 11 0
BBX 5 7 3 6
BITMAP
F0
08
08
70
08
08
F0
ENDCHAR
STARTCHAR acute
ENCODING 180
SWIDTH 600 0
DWIDTH 11 0
BBX 3 3 4 11
BITMAP
60
40
C0
ENDCHAR
STARTCHAR mu
ENCODING 181
SWIDTH 600 0
DWIDTH 11 0
BBX 8 14 1 -4
BITMAP
C3
C3
C3
C3
C3
C3
C3
C3
E7
F9
C0
C0
C0
C0
ENDCHAR
STARTCHAR paragraph
ENCODING 182
SWIDTH 600 0
DWIDTH 11 0
BBX 9 16 1 -2
BITMAP
3F80
7880
F880
F880
F880
F880
F880
7880
7880
0880
0880
0880
0880
0880
0880
0880
ENDCHAR
STARTCHAR periodcentered
ENCODING 183
SWIDTH 600 0
DWIDTH 11 0
BBX 2 2 4 5
BITMAP
C0
C0
ENDCHAR
STARTCHAR cedilla
ENCODING 184
SWIDTH 600 0
DWIDTH 11 0
BBX 3 4 4 -4
BITMAP
40
60
20
C0
ENDCHAR
STARTCHAR uni00B9
ENCODING 185
SWIDTH 600 0
DWIDTH 11 0
BBX 3 7 3 6
BITMAP
60
E0
20
20
20
20
20
ENDCHAR
STARTCHAR ordmasculine
ENCODING 186
SWIDTH 600 0
DWIDTH 11 0
BBX 6 6 2 7
BITMAP
78
CC
84
84
CC
78
ENDCHAR
STARTCHAR guillemotright
ENCODING 187
SWIDTH 600 0
DWIDTH 11 0
BBX 8 7 2 1
BITMAP
CC
44
22
33
22
44
CC
ENDCHAR
STARTCHAR onequarter
ENCODING 188
SWIDTH 600 0
DWIDTH 11 0
BBX 11 13 0 0
BITMAP
60C0
E080
2180
2100
2300
2200
2640
04C0
0D40
0B40
1BE0
1040
3040
ENDCHAR
STARTCHAR onehalf
ENCODING 189
SWIDTH 600 0
DWIDTH 11 0
BBX 11 13 0 0
BITMAP
6180
E100
2300
2200
2600
2400
2FC0
0820
1820
1040
3080
2100
63E0
ENDCHAR
STARTCHAR threequarters
ENCODING 190
SWIDTH 600 0
DWIDTH 11 0
BBX 11 13 0 0
BITMAP
F0C0
0880
0980
7100
0B00
0A00
F640
04C0
0D40
0B40
1BE0
1040
3040
ENDCHAR
STARTCHAR questiondown
ENCODING 191
SWIDTH 600 0
DWIDTH 11 0
BBX 8 13 2 -3
BITMAP
18
18
00
00
18
18
30
60
C0
C0
C0
E3
3E
ENDCHAR
STARTCHAR Agrave
ENCODING 192
SWIDTH 600 0
DWIDTH 11 0
BBX 11 17 0 0
BITMAP
0C00
0400
0200
0000
0E00
0E00
0A00
1B00
1B00
1100
3180
3180
3F80
60C0
60C0
4040
C060
ENDCHAR
STARTCHAR Aacute
ENCODING 193
SWIDTH 600 0
DWIDTH 11 0
BBX 11 17 0 0
BITMAP
0300
0200
0600
0000
0E00
0E00
0A00
1B00
1B00
1100
3180
3180
3F80
60C0
60C0
4040
C060
ENDCHAR
STARTCHAR Acircumflex
ENCODING 194
SWIDTH 600 0
DWIDTH 11 0
BBX 11 17 0 0
BITMAP
0E00
0A00
1B00
0000
0E00
0E00
0A00
1B00
1B00
1100
3180
3180
3F80
60C0
60C0
4040
C060
ENDCHAR
STARTCHAR Atilde
ENCODING 195
SWIDTH 600 0
DWIDTH 11 0
BBX 11 17 0 0
BITMAP
1880
3F80
2300
0000
0E00
0E00
0A00
1B00
1B00
1100
3180
3180
3F80
60C0
60C0
4040
C060
ENDCHAR
STARTCHAR Adieresis
ENCODING 196
SWIDTH 600 0
DWIDTH 11 0
BBX 11 16 0 0
BITMAP
1B00
1B00
0000
0E00
0E00
0A00
1B00
1B00
1100
3180
3180
3F80
60C0
60C0
4040
C060
ENDCHAR
STARTCHAR Aring
ENCODING 197
SWIDTH 600 0
DWIDTH 11 0
BBX 11 16 0 0
BITMAP
0600
0900
0900
0E00
0E00
0A00
1B00
1B00
1100
3180
3180
3F80
60C0
60C0
4040
C060
ENDCHAR
STARTCHAR AE
ENCODING 198
SWIDTH 600 0
DWIDTH 11 0
BBX 10 13 0 0
BITMAP
1FC0
1600
3600
3600
2600
27C0
6600
7E00
4600
4600
4600
C600
C7C0
ENDCHAR
STARTCHAR Ccedilla
ENCODING 199
SWIDTH 600 0
DWIDTH 11 0
BBX 9 17 1 -4
BITMAP
1F00
3980
6000
C000
C000
C000
C000
C000
C000
C000
6000
3980
1F80
0400
0600
0200
0C00
ENDCHAR
STARTCHAR Egrave
ENCODING 200
SWIDTH 600 0
DWIDTH 11 0
BBX 8 17 2 0
BITMAP
30
10
08
00
FF
C0
C0
C0
C0
FF
C0
C0
C0
C0
C0
C0
FF
ENDCHAR
STARTCHAR Eacute
ENCODING 201
SWIDTH 600 0
DWIDTH 11 0
BBX 8 17 2 0
BITMAP
0C
08
18
00
FF
C0
C0
C0
C0
FF
C0
C0
C0
C0
C0
C0
FF
ENDCHAR
STARTCHAR Ecircumflex
ENCODING 202
SWIDTH 600 0
DWIDTH 11 0
BBX 8 17 2 0
BITMAP
1C
14
36
00
FF
C0
C0
C0
C0
FF
C0
C0
C0
C0
C0
C0
FF
ENDCHAR
STARTCHAR Edieresis
ENCODING 203
SWIDTH 600 0
DWIDTH 11 0
BBX 8 16 2 0
BITMAP
36
36
00
FF
C0
C0
C0
C0
FF
C0
C0
C0
C0
C0
C0
FF
ENDCHAR
STARTCHAR Igrave
ENCODING 204
SWIDTH 600 0
DWIDTH 11 0
BBX 7 17 2 0
BITMAP
60
20
10
00
FE
30
30
30
30
30
30
30
30
30
30
30
FE
ENDCHAR
STARTCHAR Iacute
ENCODING 205
SWIDTH 600 0
DWIDTH 11 0
BBX 7 17 2 0
BITMAP
0C
08
18
00
FE
30
30
30
30
30
30
30
30
30
30
30
FE
ENDCHAR
STARTCHAR Icircumflex
ENCODING 206
SWIDTH 600 0
DWIDTH 11 0
BBX 7 17 2 0
BITMAP
38
28
6C
00
FE
30
30
30
30
30
30
30
30
30
30
30
FE
ENDCHAR
STARTCHAR Idieresis
ENCODING 207
SWIDTH 600 0
DWIDTH 11 0
BBX 7 16 2 0
BITMAP
6C
6C
00
FE
30
30
30
30
30
30
30
30
30
30
30
FE
ENDCHAR
STARTCHAR Eth
ENCODING 208
SWIDTH 600 0
DWIDTH 11 0
BBX 10 13 0 0
BITMAP
7E00
6700
6180
60C0
60C0
FCC0
60C0
60C0
60C0
6080
6180
6700
7E00
ENDCHAR
STARTCHAR Ntilde
ENCODING 209
SWIDTH 600 0
DWIDTH 11 0
BBX 9 17 1 0
BITMAP
3100
7F00
4600
0000
C180
C180
A180
B180
9180
D980
C980
CD80
C480
C680
C280
C180
C180
ENDCHAR
STARTCHAR Ograve
ENCODING 210
SWIDTH 600 0
DWIDTH 11 0
BBX 9 17 1 0
BITMAP
1800
0800
0400
0000
3E00
7700
6300
C180
C180
C180
C180
C180
C180
C180
6300
7700
3E00
ENDCHAR
STARTCHAR Oacute
ENCODING 211
SWIDTH 600 0
DWIDTH 11 0
BBX 9 17 1 0
BITMAP
0600
0400
0C00
0000
3E00
7700
6300
C180
C180
C180
C180
C180
C180
C180
6300
7700
3E00
ENDCHAR
STARTCHAR Ocircumflex
ENCODING 212
SWIDTH 600 0
DWIDTH 11 0
BBX 9 17 1 0
BITMAP
1C00
1400
3600
0000
3E00
7700
6300
C180
C180
C180
C180
C180
C180
C180
6300
7700
3E00
ENDCHAR
STARTCHAR Otilde
ENCODING 213
SWIDTH 600 0
DWIDTH 11 0
BBX 9 17 1 0
BITMAP
3100
7F00
4600
0000
3E00
7700
6300
C180
C180
C180
C180
C180
C180
C180
6300
7700
3E00
ENDCHAR
STARTCHAR Odieresis
ENCODING 214
SWIDTH 600 0
DWIDTH 11 0
BBX 9 16 1 0
BITMAP
3600
3600
0000
3E00
7700
6300
C180
C180
C180
C180
C180
C180
C180
6300
7700
3E00
ENDCHAR
STARTCHAR multiply
ENCODING 215
SWIDTH 600 0
DWIDTH 11 0
BBX 7 7 2 3
BITMAP
82
44
28
10
28
44
82
ENDCHAR
STARTCHAR Oslash
ENCODING 216
SWIDTH 600 0
DWIDTH 11 0
BBX 9 13 1 0
BITMAP
3F80
7700
6300
C380
C580
C580
C980
D980
D180
E180
6300
7700
FE00
ENDCHAR
STARTCHAR Ugrave
ENCODING 217
SWIDTH 600 0
DWIDTH 11 0
BBX 9 17 1 0
BITMAP
1800
0800
0400
0000
C180
C180
C180
C180
C180
C180
C180
C180
C180
C180
C180
7700
3E00
ENDCHAR
STARTCHAR Uacute
ENCODING 218
SWIDTH 600 0
DWIDTH 11 0
BBX 9 17 1 0
BITMAP
0600
0400
0C00
0000
C180
C180
C180
C180
C180
C180
C180
C180
C180
C180
C180
7700
3E00
ENDCHAR
STARTCHAR Ucircumflex
ENCODING 219
SWIDTH 600 0
DWIDTH 11 0
BBX 9 17 1 0
BITMAP
1C00
1400
3600
0000
C180
C180
C180
C180
C180
C180
C180
C180
C180
C180
C180
7700
3E00
ENDCHAR
STARTCHAR Udieresis
ENCODING 220
SWIDTH 600 0
DWIDTH 11 0
BBX 9 16 1 0
BITMAP
3600
3600
0000
C180
C180
C180
C180
C180
C180
C180
C180
C180
C180
C180
7700
3E00
ENDCHAR
STARTCHAR Yacute
ENCODING 221
SWIDTH 600 0
DWIDTH 11 0
BBX 9 17 1 0
BITMAP
0600
0400
0C00
0000
8180
C100
4300
6200
2600
3400
1C00
1800
1800
1800
1800
1800
1800
ENDCHAR
STARTCHAR Thorn
ENCODING 222
SWIDTH 600 0
DWIDTH 11 0
BBX 9 13 1 0
BITMAP
C000
C000
FE00
C700
C180
C180
C180
C180
C700
FE00
C000
C000
C000
ENDCHAR
STARTCHAR germandbls
ENCODING 223
SWIDTH 600 0
DWIDTH 11 0
BBX 9 14 1 0
BITMAP
3E00
E700
C300
C300
C600
CC00
D800
CC00
C700
C380
C180
C180
D180
DF00
ENDCHAR
STARTCHAR agrave
ENCODING 224
SWIDTH 600 0
DWIDTH 11 0
BBX 8 14 1 0
BITMAP
30
10
08
00
7E
67
03
03
3F
E3
C3
C3
C7
79
ENDCHAR
STARTCHAR aacute
ENCODING 225
SWIDTH 600 0
DWIDTH 11 0
BBX 8 14 1 0
BITMAP
06
04
0C
00
7E
67
03
03
3F
E3
C3
C3
C7
79
ENDCHAR
STARTCHAR acircumflex
ENCODING 226
SWIDTH 600 0
DWIDTH 11 0
BBX 8 14 1 0
BITMAP
1C
14
36
00
7E
67
03
03
3F
E3
C3
C3
C7
79
ENDCHAR
STARTCHAR atilde
ENCODING 227
SWIDTH 600 0
DWIDTH 11 0
BBX 8 14 1 0
BITMAP
31
7F
46
00
7E
67
03
03
3F
E3
C3
C3
C7
79
ENDCHAR
STARTCHAR adieresis
ENCODING 228
SWIDTH 600 0
DWIDTH 11 0
BBX 8 13 1 0
BITMAP
36
36
00
7E
67
03
03
3F
E3
C3
C3
C7
79
ENDCHAR
STARTCHAR aring
ENCODING 229
SWIDTH 600 0
DWIDTH 11 0
BBX 8 15 1 0
BITMAP
0C
12
12
0C
00
7E
67
03
03
3F
E3
C3
C3
C7
79
ENDCHAR
STARTCHAR ae
ENCODING 230
SWIDTH 600 0
DWIDTH 11 0
BBX 11 10 0 0
BITMAP
79C0
4F40
0660
0660
7FE0
E600
C600
C600
CB60
71E0
ENDCHAR
STARTCHAR ccedilla
ENCODING 231
SWIDTH 600 0
DWIDTH 11 0
BBX 7 14 2 -4
BITMAP
3E
62
C0
C0
C0
C0
C0
C0
62
3E
08
0C
04
18
ENDCHAR
STARTCHAR egrave
ENCODING 232
SWIDTH 600 0
DWIDTH 11 0
BBX 9 14 1 0
BITMAP
1800
0800
0400
0000
3E00
6300
4180
C180
FF80
C000
C000
4000
7100
1F00
ENDCHAR
STARTCHAR eacute
ENCODING 233
SWIDTH 600 0
DWIDTH 11 0
BBX 9 14 1 0
BITMAP
0600
0400
0C00
0000
3E00
6300
4180
C180
FF80
C000
C000
4000
7100
1F00
ENDCHAR
STARTCHAR ecircumflex
ENCODING 234
SWIDTH 600 0
DWIDTH 11 0
BBX 9 14 1 0
BITMAP
1C00
1400
3600
0000
3E00
6300
4180
C180
FF80
C000
C000
4000
7100
1F00
ENDCHAR
STARTCHAR edieresis
ENCODING 235
SWIDTH 600 0
DWIDTH 11 0
BBX 9 13 1 0
BITMAP
3600
3600
0000
3E00
6300
4180
C180
FF80
C000
C000
4000
7100
1F00
ENDCHAR
STARTCHAR igrave
ENCODING 236
SWIDTH 600 0
DWIDTH 11 0
BBX 8 14 2 0
BITMAP
30
10
08
00
78
18
18
18
18
18
18
18
18
FF
ENDCHAR
STARTCHAR iacute
ENCODING 237
SWIDTH 600 0
DWIDTH 11 0
BBX 8 14 2 0
BITMAP
0C
08
18
00
78
18
18
18
18
18
18
18
18
FF
ENDCHAR
STARTCHAR icircumflex
ENCODING 238
SWIDTH 600 0
DWIDTH 11 0
BBX 8 14 2 0
BITMAP
38
28
6C
00
78
18
18
18
18
18
18
18
18
FF
ENDCHAR
STARTCHAR idieresis
ENCODING 239
SWIDTH 600 0
DWIDTH 11 0
BBX 8 13 2 0
BITMAP
6C
6C
00
78
18
18
18
18
18
18
18
18
FF
ENDCHAR
STARTCHAR eth
ENCODING 240
SWIDTH 600 0
DWIDTH 11 0
BBX 9 14 1 0
BITMAP
1100
1A00
1E00
3300
0100
3F80
6380
C180
C180
C180
C180
C100
6300
3E00
ENDCHAR
STARTCHAR ntilde
ENCODING 241
SWIDTH 600 0
DWIDTH 11 0
BBX 8 14 1 0
BITMAP
31
7F
46
00
9E
E7
C3
C3
C3
C3
C3
C3
C3
C3
ENDCHAR
STARTCHAR ograve
ENCODING 242
SWIDTH 600 0
DWIDTH 11 0
BBX 9 14 1 0
BITMAP
1800
0800
0400
0000
3E00
6300
C180
C180
C180
C180
C180
4180
6300
3E00
ENDCHAR
STARTCHAR oacute
ENCODING 243
SWIDTH 600 0
DWIDTH 11 0
BBX 9 14 1 0
BITMAP
0600
0400
0C00
0000
3E00
6300
C180
C180
C180
C180
C180
4180
6300
3E00
ENDCHAR
STARTCHAR ocircumflex
ENCODING 244
SWIDTH 600 0
DWIDTH 11 0
BBX 9 14 1 0
BITMAP
1C00
1400
3600
0000
3E00
6300
C180
C180
C180
C180
C180
4180
6300
3E00
ENDCHAR
STARTCHAR otilde
ENCODING 245
SWIDTH 600 0
DWIDTH 11 0
BBX 9 14 1 0
BITMAP
3100
7F00
4600
0000
3E00
6300
C180
C180
C180
C180
C180
4180
6300
3E00
ENDCHAR
STARTCHAR odieresis
ENCODING 246
SWIDTH 600 0
DWIDTH 11 0
BBX 9 13 1 0
BITMAP
3600
3600
0000
3E00
6300
C180
C180
C180
C180
C180
4180
6300
3E00
ENDCHAR
STARTCHAR divide
ENCODING 247
SWIDTH 600 0
DWIDTH 11 0
BBX 8 10 2 1
BITMAP
18
18
00
00
FF
00
00
00
18
18
ENDCHAR
STARTCHAR oslash
ENCODING 248
SWIDTH 600 0
DWIDTH 11 0
BBX 9 10 1 0
BITMAP
3F00
6300
C380
C580
C980
C980
D180
E180
6300
7E00
ENDCHAR
STARTCHAR ugrave
ENCODING 249
SWIDTH 600 0
DWIDTH 11 0
BBX 8 14 1 0
BITMAP
30
10
08
00
C3
C3
C3
C3
C3
C3
C3
C3
E7
79
ENDCHAR
STARTCHAR uacute
ENCODING 250
SWIDTH 600 0
DWIDTH 11 0
BBX 8 14 1 0
BITMAP
0C
08
18
00
C3
C3
C3
C3
C3
C3
C3
C3
E7
79
ENDCHAR
STARTCHAR ucircumflex
ENCODING 251
SWIDTH 600 0
DWIDTH 11 0
BBX 8 14 1 0
BITMAP
1C
14
36
00
C3
C3
C3
C3
C3
C3
C3
C3
E7
79
ENDCHAR
STARTCHAR udieresis
ENCODING 252
SWIDTH 600 0
DWIDTH 11 0
BBX 8 13 1 0
BITMAP
36
36
00
C3
C3
C3
C3
C3
C3
C3
C3
E7
79
ENDCHAR
STARTCHAR yacute
ENCODING 253
SWIDTH 600 0
DWIDTH 11 0
BBX 9 18 1 -4
BITMAP
0600
0400
0C00
0000
C180
4100
6300
6300
2200
3600
3600
1400
1400
0800
0800
1800
3000
E000
ENDCHAR
STARTCHAR thorn
ENCODING 254
SWIDTH 600 0
DWIDTH 11 0
BBX 9 18 1 -4
BITMAP
C000
C000
C000
C000
DE00
E300
C180
C180
C180
C180
C180
C180
E300
DE00
C000
C000
C000
C000
ENDCHAR
STARTCHAR ydieresis
ENCODING 255
SWIDTH 600 0
DWIDTH 11 0
BBX 9 17 1 -4
BITMAP
3600
3600
0000
C180
4100
6300
6300
2200
3600
3600
1400
1400
0800
0800
1800
3000
E000
ENDCHAR
STARTCHAR .notdef
ENCODING -1
SWIDTH 600 0
DWIDTH 11 0
BBX 7 13 2 0
BITMAP
FE
82
82
82
82
82
82
82
82
82
82
82
FE
ENDCHAR
STARTCHAR Amacron
ENCODING -1
SWIDTH 600 0
DWIDTH 11 0
BBX 11 15 0 0
BITMAP
1F00
0000
0E00
0E00
0A00
1B00
1B00
1100
3180
3180
3F80
60C0
60C0
4040
C060
ENDCHAR
STARTCHAR amacron
ENCODING -1
SWIDTH 600 0
DWIDTH 11 0
BBX 8 12 1 0
BITMAP
3E
00
7E
67
03
03
3F
E3
C3
C3
C7
79
ENDCHAR
STARTCHAR Abreve
ENCODING -1
SWIDTH 600 0
DWIDTH 11 0
BBX 11 17 0 0
BITMAP
1100
1B00
0E00
0000
0E00
0E00
0A00
1B00
1B00
1100
3180
3180
3F80
60C0
60C0
4040
C060
ENDCHAR
STARTCHAR abreve
ENCODING -1
SWIDTH 600 0
DWIDTH 11 0
BBX 8 14 1 0
BITMAP
22
36
1C
00
7E
67
03
03
3F
E3
C3
C3
C7
79
ENDCHAR
STARTCHAR Aogonek
ENCODING -1
SWIDTH 600 0
DWIDTH 11 0
BBX 12 17 0 -4
BITMAP
0E00
0E00
0A00
1B00
1B00
1100
3180
3180
3F80
60C0
60C0
4040
C060
0040
0080
0080
0070
ENDCHAR
STARTCHAR aogonek
ENCODING -1
SWIDTH 600 0
DWIDTH 11 0
BBX 9 14 1 -4
BITMAP
7E00
6700
0300
0300
3F00
E300
C300
C300
C700
7900
0200
0400
0400
0380
ENDCHAR
STARTCHAR Cacute
ENCODING -1
SWIDTH 600 0
DWIDTH 11 0
BBX 9 17 1 0
BITMAP
0300
0200
0600
0000
1F00
3980
6000
C000
C000
C000
C000
C000
C000
C000
6000
3980
1F80
ENDCHAR
STARTCHAR cacute
ENCODING -1
SWIDTH 600 0
DWIDTH 11 0
BBX 7 14 2 0
BITMAP
06
04
0C
00
3E
62
C0
C0
C0
C0
C0
C0
62
3E
ENDCHAR
STARTCHAR Ccircumflex
ENCODING -1
SWIDTH 600 0
DWIDTH 11 0
BBX 9 17 1 0
BITMAP
0E00
0A00
1B00
0000
1F00
3980
6000
C000
C000
C000
C000
C000
C000
C000
6000
3980
1F80
ENDCHAR
STARTCHAR ccircumflex
ENCODING -1
SWIDTH 600 0
DWIDTH 11 0
BBX 7 14 2 0
BITMAP
1C
14
36
00
3E
62
C0
C0
C0
C0
C0
C0
62
3E
ENDCHAR
STARTCHAR Cdotaccent
ENCODING -1
SWIDTH 600 0
DWIDTH 11 0
BBX 9 16 1 0
BITMAP
0400
0400
0000
1F00
3980
6000
C000
C000
C000
C000
C000
C000
C000
6000
3980
1F80
ENDCHAR
STARTCHAR cdotaccent
ENCODING -1
SWIDTH 600 0
DWIDTH 11 0
BBX 7 13 2 0
BITMAP
08
08
00
3E
62
C0
C0
C0
C0
C0
C0
62
3E
ENDCHAR
STARTCHAR Ccaron
ENCODING -1
SWIDTH 600 0
DWIDTH 11 0
BBX 9 17 1 0
BITMAP
1B00
0A00
0E00
0000
1F00
3980
6000
C000
C000
C000
C000
C000
C000
C000
6000
3980
1F80
ENDCHAR
STARTCHAR ccaron
ENCODING -1
SWIDTH 600 0
DWIDTH 11 0
BBX 7 14 2 0
BITMAP
36
14
1C
00
3E
62
C0
C0
C0
C0
C0
C0
62
3E
ENDCHAR
STARTCHAR Dcaron
ENCODING -1
SWIDTH 600 0
DWIDTH 11 0
BBX 9 17 1 0
BITMAP
3600
1400
1C00
0000
FC00
CE00
C300
C180
C180
C180
C180
C180
C180
C100
C300
CE00
FC00
ENDCHAR
STARTCHAR dcaron
ENCODING -1
SWIDTH 600 0
DWIDTH 11 0
BBX 11 14 0 0
BITMAP
0360
0360
0340
0300
3B00
6700
C300
C300
C300
C300
C300
C300
6700
3900
ENDCHAR
STARTCHAR Dcroat
ENCODING -1
SWIDTH 600 0
DWIDTH 11 0
BBX 10 13 0 0
BITMAP
7E00
6700
6180
60C0
60C0
FCC0
60C0
60C0
60C0
6080
6180
6700
7E00
ENDCHAR
STARTCHAR dcroat
ENCODING -1
SWIDTH 600 0
DWIDTH 11 0
BBX 9 14 1 0
BITMAP
0300
0300
1F80
0300
3B00
6700
C300
C300
C300
C300
C300
C300
6700
3D00
ENDCHAR
STARTCHAR Emacron
ENCODING -1
SWIDTH 600 0
DWIDTH 11 0
BBX 8 15 2 0
BITMAP
3E
00
FF
C0
C0
C0
C0
FF
C0
C0
C0
C0
C0
C0
FF
ENDCHAR
STARTCHAR emacron
ENCODING -1
SWIDTH 600 0
DWIDTH 11 0
BBX 9 12 1 0
BITMAP
3E00
0000
3E00
6300
4180
C180
FF80
C000
C000
4000
7100
1F00
ENDCHAR
STARTCHAR Ebreve
ENCODING -1
SWIDTH 600 0
DWIDTH 11 0
BBX 8 17 2 0
BITMAP
22
36
1C
00
FF
C0
C0
C0
C0
FF
C0
C0
C0
C0
C0
C0
FF
ENDCHAR
STARTCHAR ebreve
ENCODING -1
SWIDTH 600 0
DWIDTH 11 0
BBX 9 14 1 0
BITMAP
2200
3600
1C00
0000
3E00
6300
4180
C180
FF80
C000
C000
4000
7100
1F00
ENDCHAR
STARTCHAR Edotaccent
ENCODING -1
SWIDTH 600 0
DWIDTH 11 0
BBX 8 16 2 0
BITMAP
08
08
00
FF
C0
C0
C0
C0
FF
C0
C0
C0
C0
C0
C0
FF
ENDCHAR
STARTCHAR edotaccent
ENCODING -1
SWIDTH 600 0
DWIDTH 11 0
BBX 9 13 1 0
BITMAP
0800
0800
0000
3E00
6300
4180
C180
FF80
C000
C000
4000
7100
1F00
ENDCHAR
STARTCHAR Eogonek
ENCODING -1
SWIDTH 600 0
DWIDTH 11 0
BBX 8 17 2 -4
BITMAP
FF
C0
C0
C0
C0
FF
C0
C0
C0
C0
C0
C0
FF
04
08
08
07
ENDCHAR
STARTCHAR eogonek
ENCODING -1
SWIDTH 600 0
DWIDTH 11 0
BBX 9 14 1 -4
BITMAP
3E00
6300
4180
C180
FF80
C000
C000
4000
7100
1F00
0200
0400
0400
0380
ENDCHAR
STARTCHAR Ecaron
ENCODING -1
SWIDTH 600 0
DWIDTH 11 0
BBX 8 17 2 0
BITMAP
36
14
1C
00
FF
C0
C0
C0
C0
FF
C0
C0
C0
C0
C0
C0
FF
ENDCHAR
STARTCHAR ecaron
ENCODING -1
SWIDTH 600 0
DWIDTH 11 0
BBX 9 14 1 0
BITMAP
3600
1400
1C00
0000
3E00
6300
4180
C180
FF80
C000
C000
4000
7100
1F00
ENDCHAR
STARTCHAR Gcircumflex
ENCODING -1
SWIDTH 600 0
DWIDTH 11 0
BBX 9 17 1 0
BITMAP
0E00
0A00
1B00
0000
1F00
3B00
6000
C000
C000
C780
C180
C180
C180
C180
6180
3B80
1F00
ENDCHAR
STARTCHAR gcircumflex
ENCODING -1
SWIDTH 600 0
DWIDTH 11 0
BBX 10 18 0 -4
BITMAP
0E00
0A00
1B00
0000
1FC0
6180
6180
6180
6180
3E00
3000
2000
3F80
60C0
C0C0
C0C0
E180
3F00
ENDCHAR
STARTCHAR Gbreve
ENCODING -1
SWIDTH 600 0
DWIDTH 11 0
BBX 9 17 1 0
BITMAP
1100
1B00
0E00
0000
1F00
3B00
6000
C000
C000
C780
C180
C180
C180
C180
6180
3B80
1F00
ENDCHAR
STARTCHAR gbreve
ENCODING -1
SWIDTH 600 0
DWIDTH 11 0
BBX 10 18 0 -4
BITMAP
1100
1B00
0E00
0000
1FC0
6180
6180
6180
6180
3E00
3000
2000
3F80
60C0
C0C0
C0C0
E180
3F00
ENDCHAR
STARTCHAR Gdotaccent
ENCODING -1
SWIDTH 600 0
DWIDTH 11 0
BBX 9 16 1 0
BITMAP
0400
0400
0000
1F00
3B00
6000
C000
C000
C780
C180
C180
C180
C180
6180
3B80
1F00
ENDCHAR
STARTCHAR gdotaccent
ENCODING -1
SWIDTH 600 0
DWIDTH 11 0
BBX 10 17 0 -4
BITMAP
0400
0400
0000
1FC0
6180
6180
6180
6180
3E00
3000
2000
3F80
60C0
C0C0
C0C0
E180
3F00
ENDCHAR
STARTCHAR uni0122
ENCODING -1
SWIDTH 600 0
DWIDTH 11 0
BBX 9 17 1 -4
BITMAP
1F00
3B00
6000
C000
C000
C780
C180
C180
C180
C180
6180
3B80
1F00
0000
0400
0C00
0800
ENDCHAR
STARTCHAR uni0123
ENCODING -1
SWIDTH 600 0
DWIDTH 11 0
BBX 10 18 0 -4
BITMAP
0200
0600
0400
0000
1FC0
6180
6180
6180
6180
3E00
3000
2000
3F80
60C0
C0C0
C0C0
E180
3F00
ENDCHAR
STARTCHAR Hcircumflex
ENCODING -1
SWIDTH 600 0
DWIDTH 11 0
BBX 9 17 1 0
BITMAP
1C00
1400
3600
0000
C180
C180
C180
C180
C180
FF80
C180
C180
C180
C180
C180
C180
C180
ENDCHAR
STARTCHAR hcircumflex
ENCODING -1
SWIDTH 600 0
DWIDTH 11 0
BBX 8 18 1 0
BITMAP
1C
14
36
00
C0
C0
C0
C0
DE
E7
C3
C3
C3
C3
C3
C3
C3
C3
ENDCHAR
STARTCHAR Hbar
ENCODING -1
SWIDTH 600 0
DWIDTH 11 0
BBX 11 13 0 0
BITMAP
60C0
60C0
FFE0
60C0
60C0
7FC0
60C0
60C0
60C0
60C0
60C0
60C0
60C0
ENDCHAR
STARTCHAR hbar
ENCODING -1
SWIDTH 600 0
DWIDTH 11 0
BBX 9 14 0 0
BITMAP
6000
6000
FC00
6000
6F00
7380
6180
6180
6180
6180
6180
6180
6180
6180
ENDCHAR
STARTCHAR Itilde
ENCODING -1
SWIDTH 600 0
DWIDTH 11 0
BBX 7 17 2 0
BITMAP
62
FE
8C
00
FE
30
30
30
30
30
30
30
30
30
30
30
FE
ENDCHAR
STARTCHAR itilde
ENCODING -1
SWIDTH 600 0
DWIDTH 11 0
BBX 8 14 2 0
BITMAP
62
FE
8C
00
78
18
18
18
18
18
18
18
18
FF
ENDCHAR
STARTCHAR Imacron
ENCODING -1
SWIDTH 600 0
DWIDTH 11 0
BBX 7 15 2 0
BITMAP
7C
00
FE
30
30
30
30
30
30
30
30
30
30
30
FE
ENDCHAR
STARTCHAR imacron
ENCODING -1
SWIDTH 600 0
DWIDTH 11 0
BBX 8 12 2 0
BITMAP
7C
00
78
18
18
18
18
18
18
18
18
FF
ENDCHAR
STARTCHAR Ibreve
ENCODING -1
SWIDTH 600 0
DWIDTH 11 0
BBX 7 17 2 0
BITMAP
44
6C
38
00
FE
30
30
30
30
30
30
30
30
30
30
30
FE
ENDCHAR
STARTCHAR ibreve
ENCODING -1
SWIDTH 600 0
DWIDTH 11 0
BBX 8 14 2 0
BITMAP
22
36
1C
00
78
18
18
18
18
18
18
18
18
FF
ENDCHAR
STARTCHAR Iogonek
ENCODING -1
SWIDTH 600 0
DWIDTH 11 0
BBX 7 17 2 -4
BITMAP
FE
30
30
30
30
30
30
30
30
30
30
30
FE
10
20
20
1C
ENDCHAR
STARTCHAR iogonek
ENCODING -1
SWIDTH 600 0
DWIDTH 11 0
BBX 8 18 2 -4
BITMAP
18
18
00
00
78
18
18
18
18
18
18
18
18
FF
10
20
20
1C
ENDCHAR
STARTCHAR Idotaccent
ENCODING -1
SWIDTH 600 0
DWIDTH 11 0
BBX 7 16 2 0
BITMAP
10
10
00
FE
30
30
30
30
30
30
30
30
30
30
30
FE
ENDCHAR
STARTCHAR dotlessi
ENCODING -1
SWIDTH 600 0
DWIDTH 11 0
BBX 8 10 2 0
BITMAP
78
18
18
18
18
18
18
18
18
FF
ENDCHAR
STARTCHAR IJ
ENCODING -1
SWIDTH 600 0
DWIDTH 11 0
BBX 9 13 1 0
BITMAP
C180
C180
C180
C180
C180
C180
C180
C180
C180
C180
C180
D300
DE00
ENDCHAR
STARTCHAR ij
ENCODING -1
SWIDTH 600 0
DWIDTH 11 0
BBX 7 18 2 -4
BITMAP
C6
C6
00
00
CE
C6
C6
C6
C6
C6
C6
C6
C6
C6
06
06
06
1C
ENDCHAR
STARTCHAR Jcircumflex
ENCODING -1
SWIDTH 600 0
DWIDTH 11 0
BBX 10 17 1 0
BITMAP
0380
0280
06C0
0000
0300
0300
0300
0300
0300
0300
0300
0300
0300
0300
0300
CE00
FC00
ENDCHAR
STARTCHAR jcircumflex
ENCODING -1
SWIDTH 600 0
DWIDTH 11 0
BBX 7 18 2 -4
BITMAP
1C
14
36
00
7C
0C
0C
0C
0C
0C
0C
0C
0C
0C
0C
0C
9C
F8
ENDCHAR
STARTCHAR uni0136
ENCODING -1
SWIDTH 600 0
DWIDTH 11 0
BBX 9 17 2 -4
BITMAP
C180
C300
C600
CC00
D800
F000
F000
C800
CC00
C600
C200
C300
C180
0000
0800
1800
1000
ENDCHAR
STARTCHAR uni0137
ENCODING -1
SWIDTH 600 0
DWIDTH 11 0
BBX 8 18 2 -4
BITMAP
C0
C0
C0
C0
C2
C4
C8
D0
A0
F0
C8
CC
C6
C3
00
08
18
10
ENDCHAR
STARTCHAR kgreenlandic
ENCODING -1
SWIDTH 600 0
DWIDTH 11 0
BBX 8 10 2 0
BITMAP
C2
C4
C8
D0
A0
F0
D8
CC
C6
C3
ENDCHAR
STARTCHAR Lacute
ENCODING -1
SWIDTH 600 0
DWIDTH 11 0
BBX 8 17 2 0
BITMAP
30
20
60
00
C0
C0
C0
C0
C0
C0
C0
C0
C0
C0
C0
C0
FF
ENDCHAR
STARTCHAR lacute
ENCODING -1
SWIDTH 600 0
DWIDTH 11 0
BBX 8 18 2 0
BITMAP
0C
08
18
00
78
18
18
18
18
18
18
18
18
18
18
18
18
FF
ENDCHAR
STARTCHAR uni013B
ENCODING -1
SWIDTH 600 0
DWIDTH 11 0
BBX 8 17 2 -4
BITMAP
C0
C0
C0
C0
C0
C0
C0
C0
C0
C0
C0
C0
FF
00
08
18
10
ENDCHAR
STARTCHAR uni013C
ENCODING -1
SWIDTH 600 0
DWIDTH 11 0
BBX 8 18 2 -4
BITMAP
78
18
18
18
18
18
18
18
18
18
18
18
18
FF
00
08
18
10
ENDCHAR
STARTCHAR Lcaron
ENCODING -1
SWIDTH 600 0
DWIDTH 11 0
BBX 8 13 2 0
BITMAP
C6
C6
C4
C0
C0
C0
C0
C0
C0
C0
C0
C0
FF
ENDCHAR
STARTCHAR lcaron
ENCODING -1
SWIDTH 600 0
DWIDTH 11 0
BBX 8 14 2 0
BITMAP
7B
1B
1A
18
18
18
18
18
18
18
18
18
18
FF
ENDCHAR
STARTCHAR Ldot
ENCODING -1
SWIDTH 600 0
DWIDTH 11 0
BBX 8 13 2 0
BITMAP
C0
C0
C0
C0
C4
C4
C0
C0
C0
C0
C0
C0
FF
ENDCHAR
STARTCHAR ldot
ENCODING -1
SWIDTH 600 0
DWIDTH 11 0
BBX 8 14 2 0
BITMAP
78
18
18
18
18
18
1A
1A
18
18
18
18
18
FF
ENDCHAR
STARTCHAR Lslash
ENCODING -1
SWIDTH 600 0
DWIDTH 11 0
BBX 10 13 0 0
BITMAP
3000
3000
3000
3000
3200
3C00
3800
7000
B000
3000
3000
3000
3FC0
ENDCHAR
STARTCHAR lslash
ENCODING -1
SWIDTH 600 0
DWIDTH 11 0
BBX 8 14 2 0
BITMAP
78
18
18
18
18
1E
1C
38
58
18
18
18
18
FF
ENDCHAR
STARTCHAR Nacute
ENCODING -1
SWIDTH 600 0
DWIDTH 11 0
BBX 9 17 1 0
BITMAP
0600
0400
0C00
0000
C180
C180
A180
B180
9180
D980
C980
CD80
C480
C680
C280
C180
C180
ENDCHAR
STARTCHAR nacute
ENCODING -1
SWIDTH 600 0
DWIDTH 11 0
BBX 8 14 1 0
BITMAP
06
04
0C
00
9E
E7
C3
C3
C3
C3
C3
C3
C3
C3
ENDCHAR
STARTCHAR uni0145
ENCODING -1
SWIDTH 600 0
DWIDTH 11 0
BBX 9 17 1 -4
BITMAP
C180
C180
A180
B180
9180
D980
C980
CD80
C480
C680
C280
C180
C180
0000
0800
1800
1000
ENDCHAR
STARTCHAR uni0146
ENCODING -1
SWIDTH 600 0
DWIDTH 11 0
BBX 8 14 1 -4
BITMAP
9E
E7
C3
C3
C3
C3
C3
C3
C3
C3
00
08
18
10
ENDCHAR
STARTCHAR Ncaron
ENCODING -1
SWIDTH 600 0
DWIDTH 11 0
BBX 9 17 1 0
BITMAP
3600
1400
1C00
0000
C180
C180
A180
B180
9180
D980
C980
CD80
C480
C680
C280
C180
C180
ENDCHAR
STARTCHAR ncaron
ENCODING -1
SWIDTH 600 0
DWIDTH 11 0
BBX 8 14 1 0
BITMAP
36
14
1C
00
9E
E7
C3
C3
C3
C3
C3
C3
C3
C3
ENDCHAR
STARTCHAR napostrophe
ENCODING -1
SWIDTH 600 0
DWIDTH 11 0
BBX 10 14 0 0
BITMAP
6000
4000
C000
8000
2780
39C0
30C0
30C0
30C0
30C0
30C0
30C0
30C0
30C0
ENDCHAR
STARTCHAR Eng
ENCODING -1
SWIDTH 600 0
DWIDTH 11 0
BBX 9 16 1 -3
BITMAP
C180
E180
A180
B180
9180
D980
C980
CC80
C680
C280
C380
C180
C180
0080
0B80
0F00
ENDCHAR
STARTCHAR eng
ENCODING -1
SWIDTH 600 0
DWIDTH 11 0
BBX 8 14 1 -4
BITMAP
9E
E7
C3
C3
C3
C3
C3
C3
C3
C3
03
03
03
0E
ENDCHAR
STARTCHAR Omacron
ENCODING -1
SWIDTH 600 0
DWIDTH 11 0
BBX 9 15 1 0
BITMAP
3E00
0000
3E00
7700
6300
C180
C180
C180
C180
C180
C180
C180
6300
7700
3E00
ENDCHAR
STARTCHAR omacron
ENCODING -1
SWIDTH 600 0
DWIDTH 11 0
BBX 9 12 1 0
BITMAP
3E00
0000
3E00
6300
C180
C180
C180
C180
C180
4180
6300
3E00
ENDCHAR
STARTCHAR Obreve
ENCODING -1
SWIDTH 600 0
DWIDTH 11 0
BBX 9 17 1 0
BITMAP
2200
3600
1C00
0000
3E00
7700
6300
C180
C180
C180
C180
C180
C180
C180
6300
7700
3E00
ENDCHAR
STARTCHAR obreve
ENCODING -1
SWIDTH 600 0
DWIDTH 11 0
BBX 9 14 1 0
BITMAP
2200
3600
1C00
0000
3E00
6300
C180
C180
C180
C180
C180
4180
6300
3E00
ENDCHAR
STARTCHAR Ohungarumlaut
ENCODING -1
SWIDTH 600 0
DWIDTH 11 0
BBX 9 17 1 0
BITMAP
1B00
1200
2400
0000
3E00
7700
6300
C180
C180
C180
C180
C180
C180
C180
6300
7700
3E00
ENDCHAR
STARTCHAR ohungarumlaut
ENCODING -1
SWIDTH 600 0
DWIDTH 11 0
BBX 9 14 1 0
BITMAP
1B00
1200
2400
0000
3E00
6300
C180
C180
C180
C180
C180
4180
6300
3E00
ENDCHAR
STARTCHAR OE
ENCODING -1
SWIDTH 600 0
DWIDTH 11 0
BBX 10 13 0 0
BITMAP
3FC0
7E00
4600
C600
C600
C7C0
C600
C600
C600
C600
4600
7E00
3FC0
ENDCHAR
STARTCHAR oe
ENCODING -1
SWIDTH 600 0
DWIDTH 11 0
BBX 11 10 0 0
BITMAP
39C0
6E40
C660
C660
C7E0
C600
C600
C600
6F60
39C0
ENDCHAR
STARTCHAR Racute
ENCODING -1
SWIDTH 600 0
DWIDTH 11 0
BBX 10 17 1 0
BITMAP
0600
0400
0C00
0000
FE00
C700
C180
C180
C180
C300
FE00
CC00
C600
C300
C100
C180
C0C0
ENDCHAR
STARTCHAR racute
ENCODING -1
SWIDTH 600 0
DWIDTH 11 0
BBX 7 14 2 0
BITMAP
0C
08
18
00
9E
A2
C0
C0
C0
C0
C0
C0
C0
C0
ENDCHAR
STARTCHAR uni0156
ENCODING -1
SWIDTH 600 0
DWIDTH 11 0
BBX 10 17 1 -4
BITMAP
FE00
C700
C180
C180
C180
C300
FE00
CC00
C600
C300
C100
C180
C0C0
0000
0400
0C00
0800
ENDCHAR
STARTCHAR uni0157
ENCODING -1
SWIDTH 600 0
DWIDTH 11 0
BBX 7 14 2 -4
BITMAP
9E
A2
C0
C0
C0
C0
C0
C0
C0
C0
00
40
C0
80
ENDCHAR
STARTCHAR Rcaron
ENCODING -1
SWIDTH 600 0
DWIDTH 11 0
BBX 10 17 1 0
BITMAP
3600
1400
1C00
0000
FE00
C700
C180
C180
C180
C300
FE00
CC00
C600
C300
C100
C180
C0C0
ENDCHAR
STARTCHAR rcaron
ENCODING -1
SWIDTH 600 0
DWIDTH 11 0
BBX 7 14 2 0
BITMAP
6C
28
38
00
9E
A2
C0
C0
C0
C0
C0
C0
C0
C0
ENDCHAR
STARTCHAR Sacute
ENCODING -1
SWIDTH 600 0
DWIDTH 11 0
BBX 9 17 1 0
BITMAP
0600
0400
0C00
0000
3F00
7380
C000
C000
C000
7000
3E00
0700
0180
0180
0180
C700
FE00
ENDCHAR
STARTCHAR sacute
ENCODING -1
SWIDTH 600 0
DWIDTH 11 0
BBX 7 14 2 0
BITMAP
0C
08
18
00
7E
C6
C0
C0
78
1C
06
06
CE
FC
ENDCHAR
STARTCHAR Scircumflex
ENCODING -1
SWIDTH 600 0
DWIDTH 11 0
BBX 9 17 1 0
BITMAP
1C00
1400
3600
0000
3F00
7380
C000
C000
C000
7000
3E00
0700
0180
0180
0180
C700
FE00
ENDCHAR
STARTCHAR scircumflex
ENCODING -1
SWIDTH 600 0
DWIDTH 11 0
BBX 7 14 2 0
BITMAP
38
28
6C
00
7E
C6
C0
C0
78
1C
06
06
CE
FC
ENDCHAR
STARTCHAR Scedilla
ENCODING -1
SWIDTH 600 0
DWIDTH 11 0
BBX 9 17 1 -4
BITMAP
3F00
7380
C000
C000
C000
7000
3E00
0700
0180
0180
0180
C700
FE00
0800
0C00
0400
1800
ENDCHAR
STARTCHAR scedilla
ENCODING -1
SWIDTH 600 0
DWIDTH 11 0
BBX 7 14 2 -4
BITMAP
7E
C6
C0
C0
78
1C
06
06
CE
FC
10
18
08
30
ENDCHAR
STARTCHAR Scaron
ENCODING -1
SWIDTH 600 0
DWIDTH 11 0
BBX 9 17 1 0
BITMAP
3600
1400
1C00
0000
3F00
7380
C000
C000
C000
7000
3E00
0700
0180
0180
0180
C700
FE00
ENDCHAR
STARTCHAR scaron
ENCODING -1
SWIDTH 600 0
DWIDTH 11 0
BBX 7 14 2 0
BITMAP
6C
28
38
00
7E
C6
C0
C0
78
1C
06
06
CE
FC
ENDCHAR
STARTCHAR uni021A
ENCODING -1
SWIDTH 600 0
DWIDTH 11 0
BBX 10 17 0 -4
BITMAP
FFC0
0C00
0C00
0C00
0C00
0C00
0C00
0C00
0C00
0C00
0C00
0C00
0C00
0000
0400
0C00
0800
ENDCHAR
STARTCHAR uni021B
ENCODING -1
SWIDTH 600 0
DWIDTH 11 0
BBX 7 17 2 -4
BITMAP
10
30
30
FE
30
30
30
30
30
30
30
30
1E
00
08
18
10
ENDCHAR
STARTCHAR Tcaron
ENCODING -1
SWIDTH 600 0
DWIDTH 11 0
BBX 10 17 0 0
BITMAP
1B00
0A00
0E00
0000
FFC0
0C00
0C00
0C00
0C00
0C00
0C00
0C00
0C00
0C00
0C00
0C00
0C00
ENDCHAR
STARTCHAR tcaron
ENCODING -1
SWIDTH 600 0
DWIDTH 11 0
BBX 8 14 2 0
BITMAP
03
13
32
30
FE
30
30
30
30
30
30
30
30
1E
ENDCHAR
STARTCHAR Tbar
ENCODING -1
SWIDTH 600 0
DWIDTH 11 0
BBX 10 13 0 0
BITMAP
FFC0
0C00
0C00
0C00
0C00
0C00
3F80
0C00
0C00
0C00
0C00
0C00
0C00
ENDCHAR
STARTCHAR tbar
ENCODING -1
SWIDTH 600 0
DWIDTH 11 0
BBX 7 13 2 0
BITMAP
10
30
30
FE
30
30
7C
30
30
30
30
30
1E
ENDCHAR
STARTCHAR Utilde
ENCODING -1
SWIDTH 600 0
DWIDTH 11 0
BBX 9 17 1 0
BITMAP
3100
7F00
4600
0000
C180
C180
C180
C180
C180
C180
C180
C180
C180
C180
C180
7700
3E00
ENDCHAR
STARTCHAR utilde
ENCODING -1
SWIDTH 600 0
DWIDTH 11 0
BBX 8 14 1 0
BITMAP
31
7F
46
00
C3
C3
C3
C3
C3
C3
C3
C3
E7
79
ENDCHAR
STARTCHAR Umacron
ENCODING -1
SWIDTH 600 0
DWIDTH 11 0
BBX 9 15 1 0
BITMAP
3E00
0000
C180
C180
C180
C180
C180
C180
C180
C180
C180
C180
C180
7700
3E00
ENDCHAR
STARTCHAR umacron
ENCODING -1
SWIDTH 600 0
DWIDTH 11 0
BBX 8 12 1 0
BITMAP
3E
00
C3
C3
C3
C3
C3
C3
C3
C3
E7
79
ENDCHAR
STARTCHAR Ubreve
ENCODING -1
SWIDTH 600 0
DWIDTH 11 0
BBX 9 17 1 0
BITMAP
2200
3600
1C00
0000
C180
C180
C180
C180
C180
C180
C180
C180
C180
C180
C180
7700
3E00
ENDCHAR
STARTCHAR ubreve
ENCODING -1
SWIDTH 600 0
DWIDTH 11 0
BBX 8 14 1 0
BITMAP
22
36
1C
00
C3
C3
C3
C3
C3
C3
C3
C3
E7
79
ENDCHAR
STARTCHAR Uring
ENCODING -1
SWIDTH 600 0
DWIDTH 11 0
BBX 9 18 1 0
BITMAP
0C00
1200
1200
0C00
0000
C180
C180
C180
C180
C180
C180
C180
C180
C180
C180
C180
7700
3E00
ENDCHAR
STARTCHAR uring
ENCODING -1
SWIDTH 600 0
DWIDTH 11 0
BBX 8 15 1 0
BITMAP
18
24
24
18
00
C3
C3
C3
C3
C3
C3
C3
C3
E7
79
ENDCHAR
STARTCHAR Uhungarumlaut
ENCODING -1
SWIDTH 600 0
DWIDTH 11 0
BBX 9 17 1 0
BITMAP
1B00
1200
2400
0000
C180
C180
C180
C180
C180
C180
C180
C180
C180
C180
C180
7700
3E00
ENDCHAR
STARTCHAR uhungarumlaut
ENCODING -1
SWIDTH 600 0
DWIDTH 11 0
BBX 8 14 1 0
BITMAP
1B
12
24
00
C3
C3
C3
C3
C3
C3
C3
C3
E7
79
ENDCHAR
STARTCHAR Uogonek
ENCODING -1
SWIDTH 600 0
DWIDTH 11 0
BBX 9 17 1 -4
BITMAP
C180
C180
C180
C180
C180
C180
C180
C180
C180
C180
C180
7700
3E00
0800
1000
1000
0E00
ENDCHAR
STARTCHAR uogonek
ENCODING -1
SWIDTH 600 0
DWIDTH 11 0
BBX 9 14 1 -4
BITMAP
C300
C300
C300
C300
C300
C300
C300
C300
E700
7900
0200
0400
0400
0380
ENDCHAR
STARTCHAR Wcircumflex
ENCODING -1
SWIDTH 600 0
DWIDTH 11 0
BBX 11 17 0 0
BITMAP
0E00
0A00
1B00
0000
C060
C060
C060
C060
4440
4A40
4A40
4A40
5B40
5140
5140
61C0
60C0
ENDCHAR
STARTCHAR wcircumflex
ENCODING -1
SWIDTH 600 0
DWIDTH 11 0
BBX 11 14 0 0
BITMAP
0E00
0A00
1B00
0000
8420
CE60
CA60
4A40
4A40
5140
5140
5140
3180
2080
ENDCHAR
STARTCHAR Ycircumflex
ENCODING -1
SWIDTH 600 0
DWIDTH 11 0
BBX 9 17 1 0
BITMAP
1C00
1400
3600
0000
8180
C100
4300
6200
2600
3400
1C00
1800
1800
1800
1800
1800
1800
ENDCHAR
STARTCHAR ycircumflex
ENCODING -1
SWIDTH 600 0
DWIDTH 11 0
BBX 9 18 1 -4
BITMAP
1C00
1400
3600
0000
C180
4100
6300
6300
2200
3600
3600
1400
1400
0800
0800
1800
3000
E000
ENDCHAR
STARTCHAR Ydieresis
ENCODING -1
SWIDTH 600 0
DWIDTH 11 0
BBX 9 16 1 0
BITMAP
3600
3600
0000
8180
C100
4300
6200
2600
3400
1C00
1800
1800
1800
1800
1800
1800
ENDCHAR
STARTCHAR Zacute
ENCODING -1
SWIDTH 600 0
DWIDTH 11 0
BBX 9 17 1 0
BITMAP
0600
0400
0C00
0000
FF80
0180
0300
0200
0600
0C00
0800
1800
3000
2000
6000
C000
FF80
ENDCHAR
STARTCHAR zacute
ENCODING -1
SWIDTH 600 0
DWIDTH 11 0
BBX 7 14 2 0
BITMAP
0C
08
18
00
FE
06
04
08
18
30
20
60
C0
FE
ENDCHAR
STARTCHAR Zdotaccent
ENCODING -1
SWIDTH 600 0
DWIDTH 11 0
BBX 9 16 1 0
BITMAP
0800
0800
0000
FF80
0180
0300
0200
0600
0C00
0800
1800
3000
2000
6000
C000
FF80
ENDCHAR
STARTCHAR zdotaccent
ENCODING -1
SWIDTH 600 0
DWIDTH 11 0
BBX 7 13 2 0
BITMAP
10
10
00
FE
06
04
08
18
30
20
60
C0
FE
ENDCHAR
STARTCHAR Zcaron
ENCODING -1
SWIDTH 600 0
DWIDTH 11 0
BBX 9 17 1 0
BITMAP
3600
1400
1C00
0000
FF80
0180
0300
0200
0600
0C00
0800
1800
3000
2000
6000
C000
FF80
ENDCHAR
STARTCHAR zcaron
ENCODING -1
SWIDTH 600 0
DWIDTH 11 0
BBX 7 14 2 0
BITMAP
6C
28
38
00
FE
06
04
08
18
30
20
60
C0
FE
ENDCHAR
STARTCHAR longs
ENCODING -1
SWIDTH 600 0
DWIDTH 11 0
BBX 6 14 3 0
BITMAP
7C
C4
C0
C0
C0
C0
C0
C0
C0
C0
C0
C0
C0
C0
ENDCHAR
STARTCHAR florin
ENCODING -1
SWIDTH 600 0
DWIDTH 11 0
BBX 7 17 2 -4
BITMAP
1E
32
30
30
FC
30
30
30
30
30
30
30
30
30
30
20
E0
ENDCHAR
STARTCHAR Aringacute
ENCODING -1
SWIDTH 600 0
DWIDTH 11 0
BBX 11 19 0 0
BITMAP
0300
0200
0600
0600
0900
0900
0E00
0E00
0A00
1B00
1B00
1100
3180
3180
3F80
60C0
60C0
4040
C060
ENDCHAR
STARTCHAR aringacute
ENCODING -1
SWIDTH 600 0
DWIDTH 11 0
BBX 8 18 1 0
BITMAP
06
04
0C
0C
12
12
0C
00
7E
67
03
03
3F
E3
C3
C3
C7
79
ENDCHAR
STARTCHAR AEacute
ENCODING -1
SWIDTH 600 0
DWIDTH 11 0
BBX 10 17 0 0
BITMAP
0180
0100
0300
0000
1FC0
1600
3600
3600
2600
27C0
6600
7E00
4600
4600
4600
C600
C7C0
ENDCHAR
STARTCHAR aeacute
ENCODING -1
SWIDTH 600 0
DWIDTH 11 0
BBX 11 14 0 0
BITMAP
0300
0200
0600
0000
79C0
4F40
0660
0660
7FE0
E600
C600
C600
CB60
71E0
ENDCHAR
STARTCHAR Oslashacute
ENCODING -1
SWIDTH 600 0
DWIDTH 11 0
BBX 9 17 1 0
BITMAP
0600
0400
0C00
0000
3F80
7700
6300
C380
C580
C580
C980
D980
D180
E180
6300
7700
FE00
ENDCHAR
STARTCHAR oslashacute
ENCODING -1
SWIDTH 600 0
DWIDTH 11 0
BBX 9 14 1 0
BITMAP
0600
0400
0C00
0000
3F00
6300
C380
C580
C980
C980
D180
E180
6300
7E00
ENDCHAR
STARTCHAR uni0218
ENCODING -1
SWIDTH 600 0
DWIDTH 11 0
BBX 9 17 1 -4
BITMAP
3F00
7380
C000
C000
C000
7000
3E00
0700
0180
0180
0180
C700
FE00
0000
0400
0C00
0800
ENDCHAR
STARTCHAR uni0219
ENCODING -1
SWIDTH 600 0
DWIDTH 11 0
BBX 7 14 2 -4
BITMAP
7E
C6
C0
C0
78
1C
06
06
CE
FC
00
10
30
20
ENDCHAR
STARTCHAR circumflex
ENCODING -1
SWIDTH 600 0
DWIDTH 11 0
BBX 5 3 4 11
BITMAP
70
50
D8
ENDCHAR
STARTCHAR caron
ENCODING -1
SWIDTH 600 0
DWIDTH 11 0
BBX 5 3 4 11
BITMAP
D8
50
70
ENDCHAR
STARTCHAR uni02C9
ENCODING -1
SWIDTH 600 0
DWIDTH 11 0
BBX 5 1 3 12
BITMAP
F8
ENDCHAR
STARTCHAR breve
ENCODING -1
SWIDTH 600 0
DWIDTH 11 0
BBX 5 3 3 11
BITMAP
88
D8
70
ENDCHAR
STARTCHAR dotaccent
ENCODING -1
SWIDTH 600 0
DWIDTH 11 0
BBX 1 2 5 12
BITMAP
80
80
ENDCHAR
STARTCHAR ring
ENCODING -1
SWIDTH 600 0
DWIDTH 11 0
BBX 4 4 4 11
BITMAP
60
90
90
60
ENDCHAR
STARTCHAR ogonek
ENCODING -1
SWIDTH 600 0
DWIDTH 11 0
BBX 4 4 3 -4
BITMAP
40
80
80
70
ENDCHAR
STARTCHAR tilde
ENCODING -1
SWIDTH 600 0
DWIDTH 11 0
BBX 7 3 2 11
BITMAP
62
FE
8C
ENDCHAR
STARTCHAR hungarumlaut
ENCODING -1
SWIDTH 600 0
DWIDTH 11 0
BBX 6 3 3 11
BITMAP
6C
48
90
ENDCHAR
STARTCHAR tonos
ENCODING -1
SWIDTH 600 0
DWIDTH 11 0
BBX 2 3 5 11
BITMAP
C0
C0
80
ENDCHAR
STARTCHAR dieresistonos
ENCODING -1
SWIDTH 600 0
DWIDTH 11 0
BBX 6 4 2 12
BITMAP
18
10
EC
CC
ENDCHAR
STARTCHAR Alphatonos
ENCODING -1
SWIDTH 600 0
DWIDTH 11 0
BBX 11 13 0 0
BITMAP
6E00
6E00
4A00
1B00
1B00
1100
3180
3180
3F80
60C0
60C0
4040
C060
ENDCHAR
STARTCHAR anoteleia
ENCODING -1
SWIDTH 600 0
DWIDTH 11 0
BBX 2 2 4 5
BITMAP
C0
C0
ENDCHAR
STARTCHAR Epsilontonos
ENCODING -1
SWIDTH 600 0
DWIDTH 11 0
BBX 10 13 0 0
BITMAP
FFC0
F000
B000
3000
3000
3FC0
3000
3000
3000
3000
3000
3000
3FC0
ENDCHAR
STARTCHAR Etatonos
ENCODING -1
SWIDTH 600 0
DWIDTH 11 0
BBX 11 13 -1 0
BITMAP
F060
F060
B060
3060
3060
3FE0
3060
3060
3060
3060
3060
3060
3060
ENDCHAR
STARTCHAR Iotatonos
ENCODING -1
SWIDTH 600 0
DWIDTH 11 0
BBX 10 13 -1 0
BITMAP
DFC0
C600
8600
0600
0600
0600
0600
0600
0600
0600
0600
0600
1FC0
ENDCHAR
STARTCHAR Omicrontonos
ENCODING -1
SWIDTH 600 0
DWIDTH 11 0
BBX 11 13 -1 0
BITMAP
CF80
DDC0
98C0
3060
3060
3060
3060
3060
3060
3060
18C0
1DC0
0F80
ENDCHAR
STARTCHAR Upsilontonos
ENCODING -1
SWIDTH 600 0
DWIDTH 11 0
BBX 12 13 -2 0
BITMAP
D030
D820
8860
0C40
04C0
0680
0380
0300
0300
0300
0300
0300
0300
ENDCHAR
STARTCHAR Omegatonos
ENCODING -1
SWIDTH 600 0
DWIDTH 11 0
BBX 11 13 -1 0
BITMAP
CF80
DDC0
9040
3060
3060
3060
3060
3060
3060
1040
0880
0500
3DE0
ENDCHAR
STARTCHAR iotadieresistonos
ENCODING -1
SWIDTH 600 0
DWIDTH 11 0
BBX 7 16 2 0
BITMAP
18
10
EC
CC
00
00
30
30
30
30
30
30
30
30
30
1E
ENDCHAR
STARTCHAR Alpha
ENCODING -1
SWIDTH 600 0
DWIDTH 11 0
BBX 11 13 0 0
BITMAP
0E00
0E00
0A00
1B00
1B00
1100
3180
3180
3F80
60C0
60C0
4040
C060
ENDCHAR
STARTCHAR Beta
ENCODING -1
SWIDTH 600 0
DWIDTH 11 0
BBX 9 13 1 0
BITMAP
FE00
C380
C180
C180
C180
FE00
C700
C180
C180
C180
C180
C700
FE00
ENDCHAR
STARTCHAR Gamma
ENCODING -1
SWIDTH 600 0
DWIDTH 11 0
BBX 9 13 2 0
BITMAP
FF80
C000
C000
C000
C000
C000
C000
C000
C000
C000
C000
C000
C000
ENDCHAR
STARTCHAR uni0394
ENCODING -1
SWIDTH 600 0
DWIDTH 11 0
BBX 9 13 1 0
BITMAP
0800
1C00
1400
1400
3600
3600
2200
6300
6300
4100
C180
C180
FF80
ENDCHAR
STARTCHAR Epsilon
ENCODING -1
SWIDTH 600 0
DWIDTH 11 0
BBX 8 13 2 0
BITMAP
FF
C0
C0
C0
C0
FF
C0
C0
C0
C0
C0
C0
FF
ENDCHAR
STARTCHAR Zeta
ENCODING -1
SWIDTH 600 0
DWIDTH 11 0
BBX 9 13 1 0
BITMAP
FF80
0180
0300
0200
0600
0C00
0800
1800
3000
2000
6000
C000
FF80
ENDCHAR
STARTCHAR Eta
ENCODING -1
SWIDTH 600 0
DWIDTH 11 0
BBX 9 13 1 0
BITMAP
C180
C180
C180
C180
C180
FF80
C180
C180
C180
C180
C180
C180
C180
ENDCHAR
STARTCHAR Theta
ENCODING -1
SWIDTH 600 0
DWIDTH 11 0
BBX 9 13 1 0
BITMAP
3E00
7700
6300
C180
C180
DD80
C180
C180
C180
C180
6300
7700
3E00
ENDCHAR
STARTCHAR Iota
ENCODING -1
SWIDTH 600 0
DWIDTH 11 0
BBX 7 13 2 0
BITMAP
FE
30
30
30
30
30
30
30
30
30
30
30
FE
ENDCHAR
STARTCHAR Kappa
ENCODING -1
SWIDTH 600 0
DWIDTH 11 0
BBX 9 13 2 0
BITMAP
C180
C300
C600
CC00
D800
F000
F000
C800
CC00
C600
C200
C300
C180
ENDCHAR
STARTCHAR Lambda
ENCODING -1
SWIDTH 600 0
DWIDTH 11 0
BBX 11 13 0 0
BITMAP
0600
0E00
0A00
1B00
1900
1100
3180
3080
2080
60C0
40C0
4040
C060
ENDCHAR
STARTCHAR Mu
ENCODING -1
SWIDTH 600 0
DWIDTH 11 0
BBX 9 13 1 0
BITMAP
C180
C180
C180
E380
E380
E380
E580
D580
D580
D580
D580
C980
C980
ENDCHAR
STARTCHAR Nu
ENCODING -1
SWIDTH 600 0
DWIDTH 11 0
BBX 9 13 1 0
BITMAP
C180
C180
A180
B180
9180
D980
C980
CD80
C480
C680
C280
C180
C180
ENDCHAR
STARTCHAR Xi
ENCODING -1
SWIDTH 600 0
DWIDTH 11 0
BBX 9 13 1 0
BITMAP
FF80
0000
0000
0000
0000
7F00
0000
0000
0000
0000
0000
0000
FF80
ENDCHAR
STARTCHAR Omicron
ENCODING -1
SWIDTH 600 0
DWIDTH 11 0
BBX 9 13 1 0
BITMAP
3E00
7700
6300
C180
C180
C180
C180
C180
C180
C180
6300
7700
3E00
ENDCHAR
STARTCHAR Pi
ENCODING -1
SWIDTH 600 0
DWIDTH 11 0
BBX 9 13 1 0
BITMAP
FF80
C180
C180
C180
C180
C180
C180
C180
C180
C180
C180
C180
C180
ENDCHAR
STARTCHAR Rho
ENCODING -1
SWIDTH 600 0
DWIDTH 11 0
BBX 9 13 1 0
BITMAP
FE00
C700
C180
C180
C180
C300
FE00
C000
C000
C000
C000
C000
C000
ENDCHAR
STARTCHAR Sigma
ENCODING -1
SWIDTH 600 0
DWIDTH 11 0
BBX 9 13 1 0
BITMAP
FF00
C000
6000
3000
1800
0800
0800
1800
3000
2000
6000
C000
FF80
ENDCHAR
STARTCHAR Tau
ENCODING -1
SWIDTH 600 0
DWIDTH 11 0
BBX 10 13 0 0
BITMAP
FFC0
0C00
0C00
0C00
0C00
0C00
0C00
0C00
0C00
0C00
0C00
0C00
0C00
ENDCHAR
STARTCHAR Upsilon
ENCODING -1
SWIDTH 600 0
DWIDTH 11 0
BBX 9 13 1 0
BITMAP
8180
C100
4300
6200
2600
3400
1C00
1800
1800
1800
1800
1800
1800
ENDCHAR
STARTCHAR Phi
ENCODING -1
SWIDTH 600 0
DWIDTH 11 0
BBX 10 13 0 0
BITMAP
0C00
0C00
3F00
6D80
CCC0
CCC0
CCC0
CCC0
CCC0
6D80
3F00
0C00
0C00
ENDCHAR
STARTCHAR Chi
ENCODING -1
SWIDTH 600 0
DWIDTH 11 0
BBX 11 13 0 0
BITMAP
C060
60C0
2080
3100
1B00
0E00
0400
0A00
1B00
3180
2080
60C0
C060
ENDCHAR
STARTCHAR Psi
ENCODING -1
SWIDTH 600 0
DWIDTH 11 0
BBX 10 13 0 0
BITMAP
CCC0
CCC0
CCC0
CCC0
CCC0
CCC0
CCC0
6D80
3F00
0C00
0C00
0C00
0C00
ENDCHAR
STARTCHAR uni03A9
ENCODING -1
SWIDTH 600 0
DWIDTH 11 0
BBX 9 13 1 0
BITMAP
3E00
7700
4100
C180
C180
C180
C180
C180
C180
4100
2200
1400
F780
ENDCHAR
STARTCHAR Iotadieresis
ENCODING -1
SWIDTH 600 0
DWIDTH 11 0
BBX 7 16 2 0
BITMAP
6C
6C
00
FE
30
30
30
30
30
30
30
30
30
30
30
FE
ENDCHAR
STARTCHAR Upsilondieresis
ENCODING -1
SWIDTH 600 0
DWIDTH 11 0
BBX 9 16 1 0
BITMAP
3600
3600
0000
8180
C100
4300
6200
2600
3400
1C00
1800
1800
1800
1800
1800
1800
ENDCHAR
STARTCHAR alphatonos
ENCODING -1
SWIDTH 600 0
DWIDTH 11 0
BBX 9 14 1 0
BITMAP
0C00
0C00
0800
0000
3D00
6700
C300
C300
C300
C300
C300
C300
6700
3980
ENDCHAR
STARTCHAR epsilontonos
ENCODING -1
SWIDTH 600 0
DWIDTH 11 0
BBX 7 14 2 0
BITMAP
0C
0C
08
00
7E
C6
C0
C0
78
60
C0
C0
E6
7E
ENDCHAR
STARTCHAR etatonos
ENCODING -1
SWIDTH 600 0
DWIDTH 11 0
BBX 8 18 1 -4
BITMAP
0C
0C
08
00
9E
E7
C3
C3
C3
C3
C3
C3
C3
C3
03
03
03
03
ENDCHAR
STARTCHAR iotatonos
ENCODING -1
SWIDTH 600 0
DWIDTH 11 0
BBX 5 14 4 0
BITMAP
60
60
40
00
C0
C0
C0
C0
C0
C0
C0
C0
C0
78
ENDCHAR
STARTCHAR upsilondieresistonos
ENCODING -1
SWIDTH 600 0
DWIDTH 11 0
BBX 9 16 1 0
BITMAP
0600
0400
3B00
3300
0000
0000
C300
C180
C180
C180
C180
C180
C180
C180
6300
3E00
ENDCHAR
STARTCHAR alpha
ENCODING -1
SWIDTH 600 0
DWIDTH 11 0
BBX 9 10 1 0
BITMAP
3D00
6700
C300
C300
C300
C300
C300
C300
6700
3980
ENDCHAR
STARTCHAR beta
ENCODING -1
SWIDTH 600 0
DWIDTH 11 0
BBX 9 18 1 -4
BITMAP
3C00
6600
C300
C300
C300
C600
D800
C700
C180
C180
C180
C180
E300
FE00
C000
C000
C000
C000
ENDCHAR
STARTCHAR gamma
ENCODING -1
SWIDTH 600 0
DWIDTH 11 0
BBX 9 14 1 -4
BITMAP
C180
4100
6300
6300
2200
3600
3600
1400
1C00
0C00
0800
1800
1800
1800
ENDCHAR
STARTCHAR delta
ENCODING -1
SWIDTH 600 0
DWIDTH 11 0
BBX 9 14 1 0
BITMAP
1F00
3300
3000
3000
1800
0E00
3B00
6180
C180
C180
C180
C180
6300
3E00
ENDCHAR
STARTCHAR epsilon
ENCODING -1
SWIDTH 600 0
DWIDTH 11 0
BBX 7 10 2 0
BITMAP
7E
C6
C0
C0
78
60
C0
C0
E6
7E
ENDCHAR
STARTCHAR zeta
ENCODING -1
SWIDTH 600 0
DWIDTH 11 0
BBX 8 18 1 -4
BITMAP
7F
03
0C
18
30
60
60
C0
C0
C0
C0
C0
70
3E
03
03
03
02
ENDCHAR
STARTCHAR eta
ENCODING -1
SWIDTH 600 0
DWIDTH 11 0
BBX 8 14 1 -4
BITMAP
9E
E7
C3
C3
C3
C3
C3
C3
C3
C3
03
03
03
03
ENDCHAR
STARTCHAR theta
ENCODING -1
SWIDTH 600 0
DWIDTH 11 0
BBX 9 13 1 0
BITMAP
3E00
6700
4100
C180
C180
C180
FF80
C180
C180
C180
4100
6700
3E00
ENDCHAR
STARTCHAR iota
ENCODING -1
SWIDTH 600 0
DWIDTH 11 0
BBX 5 10 4 0
BITMAP
C0
C0
C0
C0
C0
C0
C0
C0
C0
78
ENDCHAR
STARTCHAR kappa
ENCODING -1
SWIDTH 600 0
DWIDTH 11 0
BBX 8 10 2 0
BITMAP
C2
C4
C8
D0
A0
F0
D8
CC
C6
C3
ENDCHAR
STARTCHAR lambda
ENCODING -1
SWIDTH 600 0
DWIDTH 11 0
BBX 10 14 1 0
BITMAP
7000
1800
0800
0C00
0C00
0C00
1E00
1600
3200
3300
2300
6100
4180
C1C0
ENDCHAR
STARTCHAR uni03BC
ENCODING -1
SWIDTH 600 0
DWIDTH 11 0
BBX 8 14 1 -4
BITMAP
C3
C3
C3
C3
C3
C3
C3
C3
E7
FD
C0
C0
C0
C0
ENDCHAR
STARTCHAR nu
ENCODING -1
SWIDTH 600 0
DWIDTH 11 0
BBX 9 10 1 0
BITMAP
C180
C180
4180
6180
6100
2100
3300
1600
1400
1800
ENDCHAR
STARTCHAR xi
ENCODING -1
SWIDTH 600 0
DWIDTH 11 0
BBX 7 18 2 -4
BITMAP
7E
18
60
60
60
60
1E
60
C0
C0
C0
C0
60
7C
0E
06
06
04
ENDCHAR
STARTCHAR omicron
ENCODING -1
SWIDTH 600 0
DWIDTH 11 0
BBX 9 10 1 0
BITMAP
3E00
6300
C180
C180
C180
C180
C180
4180
6300
3E00
ENDCHAR
STARTCHAR pi
ENCODING -1
SWIDTH 600 0
DWIDTH 11 0
BBX 10 10 0 0
BITMAP
FFC0
3300
3300
3300
3300
3300
3300
3300
3300
31C0
ENDCHAR
STARTCHAR rho
ENCODING -1
SWIDTH 600 0
DWIDTH 11 0
BBX 9 14 1 -4
BITMAP
3E00
6300
C180
C180
C180
C180
C180
C180
E300
FE00
C000
C000
C000
C000
ENDCHAR
STARTCHAR sigma1
ENCODING -1
SWIDTH 600 0
DWIDTH 11 0
BBX 7 14 2 -4
BITMAP
3E
66
C0
C0
C0
C0
C0
C0
60
3C
06
06
06
04
ENDCHAR
STARTCHAR sigma
ENCODING -1
SWIDTH 600 0
DWIDTH 11 0
BBX 10 10 1 0
BITMAP
3FC0
7300
C100
C180
C180
C180
C180
C180
6300
3E00
ENDCHAR
STARTCHAR tau
ENCODING -1
SWIDTH 600 0
DWIDTH 11 0
BBX 7 10 2 0
BITMAP
FE
30
30
30
30
30
30
30
30
1E
ENDCHAR
STARTCHAR upsilon
ENCODING -1
SWIDTH 600 0
DWIDTH 11 0
BBX 9 10 1 0
BITMAP
C300
C180
C180
C180
C180
C180
C180
C180
6300
3E00
ENDCHAR
STARTCHAR phi
ENCODING -1
SWIDTH 600 0
DWIDTH 11 0
BBX 10 14 0 -4
BITMAP
4700
6D80
CCC0
CCC0
CCC0
CCC0
CCC0
CC80
6F80
3F00
0C00
0C00
0C00
0C00
ENDCHAR
STARTCHAR chi
ENCODING -1
SWIDTH 600 0
DWIDTH 11 0
BBX 10 14 0 -4
BITMAP
60C0
3080
1180
1B00
1A00
0E00
0C00
0C00
1E00
1600
3300
2300
6180
C1C0
ENDCHAR
STARTCHAR psi
ENCODING -1
SWIDTH 600 0
DWIDTH 11 0
BBX 10 18 0 -4
BITMAP
0C00
0C00
0C00
0C00
CD80
CCC0
CCC0
CCC0
CCC0
CCC0
CCC0
CCC0
6F80
3F00
0C00
0C00
0C00
0C00
ENDCHAR
STARTCHAR omega
ENCODING -1
SWIDTH 600 0
DWIDTH 11 0
BBX 10 10 0 0
BITMAP
4080
4080
C0C0
C0C0
CCC0
CCC0
CCC0
CCC0
5C80
7380
ENDCHAR
STARTCHAR iotadieresis
ENCODING -1
SWIDTH 600 0
DWIDTH 11 0
BBX 6 13 3 0
BITMAP
D8
D8
00
60
60
60
60
60
60
60
60
60
3C
ENDCHAR
STARTCHAR upsilondieresis
ENCODING -1
SWIDTH 600 0
DWIDTH 11 0
BBX 9 13 1 0
BITMAP
3600
3600
0000
C300
C180
C180
C180
C180
C180
C180
C180
6300
3E00
ENDCHAR
STARTCHAR omicrontonos
ENCODING -1
SWIDTH 600 0
DWIDTH 11 0
BBX 9 14 1 0
BITMAP
0C00
0C00
0800
0000
3E00
6300
C180
C180
C180
C180
C180
4180
6300
3E00
ENDCHAR
STARTCHAR upsilontonos
ENCODING -1
SWIDTH 600 0
DWIDTH 11 0
BBX 9 14 1 0
BITMAP
0C00
0C00
0800
0000
C300
C180
C180
C180
C180
C180
C180
C180
6300
3E00
ENDCHAR
STARTCHAR omegatonos
ENCODING -1
SWIDTH 600 0
DWIDTH 11 0
BBX 10 14 0 0
BITMAP
0600
0600
0400
0000
4080
4080
C0C0
C0C0
CCC0
CCC0
CCC0
CCC0
5C80
7380
ENDCHAR
STARTCHAR uni0401
ENCODING -1
SWIDTH 600 0
DWIDTH 11 0
BBX 8 16 2 0
BITMAP
36
36
00
FF
C0
C0
C0
C0
FF
C0
C0
C0
C0
C0
C0
FF
ENDCHAR
STARTCHAR uni0402
ENCODING -1
SWIDTH 600 0
DWIDTH 11 0
BBX 10 13 0 0
BITMAP
FF00
1800
1800
1800
1800
1F80
19C0
18C0
18C0
18C0
18C0
19C0
1B80
ENDCHAR
STARTCHAR uni0403
ENCODING -1
SWIDTH 600 0
DWIDTH 11 0
BBX 9 17 2 0
BITMAP
0600
0400
0C00
0000
FF80
C000
C000
C000
C000
C000
C000
C000
C000
C000
C000
C000
C000
ENDCHAR
STARTCHAR uni0404
ENCODING -1
SWIDTH 600 0
DWIDTH 11 0
BBX 9 13 1 0
BITMAP
1F00
3980
6000
C000
C000
FE00
C000
C000
C000
C000
6000
3980
1F80
ENDCHAR
STARTCHAR uni0405
ENCODING -1
SWIDTH 600 0
DWIDTH 11 0
BBX 9 13 1 0
BITMAP
3F00
7380
C000
C000
C000
7000
3E00
0700
0180
0180
0180
C700
FE00
ENDCHAR
STARTCHAR uni0406
ENCODING -1
SWIDTH 600 0
DWIDTH 11 0
BBX 7 13 2 0
BITMAP
FE
30
30
30
30
30
30
30
30
30
30
30
FE
ENDCHAR
STARTCHAR uni0407
ENCODING -1
SWIDTH 600 0
DWIDTH 11 0
BBX 7 16 2 0
BITMAP
6C
6C
00
FE
30
30
30
30
30
30
30
30
30
30
30
FE
ENDCHAR
STARTCHAR uni0408
ENCODING -1
SWIDTH 600 0
DWIDTH 11 0
BBX 8 13 1 0
BITMAP
03
03
03
03
03
03
03
03
03
03
03
CE
FC
ENDCHAR
STARTCHAR uni0409
ENCODING -1
SWIDTH 600 0
DWIDTH 11 0
BBX 11 13 0 0
BITMAP
7E00
6600
6600
6600
6600
6780
66C0
6660
4660
4660
4660
46C0
C780
ENDCHAR
STARTCHAR uni040A
ENCODING -1
SWIDTH 600 0
DWIDTH 11 0
BBX 10 13 1 0
BITMAP
CC00
CC00
CC00
CC00
CC00
FF00
CD80
CCC0
CCC0
CCC0
CCC0
CD80
CF00
ENDCHAR
STARTCHAR uni040B
ENCODING -1
SWIDTH 600 0
DWIDTH 11 0
BBX 10 13 0 0
BITMAP
FF00
1800
1800
1800
1800
1F80
19C0
18C0
18C0
18C0
18C0
18C0
18C0
ENDCHAR
STARTCHAR uni040C
ENCODING -1
SWIDTH 600 0
DWIDTH 11 0
BBX 9 17 2 0
BITMAP
0600
0400
0C00
0000
C180
C300
C600
CC00
D800
F000
F000
D800
D800
CC00
C600
C300
C180
ENDCHAR
STARTCHAR uni040E
ENCODING -1
SWIDTH 600 0
DWIDTH 11 0
BBX 11 17 0 0
BITMAP
3180
3180
1F00
0000
C060
6040
60C0
2080
3180
1100
1B00
0A00
0E00
0400
0C00
5800
7000
ENDCHAR
STARTCHAR uni040F
ENCODING -1
SWIDTH 600 0
DWIDTH 11 0
BBX 9 16 1 -3
BITMAP
C180
C180
C180
C180
C180
C180
C180
C180
C180
C180
C180
C180
FF80
1800
1800
1800
ENDCHAR
STARTCHAR uni0410
ENCODING -1
SWIDTH 600 0
DWIDTH 11 0
BBX 11 13 0 0
BITMAP
0E00
0E00
0A00
1B00
1B00
1100
3180
3180
3F80
60C0
60C0
4040
C060
ENDCHAR
STARTCHAR uni0411
ENCODING -1
SWIDTH 600 0
DWIDTH 11 0
BBX 9 13 1 0
BITMAP
FF00
C000
C000
C000
C000
FE00
C700
C180
C180
C180
C180
C700
FE00
ENDCHAR
STARTCHAR uni0412
ENCODING -1
SWIDTH 600 0
DWIDTH 11 0
BBX 9 13 1 0
BITMAP
FE00
C380
C180
C180
C180
FE00
C700
C180
C180
C180
C180
C700
FE00
ENDCHAR
STARTCHAR uni0413
ENCODING -1
SWIDTH 600 0
DWIDTH 11 0
BBX 9 13 2 0
BITMAP
FF80
C000
C000
C000
C000
C000
C000
C000
C000
C000
C000
C000
C000
ENDCHAR
STARTCHAR uni0414
ENCODING -1
SWIDTH 600 0
DWIDTH 11 0
BBX 11 16 0 -3
BITMAP
1F80
1980
1980
1180
1180
1180
1180
1180
3180
3180
2180
6180
FFE0
C060
C060
C060
ENDCHAR
STARTCHAR uni0415
ENCODING -1
SWIDTH 600 0
DWIDTH 11 0
BBX 8 13 2 0
BITMAP
FF
C0
C0
C0
C0
FF
C0
C0
C0
C0
C0
C0
FF
ENDCHAR
STARTCHAR uni0416
ENCODING -1
SWIDTH 600 0
DWIDTH 11 0
BBX 10 13 0 0
BITMAP
CCC0
CC80
4D80
6D00
2D00
3E00
3E00
3F00
2D00
6D80
4D80
CCC0
CCC0
ENDCHAR
STARTCHAR uni0417
ENCODING -1
SWIDTH 600 0
DWIDTH 11 0
BBX 9 13 1 0
BITMAP
3E00
E380
0180
0180
0300
3C00
0700
0180
0180
0180
0180
C700
FE00
ENDCHAR
STARTCHAR uni0418
ENCODING -1
SWIDTH 600 0
DWIDTH 11 0
BBX 9 13 1 0
BITMAP
C180
C180
C280
C680
C480
CD80
C980
D980
9180
B180
A180
C180
C180
ENDCHAR
STARTCHAR uni0419
ENCODING -1
SWIDTH 600 0
DWIDTH 11 0
BBX 9 17 1 0
BITMAP
6300
6300
3E00
0000
C180
C180
C280
C680
C480
CD80
C980
D980
9180
B180
A180
C180
C180
ENDCHAR
STARTCHAR uni041A
ENCODING -1
SWIDTH 600 0
DWIDTH 11 0
BBX 9 13 2 0
BITMAP
C180
C300
C600
CC00
D800
F000
F000
D800
D800
CC00
C600
C300
C180
ENDCHAR
STARTCHAR uni041B
ENCODING -1
SWIDTH 600 0
DWIDTH 11 0
BBX 10 13 0 0
BITMAP
1FC0
18C0
18C0
18C0
10C0
10C0
10C0
10C0
30C0
30C0
30C0
60C0
C0C0
ENDCHAR
STARTCHAR uni041C
ENCODING -1
SWIDTH 600 0
DWIDTH 11 0
BBX 9 13 1 0
BITMAP
C180
C180
C180
E380
E380
E380
E580
D580
D580
D580
D580
C980
C980
ENDCHAR
STARTCHAR uni041D
ENCODING -1
SWIDTH 600 0
DWIDTH 11 0
BBX 9 13 1 0
BITMAP
C180
C180
C180
C180
C180
FF80
C180
C180
C180
C180
C180
C180
C180
ENDCHAR
STARTCHAR uni041E
ENCODING -1
SWIDTH 600 0
DWIDTH 11 0
BBX 9 13 1 0
BITMAP
3E00
7700
6300
C180
C180
C180
C180
C180
C180
C180
6300
7700
3E00
ENDCHAR
STARTCHAR uni041F
ENCODING -1
SWIDTH 600 0
DWIDTH 11 0
BBX 9 13 1 0
BITMAP
FF80
C180
C180
C180
C180
C180
C180
C180
C180
C180
C180
C180
C180
ENDCHAR
STARTCHAR uni0420
ENCODING -1
SWIDTH 600 0
DWIDTH 11 0
BBX 9 13 1 0
BITMAP
FE00
C700
C180
C180
C180
C300
FE00
C000
C000
C000
C000
C000
C000
ENDCHAR
STARTCHAR uni0421
ENCODING -1
SWIDTH 600 0
DWIDTH 11 0
BBX 9 13 1 0
BITMAP
1F00
3980
6000
C000
C000
C000
C000
C000
C000
C000
6000
3980
1F80
ENDCHAR
STARTCHAR uni0422
ENCODING -1
SWIDTH 600 0
DWIDTH 11 0
BBX 10 13 0 0
BITMAP
FFC0
0C00
0C00
0C00
0C00
0C00
0C00
0C00
0C00
0C00
0C00
0C00
0C00
ENDCHAR
STARTCHAR uni0423
ENCODING -1
SWIDTH 600 0
DWIDTH 11 0
BBX 11 13 0 0
BITMAP
C060
6040
60C0
2080
3180
1100
1B00
0A00
0E00
0400
0C00
5800
7000
ENDCHAR
STARTCHAR uni0424
ENCODING -1
SWIDTH 600 0
DWIDTH 11 0
BBX 10 13 0 0
BITMAP
0C00
0C00
3F00
6D80
CCC0
CCC0
CCC0
CCC0
CCC0
6D80
3F00
0C00
0C00
ENDCHAR
STARTCHAR uni0425
ENCODING -1
SWIDTH 600 0
DWIDTH 11 0
BBX 11 13 0 0
BITMAP
C060
60C0
2080
3100
1B00
0E00
0400
0A00
1B00
3180
2080
60C0
C060
ENDCHAR
STARTCHAR uni0426
ENCODING -1
SWIDTH 600 0
DWIDTH 11 0
BBX 10 16 1 -3
BITMAP
C300
C300
C300
C300
C300
C300
C300
C300
C300
C300
C300
C300
FFC0
00C0
00C0
00C0
ENDCHAR
STARTCHAR uni0427
ENCODING -1
SWIDTH 600 0
DWIDTH 11 0
BBX 9 13 1 0
BITMAP
C180
C180
C180
C180
C180
C180
E780
7F80
0180
0180
0180
0180
0180
ENDCHAR
STARTCHAR uni0428
ENCODING -1
SWIDTH 600 0
DWIDTH 11 0
BBX 10 13 0 0
BITMAP
CCC0
CCC0
CCC0
CCC0
CCC0
CCC0
CCC0
CCC0
CCC0
CCC0
CCC0
CCC0
FFC0
ENDCHAR
STARTCHAR uni0429
ENCODING -1
SWIDTH 600 0
DWIDTH 11 0
BBX 11 16 0 -3
BITMAP
CCC0
CCC0
CCC0
CCC0
CCC0
CCC0
CCC0
CCC0
CCC0
CCC0
CCC0
CCC0
FFE0
0060
0060
0060
ENDCHAR
STARTCHAR uni042A
ENCODING -1
SWIDTH 600 0
DWIDTH 11 0
BBX 10 13 0 0
BITMAP
F800
1800
1800
1800
1800
1F00
1B80
18C0
18C0
18C0
18C0
1B80
1F00
ENDCHAR
STARTCHAR uni042B
ENCODING -1
SWIDTH 600 0
DWIDTH 11 0
BBX 9 13 1 0
BITMAP
C180
C180
C180
C180
C180
F180
D980
CD80
CD80
CD80
CD80
D980
F180
ENDCHAR
STARTCHAR uni042C
ENCODING -1
SWIDTH 600 0
DWIDTH 11 0
BBX 9 13 1 0
BITMAP
C000
C000
C000
C000
C000
FE00
C700
C180
C180
C180
C180
C700
FE00
ENDCHAR
STARTCHAR uni042D
ENCODING -1
SWIDTH 600 0
DWIDTH 11 0
BBX 9 13 1 0
BITMAP
FC00
CE00
0300
0180
0180
3F80
0180
0180
0180
0100
0300
CE00
FC00
ENDCHAR
STARTCHAR uni042E
ENCODING -1
SWIDTH 600 0
DWIDTH 11 0
BBX 9 13 1 0
BITMAP
CF00
CF00
D980
D980
D980
F980
D980
D980
D980
D980
D980
CF00
C700
ENDCHAR
STARTCHAR uni042F
ENCODING -1
SWIDTH 600 0
DWIDTH 11 0
BBX 10 13 0 0
BITMAP
1FC0
38C0
60C0
60C0
60C0
30C0
1FC0
0CC0
18C0
30C0
60C0
60C0
C0C0
ENDCHAR
STARTCHAR uni0430
ENCODING -1
SWIDTH 600 0
DWIDTH 11 0
BBX 8 10 1 0
BITMAP
7E
67
03
03
3F
E3
C3
C3
C7
79
ENDCHAR
STARTCHAR uni0431
ENCODING -1
SWIDTH 600 0
DWIDTH 11 0
BBX 9 14 1 0
BITMAP
0380
3F00
7000
4000
C000
DE00
F300
C180
C180
C180
C180
4180
7300
3E00
ENDCHAR
STARTCHAR uni0432
ENCODING -1
SWIDTH 600 0
DWIDTH 11 0
BBX 9 10 1 0
BITMAP
FF00
C180
C180
C180
FE00
C380
C180
C180
C380
FF00
ENDCHAR
STARTCHAR uni0433
ENCODING -1
SWIDTH 600 0
DWIDTH 11 0
BBX 6 10 3 0
BITMAP
FC
C0
C0
C0
C0
C0
C0
C0
C0
C0
ENDCHAR
STARTCHAR uni0434
ENCODING -1
SWIDTH 600 0
DWIDTH 11 0
BBX 10 13 0 -3
BITMAP
1F80
1180
1180
1180
1180
3180
2180
2180
6180
FFC0
C0C0
C0C0
C0C0
ENDCHAR
STARTCHAR uni0435
ENCODING -1
SWIDTH 600 0
DWIDTH 11 0
BBX 9 10 1 0
BITMAP
3E00
6300
4180
C180
FF80
C000
C000
4000
7100
1F00
ENDCHAR
STARTCHAR uni0436
ENCODING -1
SWIDTH 600 0
DWIDTH 11 0
BBX 10 10 0 0
BITMAP
CCC0
4C80
6D80
2F00
3E00
3E00
2D00
6D80
4C80
CCC0
ENDCHAR
STARTCHAR uni0437
ENCODING -1
SWIDTH 600 0
DWIDTH 11 0
BBX 7 10 2 0
BITMAP
FC
C6
06
06
3C
0E
06
06
CE
FC
ENDCHAR
STARTCHAR uni0438
ENCODING -1
SWIDTH 600 0
DWIDTH 11 0
BBX 8 10 1 0
BITMAP
C3
C7
C7
CB
CB
D3
D3
A3
E3
C3
ENDCHAR
STARTCHAR uni0439
ENCODING -1
SWIDTH 600 0
DWIDTH 11 0
BBX 8 14 1 0
BITMAP
63
63
3E
00
C3
C7
C7
CB
CB
D3
D3
A3
E3
C3
ENDCHAR
STARTCHAR uni043A
ENCODING -1
SWIDTH 600 0
DWIDTH 11 0
BBX 8 10 1 0
BITMAP
C3
C6
CC
D8
F0
F0
D8
CC
C6
C3
ENDCHAR
STARTCHAR uni043B
ENCODING -1
SWIDTH 600 0
DWIDTH 11 0
BBX 9 10 0 0
BITMAP
3F80
3180
3180
3180
3180
2180
2180
6180
6180
C180
ENDCHAR
STARTCHAR uni043C
ENCODING -1
SWIDTH 600 0
DWIDTH 11 0
BBX 9 10 1 0
BITMAP
C180
C180
E380
E380
E380
D580
D580
D580
C980
C980
ENDCHAR
STARTCHAR uni043D
ENCODING -1
SWIDTH 600 0
DWIDTH 11 0
BBX 8 10 1 0
BITMAP
C3
C3
C3
C3
FF
C3
C3
C3
C3
C3
ENDCHAR
STARTCHAR uni043E
ENCODING -1
SWIDTH 600 0
DWIDTH 11 0
BBX 9 10 1 0
BITMAP
3E00
6300
C180
C180
C180
C180
C180
4180
6300
3E00
ENDCHAR
STARTCHAR uni043F
ENCODING -1
SWIDTH 600 0
DWIDTH 11 0
BBX 8 10 1 0
BITMAP
FF
C3
C3
C3
C3
C3
C3
C3
C3
C3
ENDCHAR
STARTCHAR uni0440
ENCODING -1
SWIDTH 600 0
DWIDTH 11 0
BBX 9 14 1 -4
BITMAP
DE00
E300
C180
C180
C180
C180
C180
C180
E300
DE00
C000
C000
C000
C000
ENDCHAR
STARTCHAR uni0441
ENCODING -1
SWIDTH 600 0
DWIDTH 11 0
BBX 7 10 2 0
BITMAP
3E
62
C0
C0
C0
C0
C0
C0
62
3E
ENDCHAR
STARTCHAR uni0442
ENCODING -1
SWIDTH 600 0
DWIDTH 11 0
BBX 10 10 0 0
BITMAP
FFC0
0C00
0C00
0C00
0C00
0C00
0C00
0C00
0C00
0C00
ENDCHAR
STARTCHAR uni0443
ENCODING -1
SWIDTH 600 0
DWIDTH 11 0
BBX 9 14 1 -4
BITMAP
C180
4100
6300
6300
2200
3600
3600
1400
1400
0800
0800
1800
3000
E000
ENDCHAR
STARTCHAR uni0444
ENCODING -1
SWIDTH 600 0
DWIDTH 11 0
BBX 10 18 0 -4
BITMAP
0C00
0C00
0C00
0C00
3F00
6F80
CCC0
CCC0
CCC0
CCC0
CCC0
CCC0
6F80
3F00
0C00
0C00
0C00
0C00
ENDCHAR
STARTCHAR uni0445
ENCODING -1
SWIDTH 600 0
DWIDTH 11 0
BBX 9 10 1 0
BITMAP
4100
6300
3600
1400
1C00
1C00
3600
2200
6300
C180
ENDCHAR
STARTCHAR uni0446
ENCODING -1
SWIDTH 600 0
DWIDTH 11 0
BBX 9 13 1 -3
BITMAP
C300
C300
C300
C300
C300
C300
C300
C300
C300
FF80
0180
0180
0180
ENDCHAR
STARTCHAR uni0447
ENCODING -1
SWIDTH 600 0
DWIDTH 11 0
BBX 8 10 1 0
BITMAP
C3
C3
C3
C3
C3
C7
7B
03
03
03
ENDCHAR
STARTCHAR uni0448
ENCODING -1
SWIDTH 600 0
DWIDTH 11 0
BBX 10 10 0 0
BITMAP
CCC0
CCC0
CCC0
CCC0
CCC0
CCC0
CCC0
CCC0
CCC0
FFC0
ENDCHAR
STARTCHAR uni0449
ENCODING -1
SWIDTH 600 0
DWIDTH 11 0
BBX 11 13 0 -3
BITMAP
CCC0
CCC0
CCC0
CCC0
CCC0
CCC0
CCC0
CCC0
CCC0
FFE0
0060
0060
0060
ENDCHAR
STARTCHAR uni044A
ENCODING -1
SWIDTH 600 0
DWIDTH 11 0
BBX 10 10 0 0
BITMAP
F800
1800
1800
1800
1F80
19C0
18C0
18C0
19C0
1F80
ENDCHAR
STARTCHAR uni044B
ENCODING -1
SWIDTH 600 0
DWIDTH 11 0
BBX 9 10 1 0
BITMAP
C180
C180
C180
C180
F980
CD80
CD80
CD80
CD80
F980
ENDCHAR
STARTCHAR uni044C
ENCODING -1
SWIDTH 600 0
DWIDTH 11 0
BBX 9 10 1 0
BITMAP
C000
C000
C000
C000
FE00
C380
C180
C180
C380
FE00
ENDCHAR
STARTCHAR uni044D
ENCODING -1
SWIDTH 600 0
DWIDTH 11 0
BBX 7 10 2 0
BITMAP
F8
8C
06
06
7E
06
06
06
8C
F8
ENDCHAR
STARTCHAR uni044E
ENCODING -1
SWIDTH 600 0
DWIDTH 11 0
BBX 9 10 1 0
BITMAP
CF00
C900
D980
D980
F980
D980
D980
D980
C900
CF00
ENDCHAR
STARTCHAR uni044F
ENCODING -1
SWIDTH 600 0
DWIDTH 11 0
BBX 8 10 1 0
BITMAP
7F
E3
C3
C3
C3
7F
33
63
43
C3
ENDCHAR
STARTCHAR uni0451
ENCODING -1
SWIDTH 600 0
DWIDTH 11 0
BBX 9 13 1 0
BITMAP
3600
3600
0000
3E00
6300
4180
C180
FF80
C000
C000
4000
7100
1F00
ENDCHAR
STARTCHAR uni0452
ENCODING -1
SWIDTH 600 0
DWIDTH 11 0
BBX 9 18 0 -4
BITMAP
6000
6000
FC00
6000
6F00
7380
6180
6180
6180
6180
6180
6180
6180
6180
0180
0180
0180
0700
ENDCHAR
STARTCHAR uni0453
ENCODING -1
SWIDTH 600 0
DWIDTH 11 0
BBX 6 14 3 0
BITMAP
18
10
30
00
FC
C0
C0
C0
C0
C0
C0
C0
C0
C0
ENDCHAR
STARTCHAR uni0454
ENCODING -1
SWIDTH 600 0
DWIDTH 11 0
BBX 7 10 2 0
BITMAP
3E
62
C0
C0
FC
C0
C0
C0
62
3E
ENDCHAR
STARTCHAR uni0455
ENCODING -1
SWIDTH 600 0
DWIDTH 11 0
BBX 7 10 2 0
BITMAP
7E
C6
C0
C0
78
1C
06
06
CE
FC
ENDCHAR
STARTCHAR uni0456
ENCODING -1
SWIDTH 600 0
DWIDTH 11 0
BBX 8 14 2 0
BITMAP
18
18
00
00
78
18
18
18
18
18
18
18
18
FF
ENDCHAR
STARTCHAR uni0457
ENCODING -1
SWIDTH 600 0
DWIDTH 11 0
BBX 8 13 2 0
BITMAP
6C
6C
00
78
18
18
18
18
18
18
18
18
FF
ENDCHAR
STARTCHAR uni0458
ENCODING -1
SWIDTH 600 0
DWIDTH 11 0
BBX 6 18 1 -4
BITMAP
0C
0C
00
00
7C
0C
0C
0C
0C
0C
0C
0C
0C
0C
0C
0C
9C
F8
ENDCHAR
STARTCHAR uni0459
ENCODING -1
SWIDTH 600 0
DWIDTH 11 0
BBX 11 10 0 0
BITMAP
3E00
2600
2600
2600
27C0
26E0
2660
2660
66E0
C7C0
ENDCHAR
STARTCHAR uni045A
ENCODING -1
SWIDTH 600 0
DWIDTH 11 0
BBX 10 10 1 0
BITMAP
CC00
CC00
CC00
CC00
FF80
CCC0
CCC0
CCC0
CDC0
CF80
ENDCHAR
STARTCHAR uni045B
ENCODING -1
SWIDTH 600 0
DWIDTH 11 0
BBX 9 14 0 0
BITMAP
6000
6000
FC00
6000
6F00
7380
6180
6180
6180
6180
6180
6180
6180
6180
ENDCHAR
STARTCHAR uni045C
ENCODING -1
SWIDTH 600 0
DWIDTH 11 0
BBX 8 14 2 0
BITMAP
0C
08
18
00
C2
C4
C8
D0
A0
F0
D8
CC
C6
C3
ENDCHAR
STARTCHAR uni045E
ENCODING -1
SWIDTH 600 0
DWIDTH 11 0
BBX 9 18 1 -4
BITMAP
6300
6300
3E00
0000
C180
4100
6300
6300
2200
3600
3600
1400
1400
0800
0800
1800
3000
E000
ENDCHAR
STARTCHAR uni045F
ENCODING -1
SWIDTH 600 0
DWIDTH 11 0
BBX 8 13 1 -3
BITMAP
C3
C3
C3
C3
C3
C3
C3
C3
C3
FF
18
18
18
ENDCHAR
STARTCHAR uni0490
ENCODING -1
SWIDTH 600 0
DWIDTH 11 0
BBX 8 16 2 0
BITMAP
03
03
03
FF
C0
C0
C0
C0
C0
C0
C0
C0
C0
C0
C0
C0
ENDCHAR
STARTCHAR uni0491
ENCODING -1
SWIDTH 600 0
DWIDTH 11 0
BBX 6 13 3 0
BITMAP
0C
0C
0C
FC
C0
C0
C0
C0
C0
C0
C0
C0
C0
ENDCHAR
STARTCHAR Wgrave
ENCODING -1
SWIDTH 600 0
DWIDTH 11 0
BBX 11 17 0 0
BITMAP
0C00
0400
0200
0000
C060
C060
C060
C060
4440
4A40
4A40
4A40
5B40
5140
5140
61C0
60C0
ENDCHAR
STARTCHAR wgrave
ENCODING -1
SWIDTH 600 0
DWIDTH 11 0
BBX 11 14 0 0
BITMAP
1800
0800
0400
0000
8420
CE60
CA60
4A40
4A40
5140
5140
5140
3180
2080
ENDCHAR
STARTCHAR Wacute
ENCODING -1
SWIDTH 600 0
DWIDTH 11 0
BBX 11 17 0 0
BITMAP
0300
0200
0600
0000
C060
C060
C060
C060
4440
4A40
4A40
4A40
5B40
5140
5140
61C0
60C0
ENDCHAR
STARTCHAR wacute
ENCODING -1
SWIDTH 600 0
DWIDTH 11 0
BBX 11 14 0 0
BITMAP
0300
0200
0600
0000
8420
CE60
CA60
4A40
4A40
5140
5140
5140
3180
2080
ENDCHAR
STARTCHAR Wdieresis
ENCODING -1
SWIDTH 600 0
DWIDTH 11 0
BBX 11 16 0 0
BITMAP
1B00
1B00
0000
C060
C060
C060
C060
4440
4A40
4A40
4A40
5B40
5140
5140
61C0
60C0
ENDCHAR
STARTCHAR wdieresis
ENCODING -1
SWIDTH 600 0
DWIDTH 11 0
BBX 11 13 0 0
BITMAP
1B00
1B00
0000
8420
CE60
CA60
4A40
4A40
5140
5140
5140
3180
2080
ENDCHAR
STARTCHAR Ygrave
ENCODING -1
SWIDTH 600 0
DWIDTH 11 0
BBX 9 17 1 0
BITMAP
3000
1000
0800
0000
8180
C100
4300
6200
2600
3400
1C00
1800
1800
1800
1800
1800
1800
ENDCHAR
STARTCHAR ygrave
ENCODING -1
SWIDTH 600 0
DWIDTH 11 0
BBX 9 18 1 -4
BITMAP
3000
1000
0800
0000
C180
4100
6300
6300
2200
3600
3600
1400
1400
0800
0800
1800
3000
E000
ENDCHAR
STARTCHAR endash
ENCODING -1
SWIDTH 600 0
DWIDTH 11 0
BBX 7 1 2 5
BITMAP
FE
ENDCHAR
STARTCHAR emdash
ENCODING -1
SWIDTH 600 0
DWIDTH 11 0
BBX 11 1 0 5
BITMAP
FFE0
ENDCHAR
STARTCHAR uni2015
ENCODING -1
SWIDTH 600 0
DWIDTH 11 0
BBX 11 1 0 5
BITMAP
FFE0
ENDCHAR
STARTCHAR underscoredbl
ENCODING -1
SWIDTH 600 0
DWIDTH 11 0
BBX 11 4 0 -4
BITMAP
FFE0
0000
0000
FFE0
ENDCHAR
STARTCHAR quoteleft
ENCODING -1
SWIDTH 600 0
DWIDTH 11 0
BBX 3 4 4 9
BITMAP
60
60
C0
C0
ENDCHAR
STARTCHAR quoteright
ENCODING -1
SWIDTH 600 0
DWIDTH 11 0
BBX 3 4 3 9
BITMAP
60
60
C0
C0
ENDCHAR
STARTCHAR quotesinglbase
ENCODING -1
SWIDTH 600 0
DWIDTH 11 0
BBX 3 4 3 -2
BITMAP
60
60
C0
C0
ENDCHAR
STARTCHAR quotereversed
ENCODING -1
SWIDTH 600 0
DWIDTH 11 0
BBX 3 4 4 9
BITMAP
C0
C0
60
60
ENDCHAR
STARTCHAR quotedblleft
ENCODING -1
SWIDTH 600 0
DWIDTH 11 0
BBX 7 4 2 9
BITMAP
66
66
CC
CC
ENDCHAR
STARTCHAR quotedblright
ENCODING -1
SWIDTH 600 0
DWIDTH 11 0
BBX 7 4 2 9
BITMAP
66
66
CC
CC
ENDCHAR
STARTCHAR quotedblbase
ENCODING -1
SWIDTH 600 0
DWIDTH 11 0
BBX 7 4 2 -2
BITMAP
66
66
CC
CC
ENDCHAR
STARTCHAR dagger
ENCODING -1
SWIDTH 600 0
DWIDTH 11 0
BBX 6 14 3 0
BITMAP
30
30
30
FC
A0
20
30
30
30
30
30
30
30
30
ENDCHAR
STARTCHAR daggerdbl
ENCODING -1
SWIDTH 600 0
DWIDTH 11 0
BBX 6 14 3 0
BITMAP
30
30
30
FC
20
30
30
30
30
24
FC
30
30
30
ENDCHAR
STARTCHAR bullet
ENCODING -1
SWIDTH 600 0
DWIDTH 11 0
BBX 5 5 3 4
BITMAP
70
F8
F8
F8
70
ENDCHAR
STARTCHAR ellipsis
ENCODING -1
SWIDTH 600 0
DWIDTH 11 0
BBX 10 2 0 0
BITMAP
CCC0
CCC0
ENDCHAR
STARTCHAR perthousand
ENCODING -1
SWIDTH 600 0
DWIDTH 11 0
BBX 10 13 0 0
BITMAP
6000
9000
9000
9000
6000
0600
3800
C000
3180
4A40
4A40
4A40
3180
ENDCHAR
STARTCHAR minute
ENCODING -1
SWIDTH 600 0
DWIDTH 11 0
BBX 2 4 4 9
BITMAP
C0
C0
C0
C0
ENDCHAR
STARTCHAR second
ENCODING -1
SWIDTH 600 0
DWIDTH 11 0
BBX 6 4 2 9
BITMAP
CC
CC
CC
CC
ENDCHAR
STARTCHAR guilsinglleft
ENCODING -1
SWIDTH 600 0
DWIDTH 11 0
BBX 4 7 4 1
BITMAP
30
20
40
C0
40
20
30
ENDCHAR
STARTCHAR guilsinglright
ENCODING -1
SWIDTH 600 0
DWIDTH 11 0
BBX 4 7 3 1
BITMAP
C0
40
20
30
20
40
C0
ENDCHAR
STARTCHAR exclamdbl
ENCODING -1
SWIDTH 600 0
DWIDTH 11 0
BBX 6 13 2 0
BITMAP
CC
CC
CC
CC
CC
CC
CC
44
44
00
00
CC
CC
ENDCHAR
STARTCHAR fraction
ENCODING -1
SWIDTH 600 0
DWIDTH 11 0
BBX 8 13 2 0
BITMAP
03
02
06
04
0C
08
18
10
30
20
60
40
C0
ENDCHAR
STARTCHAR uni207F
ENCODING -1
SWIDTH 600 0
DWIDTH 11 0
BBX 5 6 2 7
BITMAP
B0
C8
88
88
88
88
ENDCHAR
STARTCHAR franc
ENCODING -1
SWIDTH 600 0
DWIDTH 11 0
BBX 9 13 1 0
BITMAP
3F80
3000
3000
3000
3000
3F80
3000
3000
3000
3000
FE00
3000
3000
ENDCHAR
STARTCHAR lira
ENCODING -1
SWIDTH 600 0
DWIDTH 11 0
BBX 9 13 1 0
BITMAP
1F00
3900
3000
3000
3000
FE00
3000
3000
FE00
3000
2000
4000
FF80
ENDCHAR
STARTCHAR peseta
ENCODING -1
SWIDTH 600 0
DWIDTH 11 0
BBX 9 13 1 0
BITMAP
F000
D800
C800
CC00
CC00
C900
D900
F380
C100
C100
C100
C100
C180
ENDCHAR
STARTCHAR Euro
ENCODING -1
SWIDTH 600 0
DWIDTH 11 0
BBX 9 13 1 0
BITMAP
0F80
3D80
3000
6000
FE00
6000
6000
FC00
6000
2000
3000
1D80
0F80
ENDCHAR
STARTCHAR uni2105
ENCODING -1
SWIDTH 600 0
DWIDTH 11 0
BBX 11 13 0 0
BITMAP
7180
C100
8300
8200
C600
7400
0C00
09C0
1A20
1220
3220
2220
61C0
ENDCHAR
STARTCHAR uni2113
ENCODING -1
SWIDTH 600 0
DWIDTH 11 0
BBX 7 13 2 0
BITMAP
1C
36
32
32
36
3C
38
F0
30
30
32
36
1C
ENDCHAR
STARTCHAR uni2116
ENCODING -1
SWIDTH 600 0
DWIDTH 11 0
BBX 11 13 0 0
BITMAP
8400
8400
C400
C400
A4C0
A520
A520
9520
9520
8CC0
8C00
8400
85E0
ENDCHAR
STARTCHAR trademark
ENCODING -1
SWIDTH 600 0
DWIDTH 11 0
BBX 9 6 1 7
BITMAP
ED80
4D80
4D80
4D80
4A80
4A80
ENDCHAR
STARTCHAR Omega
ENCODING -1
SWIDTH 600 0
DWIDTH 11 0
BBX 9 13 1 0
BITMAP
3E00
7700
4100
C180
C180
C180
C180
C180
C180
4100
2200
1400
F780
ENDCHAR
STARTCHAR estimated
ENCODING -1
SWIDTH 600 0
DWIDTH 11 0
BBX 9 10 1 0
BITMAP
3E00
4100
4180
C180
FF80
C000
C000
4000
4100
3E00
ENDCHAR
STARTCHAR oneeighth
ENCODING -1
SWIDTH 600 0
DWIDTH 11 0
BBX 11 13 0 0
BITMAP
6080
E180
2100
2300
2200
2600
25C0
0E20
0B60
19C0
1260
3220
21C0
ENDCHAR
STARTCHAR threeeighths
ENCODING -1
SWIDTH 600 0
DWIDTH 11 0
BBX 11 13 0 0
BITMAP
F080
0980
0900
7300
0A00
0E00
F5C0
0E20
0B60
19C0
1260
3220
21C0
ENDCHAR
STARTCHAR fiveeighths
ENCODING -1
SWIDTH 600 0
DWIDTH 11 0
BBX 11 13 0 0
BITMAP
F880
8180
8100
F300
0A00
0E00
F5C0
0E20
0B60
19C0
1260
3220
21C0
ENDCHAR
STARTCHAR seveneighths
ENCODING -1
SWIDTH 600 0
DWIDTH 11 0
BBX 11 13 0 0
BITMAP
F980
1900
1300
1200
2600
2400
6DC0
0A20
1B60
11C0
3260
2220
61C0
ENDCHAR
STARTCHAR partialdiff
ENCODING -1
SWIDTH 600 0
DWIDTH 11 0
BBX 9 13 1 0
BITMAP
1E00
1300
0180
0180
1F80
7380
6180
C180
C100
C300
C200
EE00
7800
ENDCHAR
STARTCHAR Delta
ENCODING -1
SWIDTH 600 0
DWIDTH 11 0
BBX 9 13 1 0
BITMAP
0800
1C00
1400
1400
3600
2200
2200
6300
4300
4100
C180
C180
FF80
ENDCHAR
STARTCHAR product
ENCODING -1
SWIDTH 600 0
DWIDTH 11 0
BBX 9 17 1 -4
BITMAP
FF80
C180
C180
C180
C180
C180
C180
C180
C180
C180
C180
C180
C180
C180
C180
C180
C180
ENDCHAR
STARTCHAR summation
ENCODING -1
SWIDTH 600 0
DWIDTH 11 0
BBX 9 17 1 -4
BITMAP
FF00
C000
6000
3000
1800
1800
0C00
0600
0600
0C00
1800
1800
3000
2000
6000
C000
FF80
ENDCHAR
STARTCHAR minus
ENCODING -1
SWIDTH 600 0
DWIDTH 11 0
BBX 9 1 1 6
BITMAP
FF80
ENDCHAR
STARTCHAR radical
ENCODING -1
SWIDTH 600 0
DWIDTH 11 0
BBX 11 15 0 0
BITMAP
0020
0040
0040
00C0
0080
0180
0100
E100
2300
3200
1600
1400
1400
1C00
0800
ENDCHAR
STARTCHAR infinity
ENCODING -1
SWIDTH 600 0
DWIDTH 11 0
BBX 9 6 1 4
BITMAP
6300
D580
8880
8880
D580
6700
ENDCHAR
STARTCHAR integral
ENCODING -1
SWIDTH 600 0
DWIDTH 11 0
BBX 7 18 2 -4
BITMAP
0E
18
10
10
10
10
10
10
10
10
10
10
10
10
10
10
30
E0
ENDCHAR
STARTCHAR approxequal
ENCODING -1
SWIDTH 600 0
DWIDTH 11 0
BBX 9 7 1 3
BITMAP
7000
9D80
0700
0000
7000
DD80
0700
ENDCHAR
STARTCHAR notequal
ENCODING -1
SWIDTH 600 0
DWIDTH 11 0
BBX 9 9 1 2
BITMAP
0300
0200
FF80
0C00
0800
1800
FF80
2000
6000
ENDCHAR
STARTCHAR lessequal
ENCODING -1
SWIDTH 600 0
DWIDTH 11 0
BBX 9 11 1 0
BITMAP
0080
0380
1E00
7000
C000
7000
1E00
0380
0080
0000
FF80
ENDCHAR
STARTCHAR greaterequal
ENCODING -1
SWIDTH 600 0
DWIDTH 11 0
BBX 9 11 1 0
BITMAP
8000
E000
3C00
0700
0180
0700
3C00
E000
8000
0000
FF80
ENDCHAR
STARTCHAR lozenge
ENCODING -1
SWIDTH 600 0
DWIDTH 11 0
BBX 9 13 1 0
BITMAP
0800
1C00
1400
3600
6300
4100
C180
4100
6300
3600
1400
1C00
0800
ENDCHAR
STARTCHAR uniFB01
ENCODING -1
SWIDTH 600 0
DWIDTH 11 0
BBX 9 14 0 0
BITMAP
1F80
3180
3000
3000
FD80
3180
3180
3180
3180
3180
3180
3180
3180
3180
ENDCHAR
STARTCHAR uniFB02
ENCODING -1
SWIDTH 600 0
DWIDTH 11 0
BBX 9 14 0 0
BITMAP
1F80
3180
3180
3180
FD80
3180
3180
3180
3180
3180
3180
3180
3180
3180
ENDCHAR
STARTCHAR glyph566
ENCODING -1
SWIDTH 600 0
DWIDTH 11 0
BBX 7 3 2 11
BITMAP
C6
C6
7C
ENDCHAR
STARTCHAR glyph567
ENCODING -1
SWIDTH 600 0
DWIDTH 11 0
BBX 6 14 1 -4
BITMAP
7C
0C
0C
0C
0C
0C
0C
0C
0C
0C
0C
0C
9C
F8
ENDCHAR
STARTCHAR glyph568
ENCODING -1
SWIDTH 600 0
DWIDTH 11 0
BBX 2 3 5 11
BITMAP
C0
C0
80
ENDCHAR
STARTCHAR glyph569
ENCODING -1
SWIDTH 600 0
DWIDTH 11 0
BBX 2 3 5 -4
BITMAP
40
C0
80
ENDCHAR
STARTCHAR glyph570
ENCODING -1
SWIDTH 600 0
DWIDTH 11 0
BBX 2 3 5 11
BITMAP
40
C0
80
ENDCHAR
STARTCHAR glyph571
ENCODING -1
SWIDTH 600 0
DWIDTH 11 0
BBX 5 7 3 6
BITMAP
10
30
50
D0
F8
10
10
ENDCHAR
STARTCHAR glyph572
ENCODING -1
SWIDTH 600 0
DWIDTH 11 0
BBX 5 7 3 6
BITMAP
F8
80
80
F0
08
08
F0
ENDCHAR
STARTCHAR glyph573
ENCODING -1
SWIDTH 600 0
DWIDTH 11 0
BBX 5 7 3 6
BITMAP
F8
18
10
10
20
20
60
ENDCHAR
STARTCHAR glyph574
ENCODING -1
SWIDTH 600 0
DWIDTH 11 0
BBX 5 7 3 6
BITMAP
70
88
D8
70
98
88
70
ENDCHAR
STARTCHAR uni2000
ENCODING -1
SWIDTH 600 0
DWIDTH 11 0
BBX 1 1 0 0
BITMAP
00
ENDCHAR
STARTCHAR uni2001
ENCODING -1
SWIDTH 600 0
DWIDTH 11 0
BBX 1 1 0 0
BITMAP
00
ENDCHAR
STARTCHAR uni2002
ENCODING -1
SWIDTH 600 0
DWIDTH 11 0
BBX 1 1 0 0
BITMAP
00
ENDCHAR
STARTCHAR uni2003
ENCODING -1
SWIDTH 600 0
DWIDTH 11 0
BBX 1 1 0 0
BITMAP
00
ENDCHAR
STARTCHAR uni2004
ENCODING -1
SWIDTH 600 0
DWIDTH 11 0
BBX 1 1 0 0
BITMAP
00
ENDCHAR
STARTCHAR uni2005
ENCODING -1
SWIDTH 600 0
DWIDTH 11 0
BBX 1 1 0 0
BITMAP
00
ENDCHAR
STARTCHAR uni2006
ENCODING -1
SWIDTH 600 0
DWIDTH 11 0
BBX 1 1 0 0
BITMAP
00
ENDCHAR
STARTCHAR uni2007
ENCODING -1
SWIDTH 600 0
DWIDTH 11 0
BBX 1 1 0 0
BITMAP
00
ENDCHAR
STARTCHAR uni2008
ENCODING -1
SWIDTH 600 0
DWIDTH 11 0
BBX 1 1 0 0
BITMAP
00
ENDCHAR
STARTCHAR uni2009
ENCODING -1
SWIDTH 600 0
DWIDTH 11 0
BBX 1 1 0 0
BITMAP
00
ENDCHAR
STARTCHAR uni200A
ENCODING -1
SWIDTH 600 0
DWIDTH 11 0
BBX 1 1 0 0
BITMAP
00
ENDCHAR
STARTCHAR uni200B
ENCODING -1
SWIDTH 600 0
DWIDTH 11 0
BBX 1 1 0 0
BITMAP
00
ENDCHAR
STARTCHAR uniFEFF
ENCODING -1
SWIDTH 600 0
DWIDTH 11 0
BBX 1 1 0 0
BITMAP
00
ENDCHAR
STARTCHAR uniFFFC
ENCODING -1
SWIDTH 600 0
DWIDTH 11 0
BBX 10 16 0 -3
BITMAP
EDC0
8040
9840
2400
A440
9840
0E00
8E40
8A40
0E00
83C0
8140
0100
8340
8040
EDC0
ENDCHAR
STARTCHAR uniFFFD
ENCODING -1
SWIDTH 600 0
DWIDTH 11 0
BBX 11 17 0 -3
BITMAP
0400
0400
0E00
1F00
1100
2080
7CC0
7CC0
F9E0
73C0
73C0
3F80
1300
1300
0E00
0400
0400
ENDCHAR
STARTCHAR uni01F0
ENCODING -1
SWIDTH 600 0
DWIDTH 11 0
BBX 7 18 1 -4
BITMAP
36
14
1C
00
7C
0C
0C
0C
0C
0C
0C
0C
0C
0C
0C
0C
9C
F8
ENDCHAR
STARTCHAR uni02BC
ENCODING -1
SWIDTH 600 0
DWIDTH 11 0
BBX 3 4 3 9
BITMAP
60
60
C0
C0
ENDCHAR
STARTCHAR theta1
ENCODING -1
SWIDTH 600 0
DWIDTH 11 0
BBX 10 14 0 0
BITMAP
1E00
3300
3100
3180
1980
0FC0
C180
6180
6180
6180
6180
6100
6300
3C00
ENDCHAR
STARTCHAR Upsilon1
ENCODING -1
SWIDTH 600 0
DWIDTH 11 0
BBX 9 13 1 0
BITMAP
8180
C100
4300
6600
2600
3400
1C00
1800
1800
1800
1800
1800
1800
ENDCHAR
STARTCHAR omega1
ENCODING -1
SWIDTH 600 0
DWIDTH 11 0
BBX 11 10 0 0
BITMAP
FFE0
4080
C0C0
C0C0
CCC0
CCC0
CCC0
CCC0
DCC0
7780
ENDCHAR
STARTCHAR uni1E3E
ENCODING -1
SWIDTH 600 0
DWIDTH 11 0
BBX 9 17 1 0
BITMAP
0600
0400
0C00
0000
C180
C180
C180
E380
E380
E380
E580
D580
D580
D580
D580
C980
C980
ENDCHAR
STARTCHAR uni1E3F
ENCODING -1
SWIDTH 600 0
DWIDTH 11 0
BBX 8 14 1 0
BITMAP
06
04
0C
00
B6
DB
DB
DB
DB
DB
DB
DB
DB
DB
ENDCHAR
STARTCHAR uni1E00
ENCODING -1
SWIDTH 600 0
DWIDTH 11 0
BBX 11 18 0 -5
BITMAP
0E00
0E00
0A00
1B00
1B00
1100
3180
3180
3F80
60C0
60C0
4040
C060
0000
0600
0900
0900
0600
ENDCHAR
STARTCHAR uni1E01
ENCODING -1
SWIDTH 600 0
DWIDTH 11 0
BBX 8 15 1 -5
BITMAP
7E
67
03
03
3F
E3
C3
C3
C7
79
00
0C
12
12
0C
ENDCHAR
STARTCHAR uni1F4D
ENCODING -1
SWIDTH 600 0
DWIDTH 11 0
BBX 14 13 -3 0
BITMAP
4DF0
9BB8
D318
060C
060C
060C
060C
060C
060C
060C
0318
03B8
01F0
ENDCHAR
STARTCHAR uni02F3
ENCODING -1
SWIDTH 600 0
DWIDTH 11 0
BBX 4 4 3 -5
BITMAP
60
90
90
60
ENDCHAR
STARTCHAR glyph601
ENCODING -1
SWIDTH 600 0
DWIDTH 11 0
BBX 6 3 2 10
BITMAP
4C
98
D0
ENDCHAR
STARTCHAR uniFB03
ENCODING -1
SWIDTH 600 0
DWIDTH 11 0
BBX 9 14 0 0
BITMAP
3F80
7600
6400
4400
FF80
4480
4480
4480
4480
4480
4480
4480
4480
4480
ENDCHAR
STARTCHAR uniFB04
ENCODING -1
SWIDTH 600 0
DWIDTH 11 0
BBX 9 14 0 0
BITMAP
3F80
7680
6480
4480
FF80
4480
4480
4480
4480
4480
4480
4480
4480
4480
ENDCHAR
STARTCHAR Ohorn
ENCODING -1
SWIDTH 600 0
DWIDTH 11 0
BBX 10 14 1 0
BITMAP
00C0
3EC0
7780
6300
C180
C180
C180
C180
C180
C180
C180
6300
7700
3E00
ENDCHAR
STARTCHAR ohorn
ENCODING -1
SWIDTH 600 0
DWIDTH 11 0
BBX 10 11 1 0
BITMAP
00C0
3EC0
6380
C180
C180
C180
C180
C180
4180
6300
3E00
ENDCHAR
STARTCHAR Uhorn
ENCODING -1
SWIDTH 600 0
DWIDTH 11 0
BBX 11 14 1 0
BITMAP
0060
C360
C340
C380
C300
C300
C300
C300
C300
C300
C300
C300
6600
3C00
ENDCHAR
STARTCHAR uhorn
ENCODING -1
SWIDTH 600 0
DWIDTH 11 0
BBX 10 11 1 0
BITMAP
00C0
C6C0
C780
C600
C600
C600
C600
C600
C600
CE00
7A00
ENDCHAR
STARTCHAR gravecomb
ENCODING -1
SWIDTH 600 0
DWIDTH 11 0
BBX 3 3 4 11
BITMAP
C0
40
20
ENDCHAR
STARTCHAR acutecomb
ENCODING -1
SWIDTH 600 0
DWIDTH 11 0
BBX 3 3 4 11
BITMAP
60
40
C0
ENDCHAR
STARTCHAR tildecomb
ENCODING -1
SWIDTH 600 0
DWIDTH 11 0
BBX 7 3 2 11
BITMAP
62
FE
8C
ENDCHAR
STARTCHAR hookabovecomb
ENCODING -1
SWIDTH 600 0
DWIDTH 11 0
BBX 3 4 4 11
BITMAP
E0
20
40
40
ENDCHAR
STARTCHAR dotbelowcomb
ENCODING -1
SWIDTH 600 0
DWIDTH 11 0
BBX 2 2 4 -3
BITMAP
C0
C0
ENDCHAR
STARTCHAR uni0400
ENCODING -1
SWIDTH 600 0
DWIDTH 11 0
BBX 8 17 2 0
BITMAP
30
10
08
00
FF
C0
C0
C0
C0
FF
C0
C0
C0
C0
C0
C0
FF
ENDCHAR
STARTCHAR uni040D
ENCODING -1
SWIDTH 600 0
DWIDTH 11 0
BBX 9 17 1 0
BITMAP
1800
0800
0400
0000
C180
C180
C280
C680
C480
CD80
C980
D980
9180
B180
A180
C180
C180
ENDCHAR
STARTCHAR uni0450
ENCODING -1
SWIDTH 600 0
DWIDTH 11 0
BBX 9 14 1 0
BITMAP
1800
0800
0400
0000
3E00
6300
4180
C180
FF80
C000
C000
4000
7100
1F00
ENDCHAR
STARTCHAR uni045D
ENCODING -1
SWIDTH 600 0
DWIDTH 11 0
BBX 8 14 1 0
BITMAP
30
10
08
00
C3
C7
C7
CB
CB
D3
D3
A3
E3
C3
ENDCHAR
STARTCHAR uni0460
ENCODING -1
SWIDTH 600 0
DWIDTH 11 0
BBX 9 13 1 0
BITMAP
7700
7700
C180
C180
C180
C180
C180
CD80
CD80
CD80
CD80
6F00
3700
ENDCHAR
STARTCHAR uni0461
ENCODING -1
SWIDTH 600 0
DWIDTH 11 0
BBX 10 10 0 0
BITMAP
CCC0
CCC0
4CC0
44C0
64C0
6C80
2E80
2B80
3B00
3300
ENDCHAR
STARTCHAR uni0462
ENCODING -1
SWIDTH 600 0
DWIDTH 11 0
BBX 10 14 0 0
BITMAP
1800
1800
FF00
1800
1800
1800
1F00
1B80
18C0
18C0
18C0
18C0
1980
1F00
ENDCHAR
STARTCHAR uni0463
ENCODING -1
SWIDTH 600 0
DWIDTH 11 0
BBX 10 12 0 0
BITMAP
3000
3000
FE00
3000
3000
3000
3F80
31C0
30C0
30C0
31C0
3F80
ENDCHAR
STARTCHAR uni0464
ENCODING -1
SWIDTH 600 0
DWIDTH 11 0
BBX 9 13 1 0
BITMAP
CF80
DD80
D000
F000
F000
FF00
F000
F000
F000
F000
D800
DD80
C780
ENDCHAR
STARTCHAR uni0465
ENCODING -1
SWIDTH 600 0
DWIDTH 11 0
BBX 9 10 1 0
BITMAP
C780
CC80
D800
D800
FF00
D800
D800
D800
CC80
C780
ENDCHAR
STARTCHAR uni0466
ENCODING -1
SWIDTH 600 0
DWIDTH 11 0
BBX 11 13 0 0
BITMAP
0600
0A00
0A00
1B00
1100
1100
3F80
2680
2680
66C0
4640
4640
C660
ENDCHAR
STARTCHAR uni0467
ENCODING -1
SWIDTH 600 0
DWIDTH 11 0
BBX 9 10 1 0
BITMAP
0800
1C00
1400
3600
3E00
2A00
6B00
4900
4900
C980
ENDCHAR
STARTCHAR uni0468
ENCODING -1
SWIDTH 600 0
DWIDTH 11 0
BBX 10 13 1 0
BITMAP
C600
C600
C600
CF00
C900
C900
FF00
CD80
D580
D480
D480
F4C0
F4C0
ENDCHAR
STARTCHAR uni0469
ENCODING -1
SWIDTH 600 0
DWIDTH 11 0
BBX 10 10 1 0
BITMAP
C600
C500
C500
CD00
FF80
CF80
DE80
D680
D6C0
F6C0
ENDCHAR
STARTCHAR uni046A
ENCODING -1
SWIDTH 600 0
DWIDTH 11 0
BBX 11 13 0 0
BITMAP
7FC0
60C0
3080
1180
1900
0E00
1F80
3780
66C0
6640
4640
C660
C660
ENDCHAR
STARTCHAR uni046B
ENCODING -1
SWIDTH 600 0
DWIDTH 11 0
BBX 11 10 0 0
BITMAP
7FC0
2080
3100
1A00
3F00
2D80
6CC0
4CC0
4C40
CC60
ENDCHAR
STARTCHAR uni046C
ENCODING -1
SWIDTH 600 0
DWIDTH 11 0
BBX 10 13 1 0
BITMAP
BFC0
B0C0
9080
9980
8900
8E00
FF80
D680
D680
F6C0
F6C0
F6C0
F6C0
ENDCHAR
STARTCHAR uni046D
ENCODING -1
SWIDTH 600 0
DWIDTH 11 0
BBX 10 10 1 0
BITMAP
DF80
D980
C900
CF00
FF00
D780
D680
F680
F6C0
F6C0
ENDCHAR
STARTCHAR uni046E
ENCODING -1
SWIDTH 600 0
DWIDTH 11 0
BBX 9 18 1 -3
BITMAP
6700
1C00
7E00
E300
0180
0180
0180
0300
7C00
0700
0180
0180
0180
0700
7E00
C000
C700
7F80
ENDCHAR
STARTCHAR uni046F
ENCODING -1
SWIDTH 600 0
DWIDTH 11 0
BBX 8 15 1 -3
BITMAP
33
14
7E
63
03
03
3C
06
03
03
07
7C
C0
C0
7F
ENDCHAR
STARTCHAR uni0470
ENCODING -1
SWIDTH 600 0
DWIDTH 11 0
BBX 10 13 0 0
BITMAP
CCC0
CCC0
CCC0
CCC0
CCC0
CCC0
CCC0
6D80
3F00
0C00
0C00
0C00
0C00
ENDCHAR
STARTCHAR uni0471
ENCODING -1
SWIDTH 600 0
DWIDTH 11 0
BBX 10 18 0 -4
BITMAP
0C00
0C00
0C00
0C00
CD80
CCC0
CCC0
CCC0
CCC0
CCC0
CCC0
CCC0
6F80
3F00
0C00
0C00
0C00
0C00
ENDCHAR
STARTCHAR uni0472
ENCODING -1
SWIDTH 600 0
DWIDTH 11 0
BBX 9 13 1 0
BITMAP
3E00
7700
6300
C180
C180
C180
FF80
C180
C180
C180
4100
7700
3E00
ENDCHAR
STARTCHAR uni0473
ENCODING -1
SWIDTH 600 0
DWIDTH 11 0
BBX 9 10 1 0
BITMAP
3E00
6300
C100
C180
FF80
C180
C180
4180
6300
3E00
ENDCHAR
STARTCHAR uni0474
ENCODING -1
SWIDTH 600 0
DWIDTH 11 0
BBX 11 13 1 0
BITMAP
C0E0
C0C0
4180
6180
6100
2300
3300
3200
1600
1600
1E00
0C00
0C00
ENDCHAR
STARTCHAR uni0475
ENCODING -1
SWIDTH 600 0
DWIDTH 11 0
BBX 10 10 1 0
BITMAP
C0C0
4180
6100
6300
2300
3200
3600
1600
1C00
0C00
ENDCHAR
STARTCHAR uni0476
ENCODING -1
SWIDTH 600 0
DWIDTH 11 0
BBX 11 17 1 0
BITMAP
6C00
2400
1200
0000
C0E0
C0C0
4180
6180
6100
2300
3300
3200
1600
1600
1E00
0C00
0C00
ENDCHAR
STARTCHAR uni0477
ENCODING -1
SWIDTH 600 0
DWIDTH 11 0
BBX 10 14 1 0
BITMAP
6C00
2400
1200
0000
C0C0
4180
6100
6300
2300
3200
3600
1600
1C00
0C00
ENDCHAR
STARTCHAR uni0478
ENCODING -1
SWIDTH 600 0
DWIDTH 11 0
BBX 10 17 1 -4
BITMAP
7000
D800
D800
DEC0
DEC0
DEC0
DA80
DA80
DA80
DA80
DA80
D900
7100
0100
0100
0300
0600
ENDCHAR
STARTCHAR uni0479
ENCODING -1
SWIDTH 600 0
DWIDTH 11 0
BBX 10 14 1 -4
BITMAP
76C0
DEC0
DAC0
DA80
DA80
DA80
DB80
D980
D900
7100
0100
0100
0300
0600
ENDCHAR
STARTCHAR uni047A
ENCODING -1
SWIDTH 600 0
DWIDTH 11 0
BBX 9 15 1 -1
BITMAP
1800
3E00
7F00
4100
C180
C180
C180
C180
C180
C180
C180
4100
7F00
3E00
1800
ENDCHAR
STARTCHAR uni047B
ENCODING -1
SWIDTH 600 0
DWIDTH 11 0
BBX 9 12 1 -1
BITMAP
0800
3E00
7B00
C180
C180
C180
C180
C180
C180
7B00
3E00
0800
ENDCHAR
STARTCHAR uni047C
ENCODING -1
SWIDTH 600 0
DWIDTH 11 0
BBX 9 18 1 0
BITMAP
3C00
2700
0C00
0800
0000
7700
7700
C180
C180
C180
C180
C180
C180
C180
C180
C980
6F00
3F00
ENDCHAR
STARTCHAR uni047D
ENCODING -1
SWIDTH 600 0
DWIDTH 11 0
BBX 9 16 1 0
BITMAP
3C00
4700
0C00
0400
0800
0000
7700
5580
C180
C180
C180
C180
C180
C180
6B00
7700
ENDCHAR
STARTCHAR uni047E
ENCODING -1
SWIDTH 600 0
DWIDTH 11 0
BBX 9 16 1 0
BITMAP
7F00
4900
0000
7700
7700
C180
C180
C180
C180
C180
C980
C980
C980
C980
7F00
7700
ENDCHAR
STARTCHAR uni047F
ENCODING -1
SWIDTH 600 0
DWIDTH 11 0
BBX 10 13 0 0
BITMAP
3F00
2500
0000
D8C0
D8C0
C8C0
48C0
48C0
4C80
7580
7580
3700
2600
ENDCHAR
STARTCHAR uni0480
ENCODING -1
SWIDTH 600 0
DWIDTH 11 0
BBX 10 17 1 -4
BITMAP
0F80
39C0
6000
4000
C000
C000
C000
C000
C000
C000
6000
3900
1F00
0300
0300
0300
0300
ENDCHAR
STARTCHAR uni0481
ENCODING -1
SWIDTH 600 0
DWIDTH 11 0
BBX 8 14 2 -4
BITMAP
3F
73
C0
C0
C0
C0
C0
C0
72
3E
06
06
06
06
ENDCHAR
STARTCHAR uni0482
ENCODING -1
SWIDTH 600 0
DWIDTH 11 0
BBX 9 11 1 0
BITMAP
0100
0300
3200
1E00
0700
0980
C800
7000
3C00
2600
4000
ENDCHAR
STARTCHAR uni0483
ENCODING -1
SWIDTH 600 0
DWIDTH 11 0
BBX 7 3 2 10
BITMAP
06
FE
C0
ENDCHAR
STARTCHAR uni0484
ENCODING -1
SWIDTH 600 0
DWIDTH 11 0
BBX 7 2 2 11
BITMAP
3E
E2
ENDCHAR
STARTCHAR uni0485
ENCODING -1
SWIDTH 600 0
DWIDTH 11 0
BBX 2 3 4 11
BITMAP
C0
80
40
ENDCHAR
STARTCHAR uni0486
ENCODING -1
SWIDTH 600 0
DWIDTH 11 0
BBX 2 3 4 11
BITMAP
C0
40
80
ENDCHAR
STARTCHAR uni0488
ENCODING -1
SWIDTH 600 0
DWIDTH 11 0
BBX 10 9 0 0
BITMAP
0E00
6180
0000
4040
A080
0000
6180
0400
0A00
ENDCHAR
STARTCHAR uni0489
ENCODING -1
SWIDTH 600 0
DWIDTH 11 0
BBX 10 10 0 0
BITMAP
0800
2800
2180
0000
C0C0
0000
0000
3100
6880
0800
ENDCHAR
STARTCHAR uni048A
ENCODING -1
SWIDTH 600 0
DWIDTH 11 0
BBX 11 20 1 -3
BITMAP
6300
6300
3E00
0000
C180
C380
C280
C680
C480
CD80
C980
D980
9180
B180
A180
E180
C1E0
0060
0040
00C0
ENDCHAR
STARTCHAR uni048B
ENCODING -1
SWIDTH 600 0
DWIDTH 11 0
BBX 10 17 1 -3
BITMAP
6300
6300
3E00
0000
C300
C700
C700
CB00
CB00
D300
D300
A300
E300
C3C0
00C0
0080
0080
ENDCHAR
STARTCHAR uni048C
ENCODING -1
SWIDTH 600 0
DWIDTH 11 0
BBX 9 13 1 0
BITMAP
6000
6000
FC00
6000
6000
7E00
6700
6180
6180
6180
6180
6700
7E00
ENDCHAR
STARTCHAR uni048D
ENCODING -1
SWIDTH 600 0
DWIDTH 11 0
BBX 9 14 1 0
BITMAP
6000
6000
F800
6000
6000
6000
6000
6000
7F00
6380
6180
6180
6380
7F00
ENDCHAR
STARTCHAR uni048E
ENCODING -1
SWIDTH 600 0
DWIDTH 11 0
BBX 9 13 1 0
BITMAP
FE00
C700
C180
C180
C180
D180
CB00
FE00
C200
C100
C000
C000
C000
ENDCHAR
STARTCHAR uni048F
ENCODING -1
SWIDTH 600 0
DWIDTH 11 0
BBX 9 14 1 -4
BITMAP
9E00
E300
C180
C180
C180
C180
C180
C900
E700
DE00
C100
C000
C000
C000
ENDCHAR
STARTCHAR uni0492
ENCODING -1
SWIDTH 600 0
DWIDTH 11 0
BBX 8 13 2 0
BITMAP
7F
60
60
60
60
60
F8
60
60
60
60
60
60
ENDCHAR
STARTCHAR uni0493
ENCODING -1
SWIDTH 600 0
DWIDTH 11 0
BBX 7 10 2 0
BITMAP
7E
60
60
60
F8
60
60
60
60
60
ENDCHAR
STARTCHAR uni0494
ENCODING -1
SWIDTH 600 0
DWIDTH 11 0
BBX 9 18 1 -5
BITMAP
FE00
C000
C000
C000
C000
C000
FC00
CE00
C300
C180
C180
C180
C180
0180
0180
0300
6F00
7C00
ENDCHAR
STARTCHAR uni0495
ENCODING -1
SWIDTH 600 0
DWIDTH 11 0
BBX 8 14 2 -4
BITMAP
FC
C0
C0
C0
FC
CE
C3
C3
C3
C3
03
03
26
3C
ENDCHAR
STARTCHAR uni0496
ENCODING -1
SWIDTH 600 0
DWIDTH 11 0
BBX 11 16 0 -3
BITMAP
C660
4640
66C0
2680
1780
1F80
1F00
1780
3780
2680
66C0
4640
C660
0060
0060
0060
ENDCHAR
STARTCHAR uni0497
ENCODING -1
SWIDTH 600 0
DWIDTH 11 0
BBX 10 13 0 -3
BITMAP
CCC0
4D80
6D00
2F00
3E00
3E00
2F00
6D00
4D80
CCC0
00C0
00C0
00C0
ENDCHAR
STARTCHAR uni0498
ENCODING -1
SWIDTH 600 0
DWIDTH 11 0
BBX 9 17 1 -4
BITMAP
3E00
E380
0180
0180
0300
3C00
0700
0180
0180
0180
0180
C700
FE00
0800
0400
0400
1C00
ENDCHAR
STARTCHAR uni0499
ENCODING -1
SWIDTH 600 0
DWIDTH 11 0
BBX 7 14 2 -4
BITMAP
FC
C6
06
06
3C
0E
06
06
CE
FC
10
08
08
38
ENDCHAR
STARTCHAR uni049A
ENCODING -1
SWIDTH 600 0
DWIDTH 11 0
BBX 9 16 2 -3
BITMAP
C180
C300
C600
CC00
D800
F000
F000
D000
D800
CC00
C600
C300
C180
0180
0180
0180
ENDCHAR
STARTCHAR uni049B
ENCODING -1
SWIDTH 600 0
DWIDTH 11 0
BBX 8 13 2 -3
BITMAP
C3
C6
CC
D8
F0
F0
D8
CC
C6
C3
03
03
03
ENDCHAR
STARTCHAR uni049C
ENCODING -1
SWIDTH 600 0
DWIDTH 11 0
BBX 9 13 2 0
BITMAP
C180
C300
D600
DC00
D800
D800
F800
F800
DC00
D600
C200
C300
C180
ENDCHAR
STARTCHAR uni049D
ENCODING -1
SWIDTH 600 0
DWIDTH 11 0
BBX 8 10 2 0
BITMAP
C3
DE
DC
D8
F0
F8
DC
DE
DA
C3
ENDCHAR
STARTCHAR uni049E
ENCODING -1
SWIDTH 600 0
DWIDTH 11 0
BBX 10 13 1 0
BITMAP
60C0
F980
6300
6600
6C00
7800
7C00
6600
6600
6300
6180
6180
60C0
ENDCHAR
STARTCHAR uni049F
ENCODING -1
SWIDTH 600 0
DWIDTH 11 0
BBX 9 14 1 0
BITMAP
6000
6000
FC00
6000
6180
6300
6600
6C00
5800
7C00
6600
6200
6100
6180
ENDCHAR
STARTCHAR uni04A0
ENCODING -1
SWIDTH 600 0
DWIDTH 11 0
BBX 11 13 0 0
BITMAP
F860
18C0
1880
1980
1B00
1A00
1F00
1B00
1980
1980
18C0
1840
1860
ENDCHAR
STARTCHAR uni04A1
ENCODING -1
SWIDTH 600 0
DWIDTH 11 0
BBX 11 10 0 0
BITMAP
F860
18C0
1980
1B00
1E00
1E00
1B00
1980
18C0
1860
ENDCHAR
STARTCHAR uni04A2
ENCODING -1
SWIDTH 600 0
DWIDTH 11 0
BBX 10 16 1 -3
BITMAP
C180
C180
C180
C180
C180
FF80
C180
C180
C180
C180
C180
C180
C1C0
00C0
00C0
00C0
ENDCHAR
STARTCHAR uni04A3
ENCODING -1
SWIDTH 600 0
DWIDTH 11 0
BBX 9 13 1 -3
BITMAP
C300
C300
C300
C300
FF00
C300
C300
C300
C300
C380
0180
0180
0180
ENDCHAR
STARTCHAR uni04A4
ENCODING -1
SWIDTH 600 0
DWIDTH 11 0
BBX 10 13 1 0
BITMAP
C3C0
C300
C300
C300
C300
FF00
C300
C300
C300
C300
C300
C300
C300
ENDCHAR
STARTCHAR uni04A5
ENCODING -1
SWIDTH 600 0
DWIDTH 11 0
BBX 10 10 1 0
BITMAP
C3C0
C300
C300
C300
FF00
C300
C300
C300
C300
C300
ENDCHAR
STARTCHAR uni04A6
ENCODING -1
SWIDTH 600 0
DWIDTH 11 0
BBX 9 18 1 -5
BITMAP
FC00
CC00
CC00
CC00
CC00
CC00
CF00
CF00
CD80
CD80
CD80
CD80
CD80
0180
0180
0180
0700
0700
ENDCHAR
STARTCHAR uni04A7
ENCODING -1
SWIDTH 600 0
DWIDTH 11 0
BBX 9 14 1 -4
BITMAP
FC00
CC00
CC00
CC00
CF00
CD00
CD80
CD80
CD80
CD80
0180
0180
0100
0700
ENDCHAR
STARTCHAR uni04A8
ENCODING -1
SWIDTH 600 0
DWIDTH 11 0
BBX 10 14 1 -1
BITMAP
1E00
7200
6000
C780
CFC0
CCC0
CCC0
CCC0
CCC0
CCC0
6780
7300
1FC0
01C0
ENDCHAR
STARTCHAR uni04A9
ENCODING -1
SWIDTH 600 0
DWIDTH 11 0
BBX 9 10 1 0
BITMAP
3C00
6000
C000
CF00
D980
D980
D980
D900
6E00
3F80
ENDCHAR
STARTCHAR uni04AA
ENCODING -1
SWIDTH 600 0
DWIDTH 11 0
BBX 9 17 1 -4
BITMAP
1F00
3980
6000
C000
C000
C000
C000
C000
C000
C000
6000
3980
1F80
0400
0200
0200
0E00
ENDCHAR
STARTCHAR uni04AB
ENCODING -1
SWIDTH 600 0
DWIDTH 11 0
BBX 7 14 2 -4
BITMAP
3E
62
C0
C0
C0
C0
C0
C0
62
3E
08
04
04
1C
ENDCHAR
STARTCHAR uni04AC
ENCODING -1
SWIDTH 600 0
DWIDTH 11 0
BBX 10 16 0 -3
BITMAP
FFC0
0C00
0C00
0C00
0C00
0C00
0C00
0C00
0C00
0C00
0C00
0C00
0F00
0300
0300
0300
ENDCHAR
STARTCHAR uni04AD
ENCODING -1
SWIDTH 600 0
DWIDTH 11 0
BBX 9 13 0 -3
BITMAP
FF80
0C00
0C00
0C00
0C00
0C00
0C00
0C00
0C00
0E00
0600
0600
0600
ENDCHAR
STARTCHAR uni04AE
ENCODING -1
SWIDTH 600 0
DWIDTH 11 0
BBX 9 13 1 0
BITMAP
8180
C100
4300
6200
2600
3400
1C00
1800
1800
1800
1800
1800
1800
ENDCHAR
STARTCHAR uni04AF
ENCODING -1
SWIDTH 600 0
DWIDTH 11 0
BBX 9 14 1 -4
BITMAP
8180
C100
C300
4300
6200
2600
3400
3C00
1800
1800
1800
1800
1800
1800
ENDCHAR
STARTCHAR uni04B0
ENCODING -1
SWIDTH 600 0
DWIDTH 11 0
BBX 9 13 1 0
BITMAP
8180
C300
4300
6600
2600
3C00
1C00
1800
FF00
1800
1800
1800
1800
ENDCHAR
STARTCHAR uni04B1
ENCODING -1
SWIDTH 600 0
DWIDTH 11 0
BBX 9 14 1 -4
BITMAP
8180
C100
C300
4300
6200
2600
2400
3400
1C00
1800
7E00
1800
1800
1800
ENDCHAR
STARTCHAR uni04B2
ENCODING -1
SWIDTH 600 0
DWIDTH 11 0
BBX 11 16 0 -3
BITMAP
C0C0
6180
2100
3300
1E00
0C00
0C00
1E00
1300
3300
2180
60C0
C0E0
0060
0060
0060
ENDCHAR
STARTCHAR uni04B3
ENCODING -1
SWIDTH 600 0
DWIDTH 11 0
BBX 9 13 1 -3
BITMAP
C300
6600
2400
3C00
1800
1800
3C00
2600
6200
C380
0180
0180
0180
ENDCHAR
STARTCHAR uni04B4
ENCODING -1
SWIDTH 600 0
DWIDTH 11 0
BBX 11 16 0 -3
BITMAP
FD80
3180
3180
3180
3180
3180
3180
3180
3180
3180
3180
3180
3FE0
0060
0060
0060
ENDCHAR
STARTCHAR uni04B5
ENCODING -1
SWIDTH 600 0
DWIDTH 11 0
BBX 10 13 0 -3
BITMAP
FD80
3180
3180
3180
3180
3180
3180
3180
3180
3FC0
00C0
00C0
00C0
ENDCHAR
STARTCHAR uni04B6
ENCODING -1
SWIDTH 600 0
DWIDTH 11 0
BBX 10 16 1 -3
BITMAP
C300
C300
C300
C300
C300
C300
C300
EF00
7F00
0300
0300
0300
03C0
00C0
00C0
00C0
ENDCHAR
STARTCHAR uni04B7
ENCODING -1
SWIDTH 600 0
DWIDTH 11 0
BBX 9 13 1 -3
BITMAP
C300
C300
C300
C300
C300
E700
7F00
0300
0300
0380
0180
0180
0180
ENDCHAR
STARTCHAR uni04B8
ENCODING -1
SWIDTH 600 0
DWIDTH 11 0
BBX 9 13 1 0
BITMAP
C180
C180
C180
C180
C980
C980
C980
7F80
0980
0980
0980
0180
0180
ENDCHAR
STARTCHAR uni04B9
ENCODING -1
SWIDTH 600 0
DWIDTH 11 0
BBX 9 10 1 0
BITMAP
C180
C180
CD80
CD80
CD80
EF80
7D80
0D80
0D80
0180
ENDCHAR
STARTCHAR uni04BA
ENCODING -1
SWIDTH 600 0
DWIDTH 11 0
BBX 9 13 1 0
BITMAP
C000
C000
C000
C000
C000
FF00
F380
C180
C180
C180
C180
C180
C180
ENDCHAR
STARTCHAR uni04BB
ENCODING -1
SWIDTH 600 0
DWIDTH 11 0
BBX 8 10 1 0
BITMAP
C0
C0
C0
DE
E3
C3
C3
C3
C3
C3
ENDCHAR
STARTCHAR uni04BC
ENCODING -1
SWIDTH 600 0
DWIDTH 11 0
BBX 10 13 0 0
BITMAP
0700
0D80
08C0
18C0
D8C0
D8C0
FFC0
1800
1800
1800
0800
0EC0
07C0
ENDCHAR
STARTCHAR uni04BD
ENCODING -1
SWIDTH 600 0
DWIDTH 11 0
BBX 10 10 0 0
BITMAP
0F00
1980
B0C0
B0C0
FFC0
3000
3000
3000
18C0
0FC0
ENDCHAR
STARTCHAR uni04BE
ENCODING -1
SWIDTH 600 0
DWIDTH 11 0
BBX 10 16 0 -3
BITMAP
0700
0D80
08C0
18C0
D8C0
D8C0
FFC0
1800
1800
1800
0800
0EC0
07C0
0300
0300
0300
ENDCHAR
STARTCHAR uni04BF
ENCODING -1
SWIDTH 600 0
DWIDTH 11 0
BBX 10 13 0 -3
BITMAP
0F00
1980
B0C0
B0C0
FFC0
3000
3000
3000
18C0
0FC0
0600
0600
0600
ENDCHAR
STARTCHAR uni04C0
ENCODING -1
SWIDTH 600 0
DWIDTH 11 0
BBX 7 13 2 0
BITMAP
FE
30
30
30
30
30
30
30
30
30
30
30
FE
ENDCHAR
STARTCHAR uni04C1
ENCODING -1
SWIDTH 600 0
DWIDTH 11 0
BBX 10 17 0 0
BITMAP
3180
3180
1F00
0000
CCC0
CC80
4D80
6D00
2D00
3E00
3E00
3F00
2D00
6D80
4D80
CCC0
CCC0
ENDCHAR
STARTCHAR uni04C2
ENCODING -1
SWIDTH 600 0
DWIDTH 11 0
BBX 10 14 0 0
BITMAP
3180
3180
1F00
0000
CCC0
4C80
6D80
2F00
3E00
3E00
2D00
6D80
4C80
CCC0
ENDCHAR
STARTCHAR uni04C3
ENCODING -1
SWIDTH 600 0
DWIDTH 11 0
BBX 9 18 1 -5
BITMAP
C180
C300
C600
CC00
D800
F000
FE00
C700
C300
C180
C180
C180
C180
0180
0180
0300
6E00
7C00
ENDCHAR
STARTCHAR uni04C4
ENCODING -1
SWIDTH 600 0
DWIDTH 11 0
BBX 8 14 2 -4
BITMAP
C3
C6
CC
D8
F0
FC
C6
C3
C3
C3
03
03
26
3C
ENDCHAR
STARTCHAR uni04C5
ENCODING -1
SWIDTH 600 0
DWIDTH 11 0
BBX 11 16 0 -3
BITMAP
1F80
1980
1980
1180
1180
3180
3180
3180
3180
3180
2180
6180
C1E0
0060
0040
00C0
ENDCHAR
STARTCHAR uni04C6
ENCODING -1
SWIDTH 600 0
DWIDTH 11 0
BBX 11 13 0 -3
BITMAP
1F80
1980
1180
1180
1180
3180
3180
3180
6180
C1E0
0060
0040
0040
ENDCHAR
STARTCHAR uni04C7
ENCODING -1
SWIDTH 600 0
DWIDTH 11 0
BBX 9 18 1 -5
BITMAP
C180
C180
C180
C180
C180
FF80
C180
C180
C180
C180
C180
C180
C180
0180
0180
0300
2700
3E00
ENDCHAR
STARTCHAR uni04C8
ENCODING -1
SWIDTH 600 0
DWIDTH 11 0
BBX 8 14 1 -4
BITMAP
C3
C3
C3
C3
FF
C3
C3
C3
C3
C3
03
03
26
3C
ENDCHAR
STARTCHAR uni04C9
ENCODING -1
SWIDTH 600 0
DWIDTH 11 0
BBX 10 16 1 -3
BITMAP
C300
C300
C300
C300
C300
FF00
C300
C300
C300
C300
C300
C300
C3C0
00C0
0080
0180
ENDCHAR
STARTCHAR uni04CA
ENCODING -1
SWIDTH 600 0
DWIDTH 11 0
BBX 10 13 1 -3
BITMAP
C300
C300
C300
C300
FF00
C300
C300
C300
C300
C3C0
00C0
0080
0180
ENDCHAR
STARTCHAR uni04CB
ENCODING -1
SWIDTH 600 0
DWIDTH 11 0
BBX 9 16 1 -3
BITMAP
C180
C180
C180
C180
C180
C180
C180
7F80
0180
0180
0180
0180
0780
0600
0600
0600
ENDCHAR
STARTCHAR uni04CC
ENCODING -1
SWIDTH 600 0
DWIDTH 11 0
BBX 8 13 1 -3
BITMAP
C3
C3
C3
C3
C3
7F
03
03
03
07
06
06
06
ENDCHAR
STARTCHAR uni04CD
ENCODING -1
SWIDTH 600 0
DWIDTH 11 0
BBX 10 16 1 -3
BITMAP
C180
C380
E380
E380
E380
E380
D580
D580
D580
D580
D580
D980
C9C0
0080
0180
0300
ENDCHAR
STARTCHAR uni04CE
ENCODING -1
SWIDTH 600 0
DWIDTH 11 0
BBX 10 13 1 -3
BITMAP
C180
C180
E380
E380
E380
D580
D580
D580
DD80
C9C0
00C0
0080
0080
ENDCHAR
STARTCHAR uni04CF
ENCODING -1
SWIDTH 600 0
DWIDTH 11 0
BBX 7 13 2 0
BITMAP
FE
30
30
30
30
30
30
30
30
30
30
30
FE
ENDCHAR
STARTCHAR uni04D0
ENCODING -1
SWIDTH 600 0
DWIDTH 11 0
BBX 11 17 0 0
BITMAP
3180
3180
1F00
0000
0E00
0E00
0A00
1B00
1B00
1100
3180
3180
3F80
60C0
60C0
4040
C060
ENDCHAR
STARTCHAR uni04D1
ENCODING -1
SWIDTH 600 0
DWIDTH 11 0
BBX 8 14 1 0
BITMAP
63
63
3E
00
7E
67
03
03
3F
E3
C3
C3
C7
79
ENDCHAR
STARTCHAR uni04D2
ENCODING -1
SWIDTH 600 0
DWIDTH 11 0
BBX 11 16 0 0
BITMAP
1B00
1B00
0000
0E00
0E00
0A00
1B00
1B00
1100
3180
3180
3F80
60C0
60C0
4040
C060
ENDCHAR
STARTCHAR uni04D3
ENCODING -1
SWIDTH 600 0
DWIDTH 11 0
BBX 8 13 1 0
BITMAP
36
36
00
7E
67
03
03
3F
E3
C3
C3
C7
79
ENDCHAR
STARTCHAR uni04D4
ENCODING -1
SWIDTH 600 0
DWIDTH 11 0
BBX 10 13 0 0
BITMAP
1FC0
1600
3600
3600
2600
27C0
6600
7E00
4600
4600
4600
C600
C7C0
ENDCHAR
STARTCHAR uni04D5
ENCODING -1
SWIDTH 600 0
DWIDTH 11 0
BBX 11 10 0 0
BITMAP
79C0
4F40
0660
0660
7FE0
E600
C600
C600
CB60
71E0
ENDCHAR
STARTCHAR uni04D6
ENCODING -1
SWIDTH 600 0
DWIDTH 11 0
BBX 8 17 2 0
BITMAP
63
63
3E
00
FF
C0
C0
C0
C0
FF
C0
C0
C0
C0
C0
C0
FF
ENDCHAR
STARTCHAR uni04D7
ENCODING -1
SWIDTH 600 0
DWIDTH 11 0
BBX 9 14 1 0
BITMAP
6300
6300
3E00
0000
3E00
6300
4180
C180
FF80
C000
C000
4000
7100
1F00
ENDCHAR
STARTCHAR uni04D8
ENCODING -1
SWIDTH 600 0
DWIDTH 11 0
BBX 9 13 1 0
BITMAP
7C00
6700
0300
0180
0180
0180
FF80
C180
C180
C180
4300
7700
3C00
ENDCHAR
STARTCHAR uni04D9
ENCODING -1
SWIDTH 600 0
DWIDTH 11 0
BBX 9 10 1 0
BITMAP
7E00
6700
0180
0180
0180
FF80
C180
C100
6300
3E00
ENDCHAR
STARTCHAR uni04DA
ENCODING -1
SWIDTH 600 0
DWIDTH 11 0
BBX 9 16 1 0
BITMAP
3600
3600
0000
7C00
6700
0300
0180
0180
0180
FF80
C180
C180
C180
4300
7700
3C00
ENDCHAR
STARTCHAR uni04DB
ENCODING -1
SWIDTH 600 0
DWIDTH 11 0
BBX 9 13 1 0
BITMAP
3600
3600
0000
7E00
6700
0180
0180
0180
FF80
C180
C100
6300
3E00
ENDCHAR
STARTCHAR uni04DC
ENCODING -1
SWIDTH 600 0
DWIDTH 11 0
BBX 10 16 0 0
BITMAP
1B00
1B00
0000
CCC0
CC80
4D80
6D00
2D00
3E00
3E00
3F00
2D00
6D80
4D80
CCC0
CCC0
ENDCHAR
STARTCHAR uni04DD
ENCODING -1
SWIDTH 600 0
DWIDTH 11 0
BBX 10 13 0 0
BITMAP
1B00
1B00
0000
CCC0
4C80
6D80
2F00
3E00
3E00
2D00
6D80
4C80
CCC0
ENDCHAR
STARTCHAR uni04DE
ENCODING -1
SWIDTH 600 0
DWIDTH 11 0
BBX 9 16 1 0
BITMAP
3600
3600
0000
3E00
E380
0180
0180
0300
3C00
0700
0180
0180
0180
0180
C700
FE00
ENDCHAR
STARTCHAR uni04DF
ENCODING -1
SWIDTH 600 0
DWIDTH 11 0
BBX 7 13 2 0
BITMAP
6C
6C
00
FC
C6
06
06
3C
0E
06
06
CE
FC
ENDCHAR
STARTCHAR uni04E0
ENCODING -1
SWIDTH 600 0
DWIDTH 11 0
BBX 9 13 1 0
BITMAP
FF00
0300
0600
0C00
1800
3000
3E00
0380
0180
0180
0180
C700
FE00
ENDCHAR
STARTCHAR uni04E1
ENCODING -1
SWIDTH 600 0
DWIDTH 11 0
BBX 8 14 2 -4
BITMAP
FF
03
06
0C
18
30
3C
06
03
03
03
03
C6
FC
ENDCHAR
STARTCHAR uni04E2
ENCODING -1
SWIDTH 600 0
DWIDTH 11 0
BBX 9 15 1 0
BITMAP
3E00
0000
C180
C180
C280
C680
C480
CD80
C980
D980
9180
B180
A180
C180
C180
ENDCHAR
STARTCHAR uni04E3
ENCODING -1
SWIDTH 600 0
DWIDTH 11 0
BBX 8 12 1 0
BITMAP
3E
00
C3
C7
C7
CB
CB
D3
D3
A3
E3
C3
ENDCHAR
STARTCHAR uni04E4
ENCODING -1
SWIDTH 600 0
DWIDTH 11 0
BBX 9 16 1 0
BITMAP
3600
3600
0000
C180
C180
C280
C680
C480
CD80
C980
D980
9180
B180
A180
C180
C180
ENDCHAR
STARTCHAR uni04E5
ENCODING -1
SWIDTH 600 0
DWIDTH 11 0
BBX 8 13 1 0
BITMAP
36
36
00
C3
C7
C7
CB
CB
D3
D3
A3
E3
C3
ENDCHAR
STARTCHAR uni04E6
ENCODING -1
SWIDTH 600 0
DWIDTH 11 0
BBX 9 16 1 0
BITMAP
3600
3600
0000
3E00
7700
6300
C180
C180
C180
C180
C180
C180
C180
6300
7700
3E00
ENDCHAR
STARTCHAR uni04E7
ENCODING -1
SWIDTH 600 0
DWIDTH 11 0
BBX 9 13 1 0
BITMAP
3600
3600
0000
3E00
6300
C180
C180
C180
C180
C180
4180
6300
3E00
ENDCHAR
STARTCHAR uni04E8
ENCODING -1
SWIDTH 600 0
DWIDTH 11 0
BBX 9 13 1 0
BITMAP
3E00
7700
6300
C180
C180
C180
FF80
C180
C180
C180
4100
7700
3E00
ENDCHAR
STARTCHAR uni04E9
ENCODING -1
SWIDTH 600 0
DWIDTH 11 0
BBX 9 10 1 0
BITMAP
3E00
6300
C100
C180
FF80
C180
C180
4180
6300
3E00
ENDCHAR
STARTCHAR uni04EA
ENCODING -1
SWIDTH 600 0
DWIDTH 11 0
BBX 9 16 1 0
BITMAP
3600
3600
0000
3E00
7700
6300
C180
C180
C180
FF80
C180
C180
C180
4100
7700
3E00
ENDCHAR
STARTCHAR uni04EB
ENCODING -1
SWIDTH 600 0
DWIDTH 11 0
BBX 9 13 1 0
BITMAP
3600
3600
0000
3E00
6300
C100
C180
FF80
C180
C180
4180
6300
3E00
ENDCHAR
STARTCHAR uni04EC
ENCODING -1
SWIDTH 600 0
DWIDTH 11 0
BBX 9 16 1 0
BITMAP
6C00
6C00
0000
FC00
CE00
0300
0180
0180
3F80
0180
0180
0180
0100
0300
CE00
FC00
ENDCHAR
STARTCHAR uni04ED
ENCODING -1
SWIDTH 600 0
DWIDTH 11 0
BBX 7 13 2 0
BITMAP
6C
6C
00
F8
8C
06
06
7E
06
06
06
8C
F8
ENDCHAR
STARTCHAR uni04EE
ENCODING -1
SWIDTH 600 0
DWIDTH 11 0
BBX 11 15 0 0
BITMAP
1F00
0000
C060
6040
60C0
2080
3180
1100
1B00
0A00
0E00
0400
0C00
5800
7000
ENDCHAR
STARTCHAR uni04EF
ENCODING -1
SWIDTH 600 0
DWIDTH 11 0
BBX 9 16 1 -4
BITMAP
3E00
0000
C180
4100
6300
6300
2200
3600
3600
1400
1400
0800
0800
1800
3000
E000
ENDCHAR
STARTCHAR uni04F0
ENCODING -1
SWIDTH 600 0
DWIDTH 11 0
BBX 11 16 0 0
BITMAP
1B00
1B00
0000
C060
6040
60C0
2080
3180
1100
1B00
0A00
0E00
0400
0C00
5800
7000
ENDCHAR
STARTCHAR uni04F1
ENCODING -1
SWIDTH 600 0
DWIDTH 11 0
BBX 9 17 1 -4
BITMAP
3600
3600
0000
C180
4100
6300
6300
2200
3600
3600
1400
1400
0800
0800
1800
3000
E000
ENDCHAR
STARTCHAR uni04F2
ENCODING -1
SWIDTH 600 0
DWIDTH 11 0
BBX 11 17 0 0
BITMAP
0D80
0900
1200
0000
C060
6040
60C0
2080
3180
1100
1B00
0A00
0E00
0400
0C00
5800
7000
ENDCHAR
STARTCHAR uni04F3
ENCODING -1
SWIDTH 600 0
DWIDTH 11 0
BBX 9 18 1 -4
BITMAP
0D80
0900
1200
0000
C180
4100
6300
6300
2200
3600
3600
1400
1400
0800
0800
1800
3000
E000
ENDCHAR
STARTCHAR uni04F4
ENCODING -1
SWIDTH 600 0
DWIDTH 11 0
BBX 9 16 1 0
BITMAP
3600
3600
0000
C180
C180
C180
C180
C180
C180
E780
7F80
0180
0180
0180
0180
0180
ENDCHAR
STARTCHAR uni04F5
ENCODING -1
SWIDTH 600 0
DWIDTH 11 0
BBX 8 13 1 0
BITMAP
36
36
00
C3
C3
C3
C3
C3
C7
7B
03
03
03
ENDCHAR
STARTCHAR uni04F6
ENCODING -1
SWIDTH 600 0
DWIDTH 11 0
BBX 8 16 2 -3
BITMAP
FF
C0
C0
C0
C0
C0
C0
C0
C0
C0
C0
C0
F0
30
30
30
ENDCHAR
STARTCHAR uni04F7
ENCODING -1
SWIDTH 600 0
DWIDTH 11 0
BBX 7 13 2 -3
BITMAP
FE
C0
C0
C0
C0
C0
C0
C0
C0
E0
60
60
60
ENDCHAR
STARTCHAR uni04F8
ENCODING -1
SWIDTH 600 0
DWIDTH 11 0
BBX 9 16 1 0
BITMAP
3600
3600
0000
C180
C180
C180
C180
C180
F180
D980
CD80
CD80
CD80
CD80
D980
F180
ENDCHAR
STARTCHAR uni04F9
ENCODING -1
SWIDTH 600 0
DWIDTH 11 0
BBX 9 13 1 0
BITMAP
3600
3600
0000
C180
C180
C180
C180
F980
CD80
CD80
CD80
CD80
F980
ENDCHAR
STARTCHAR uni04FA
ENCODING -1
SWIDTH 600 0
DWIDTH 11 0
BBX 8 17 2 -4
BITMAP
7F
60
60
60
60
60
F8
60
60
60
60
60
78
18
18
38
70
ENDCHAR
STARTCHAR uni04FB
ENCODING -1
SWIDTH 600 0
DWIDTH 11 0
BBX 7 14 2 -4
BITMAP
7E
60
60
60
F8
60
60
60
60
78
18
18
30
70
ENDCHAR
STARTCHAR uni04FC
ENCODING -1
SWIDTH 600 0
DWIDTH 11 0
BBX 12 17 0 -4
BITMAP
C060
60C0
2080
3100
1B00
0E00
0400
0A00
1B00
3180
2080
60C0
C070
0030
0030
0020
00E0
ENDCHAR
STARTCHAR uni04FD
ENCODING -1
SWIDTH 600 0
DWIDTH 11 0
BBX 10 14 1 -4
BITMAP
4100
6300
3600
1400
1C00
1C00
3600
2200
6300
C1C0
00C0
00C0
0080
0380
ENDCHAR
STARTCHAR uni04FE
ENCODING -1
SWIDTH 600 0
DWIDTH 11 0
BBX 10 13 0 0
BITMAP
C0C0
6180
2100
3300
1E00
7F80
0C00
1E00
3300
2300
6180
4080
C0C0
ENDCHAR
STARTCHAR uni04FF
ENCODING -1
SWIDTH 600 0
DWIDTH 11 0
BBX 9 10 1 0
BITMAP
C180
6300
3600
1400
7F00
1400
3600
2200
6300
C180
ENDCHAR
STARTCHAR uni0500
ENCODING -1
SWIDTH 600 0
DWIDTH 11 0
BBX 8 13 1 0
BITMAP
03
03
03
03
03
3F
73
C3
C3
C3
C3
73
3F
ENDCHAR
STARTCHAR uni0501
ENCODING -1
SWIDTH 600 0
DWIDTH 11 0
BBX 8 14 1 0
BITMAP
03
03
03
03
3B
67
C3
C3
C3
C3
C3
C3
67
39
ENDCHAR
STARTCHAR uni0502
ENCODING -1
SWIDTH 600 0
DWIDTH 11 0
BBX 10 13 0 0
BITMAP
0600
0600
0600
0600
0600
3EC0
66C0
C6C0
C6C0
C6C0
C6C0
EEC0
7B80
ENDCHAR
STARTCHAR uni0503
ENCODING -1
SWIDTH 600 0
DWIDTH 11 0
BBX 10 14 0 0
BITMAP
0600
0600
0600
0600
7600
6E00
C600
C600
C6C0
C6C0
C6C0
C6C0
6AC0
7B80
ENDCHAR
STARTCHAR uni0504
ENCODING -1
SWIDTH 600 0
DWIDTH 11 0
BBX 10 13 0 0
BITMAP
7000
D800
0800
0C00
0800
1800
70C0
18C0
08C0
0CC0
0CC0
0CC0
0780
ENDCHAR
STARTCHAR uni0505
ENCODING -1
SWIDTH 600 0
DWIDTH 11 0
BBX 10 10 0 0
BITMAP
F800
8800
0C00
0800
70C0
18C0
0CC0
0CC0
0CC0
0780
ENDCHAR
STARTCHAR uni0506
ENCODING -1
SWIDTH 600 0
DWIDTH 11 0
BBX 10 16 0 -3
BITMAP
7C00
E600
0300
0300
0300
0600
7800
0E00
0300
0300
0300
0300
03C0
00C0
00C0
00C0
ENDCHAR
STARTCHAR uni0507
ENCODING -1
SWIDTH 600 0
DWIDTH 11 0
BBX 9 13 1 -3
BITMAP
FE00
C700
0300
0300
3C00
0700
0300
0300
0300
0380
0180
0180
0180
ENDCHAR
STARTCHAR uni0508
ENCODING -1
SWIDTH 600 0
DWIDTH 11 0
BBX 10 13 0 0
BITMAP
7E00
6600
6600
6600
6600
66C0
66C0
66C0
46C0
46C0
46C0
C6C0
C380
ENDCHAR
STARTCHAR uni0509
ENCODING -1
SWIDTH 600 0
DWIDTH 11 0
BBX 10 10 0 0
BITMAP
7E00
6600
6600
6600
66C0
66C0
66C0
46C0
46C0
C380
ENDCHAR
STARTCHAR uni050A
ENCODING -1
SWIDTH 600 0
DWIDTH 11 0
BBX 9 13 1 0
BITMAP
CC00
CC00
CC00
CC00
CC00
FD80
CD80
CD80
CD80
CD80
CD80
CD80
C700
ENDCHAR
STARTCHAR uni050B
ENCODING -1
SWIDTH 600 0
DWIDTH 11 0
BBX 9 10 1 0
BITMAP
CC00
CC00
CC00
CD80
FD80
CD80
CD80
CD80
CD80
C700
ENDCHAR
STARTCHAR uni050C
ENCODING -1
SWIDTH 600 0
DWIDTH 11 0
BBX 9 13 1 0
BITMAP
1F00
3300
6000
C000
C000
C780
C180
C180
C180
C180
6100
7700
1E00
ENDCHAR
STARTCHAR uni050D
ENCODING -1
SWIDTH 600 0
DWIDTH 11 0
BBX 9 10 1 0
BITMAP
3F00
6300
C000
C000
C000
C780
C180
C180
6300
3E00
ENDCHAR
STARTCHAR uni050E
ENCODING -1
SWIDTH 600 0
DWIDTH 11 0
BBX 10 13 0 0
BITMAP
FF00
1800
1800
1800
1800
18C0
18C0
18C0
18C0
18C0
18C0
1DC0
0F80
ENDCHAR
STARTCHAR uni050F
ENCODING -1
SWIDTH 600 0
DWIDTH 11 0
BBX 10 10 0 0
BITMAP
FF00
1800
1800
1800
18C0
18C0
18C0
18C0
1DC0
0F80
ENDCHAR
STARTCHAR uni0510
ENCODING -1
SWIDTH 600 0
DWIDTH 11 0
BBX 9 13 1 0
BITMAP
3E00
E380
C000
C000
6000
3F00
7000
C000
C000
C000
C000
7180
3F80
ENDCHAR
STARTCHAR uni0511
ENCODING -1
SWIDTH 600 0
DWIDTH 11 0
BBX 7 10 2 0
BITMAP
7E
C6
C0
C0
78
60
C0
C0
E6
7E
ENDCHAR
STARTCHAR uni0512
ENCODING -1
SWIDTH 600 0
DWIDTH 11 0
BBX 10 13 0 0
BITMAP
1FC0
18C0
18C0
18C0
10C0
10C0
10C0
10C0
30C0
30C0
30C0
60C0
C0C0
ENDCHAR
STARTCHAR uni0513
ENCODING -1
SWIDTH 600 0
DWIDTH 11 0
BBX 9 10 0 0
BITMAP
3F80
3180
3180
3180
3180
2180
2180
6180
6180
C180
ENDCHAR
STARTCHAR uni1EA0
ENCODING -1
SWIDTH 600 0
DWIDTH 11 0
BBX 11 16 0 -3
BITMAP
0E00
0E00
0A00
1B00
1B00
1100
3180
3180
3F80
60C0
60C0
4040
C060
0000
0600
0600
ENDCHAR
STARTCHAR uni1EA1
ENCODING -1
SWIDTH 600 0
DWIDTH 11 0
BBX 8 13 1 -3
BITMAP
7E
67
03
03
3F
E3
C3
C3
C7
79
00
18
18
ENDCHAR
STARTCHAR uni1EA2
ENCODING -1
SWIDTH 600 0
DWIDTH 11 0
BBX 11 18 0 0
BITMAP
0700
0100
0200
0200
0000
0E00
0E00
0A00
1B00
1B00
1100
3180
3180
3F80
60C0
60C0
4040
C060
ENDCHAR
STARTCHAR uni1EA3
ENCODING -1
SWIDTH 600 0
DWIDTH 11 0
BBX 8 15 1 0
BITMAP
1C
04
08
08
00
7E
67
03
03
3F
E3
C3
C3
C7
79
ENDCHAR
STARTCHAR uni1EA4
ENCODING -1
SWIDTH 600 0
DWIDTH 11 0
BBX 11 18 0 0
BITMAP
0060
0EC0
0A00
1100
0000
0E00
0E00
0A00
1B00
1B00
1100
3180
3180
3F80
60C0
60C0
4040
C060
ENDCHAR
STARTCHAR uni1EA5
ENCODING -1
SWIDTH 600 0
DWIDTH 11 0
BBX 10 15 1 0
BITMAP
00C0
1D80
1400
2200
0000
7E00
6700
0300
0300
3F00
E300
C300
C300
C700
7900
ENDCHAR
STARTCHAR uni1EA6
ENCODING -1
SWIDTH 600 0
DWIDTH 11 0
BBX 11 18 0 0
BITMAP
6000
3700
0500
0880
0000
0E00
0E00
0A00
1B00
1B00
1100
3180
3180
3F80
60C0
60C0
4040
C060
ENDCHAR
STARTCHAR uni1EA7
ENCODING -1
SWIDTH 600 0
DWIDTH 11 0
BBX 8 15 1 0
BITMAP
C0
6E
0A
11
00
7E
67
03
03
3F
E3
C3
C3
C7
79
ENDCHAR
STARTCHAR uni1EA8
ENCODING -1
SWIDTH 600 0
DWIDTH 11 0
BBX 11 19 0 0
BITMAP
00C0
0040
0780
0500
0880
0000
0E00
0E00
0A00
1B00
1B00
1100
3180
3180
3F80
60C0
60C0
4040
C060
ENDCHAR
STARTCHAR uni1EA9
ENCODING -1
SWIDTH 600 0
DWIDTH 11 0
BBX 8 16 1 0
BITMAP
03
01
1E
14
22
00
7E
67
03
03
3F
E3
C3
C3
C7
79
ENDCHAR
STARTCHAR uni1EAA
ENCODING -1
SWIDTH 600 0
DWIDTH 11 0
BBX 11 20 0 0
BITMAP
0C80
1300
0000
0600
0F00
1980
0000
0E00
0E00
0A00
1B00
1B00
1100
3180
3180
3F80
60C0
60C0
4040
C060
ENDCHAR
STARTCHAR uni1EAB
ENCODING -1
SWIDTH 600 0
DWIDTH 11 0
BBX 8 17 1 0
BITMAP
19
26
00
0C
1E
33
00
7E
67
03
03
3F
E3
C3
C3
C7
79
ENDCHAR
STARTCHAR uni1EAC
ENCODING -1
SWIDTH 600 0
DWIDTH 11 0
BBX 11 20 0 -3
BITMAP
0E00
0A00
1B00
0000
0E00
0E00
0A00
1B00
1B00
1100
3180
3180
3F80
60C0
60C0
4040
C060
0000
0600
0600
ENDCHAR
STARTCHAR uni1EAD
ENCODING -1
SWIDTH 600 0
DWIDTH 11 0
BBX 8 17 1 -3
BITMAP
1C
14
36
00
7E
67
03
03
3F
E3
C3
C3
C7
79
00
18
18
ENDCHAR
STARTCHAR uni1EAE
ENCODING -1
SWIDTH 600 0
DWIDTH 11 0
BBX 11 18 0 0
BITMAP
0600
0C00
1100
0E00
0000
0E00
0E00
0A00
1B00
1B00
1100
3180
3180
3F80
60C0
60C0
4040
C060
ENDCHAR
STARTCHAR uni1EAF
ENCODING -1
SWIDTH 600 0
DWIDTH 11 0
BBX 8 15 1 0
BITMAP
0C
18
22
1C
00
7E
67
03
03
3F
E3
C3
C3
C7
79
ENDCHAR
STARTCHAR uni1EB0
ENCODING -1
SWIDTH 600 0
DWIDTH 11 0
BBX 11 18 0 0
BITMAP
1800
0C00
1100
0E00
0000
0E00
0E00
0A00
1B00
1B00
1100
3180
3180
3F80
60C0
60C0
4040
C060
ENDCHAR
STARTCHAR uni1EB1
ENCODING -1
SWIDTH 600 0
DWIDTH 11 0
BBX 8 15 1 0
BITMAP
30
18
22
1C
00
7E
67
03
03
3F
E3
C3
C3
C7
79
ENDCHAR
STARTCHAR uni1EB2
ENCODING -1
SWIDTH 600 0
DWIDTH 11 0
BBX 11 20 0 0
BITMAP
0600
0200
0400
0000
1100
0E00
0000
0E00
0E00
0A00
1B00
1B00
1100
3180
3180
3F80
60C0
60C0
4040
C060
ENDCHAR
STARTCHAR uni1EB3
ENCODING -1
SWIDTH 600 0
DWIDTH 11 0
BBX 8 17 1 0
BITMAP
0C
04
08
00
22
1C
00
7E
67
03
03
3F
E3
C3
C3
C7
79
ENDCHAR
STARTCHAR uni1EB4
ENCODING -1
SWIDTH 600 0
DWIDTH 11 0
BBX 11 19 0 0
BITMAP
1D00
1700
0000
1100
0E00
0000
0E00
0E00
0A00
1B00
1B00
1100
3180
3180
3F80
60C0
60C0
4040
C060
ENDCHAR
STARTCHAR uni1EB5
ENCODING -1
SWIDTH 600 0
DWIDTH 11 0
BBX 8 16 1 0
BITMAP
3A
2E
00
22
1C
00
7E
67
03
03
3F
E3
C3
C3
C7
79
ENDCHAR
STARTCHAR uni1EB6
ENCODING -1
SWIDTH 600 0
DWIDTH 11 0
BBX 11 20 0 -3
BITMAP
1100
1B00
0E00
0000
0E00
0E00
0A00
1B00
1B00
1100
3180
3180
3F80
60C0
60C0
4040
C060
0000
0600
0600
ENDCHAR
STARTCHAR uni1EB7
ENCODING -1
SWIDTH 600 0
DWIDTH 11 0
BBX 8 17 1 -3
BITMAP
22
36
1C
00
7E
67
03
03
3F
E3
C3
C3
C7
79
00
18
18
ENDCHAR
STARTCHAR uni1EB8
ENCODING -1
SWIDTH 600 0
DWIDTH 11 0
BBX 8 16 2 -3
BITMAP
FF
C0
C0
C0
C0
FF
C0
C0
C0
C0
C0
C0
FF
00
18
18
ENDCHAR
STARTCHAR uni1EB9
ENCODING -1
SWIDTH 600 0
DWIDTH 11 0
BBX 9 13 1 -3
BITMAP
3E00
6300
4180
C180
FF80
C000
C000
4000
7100
1F00
0000
0C00
0C00
ENDCHAR
STARTCHAR uni1EBA
ENCODING -1
SWIDTH 600 0
DWIDTH 11 0
BBX 8 18 2 0
BITMAP
1C
04
08
08
00
FF
C0
C0
C0
C0
FF
C0
C0
C0
C0
C0
C0
FF
ENDCHAR
STARTCHAR uni1EBB
ENCODING -1
SWIDTH 600 0
DWIDTH 11 0
BBX 9 15 1 0
BITMAP
0E00
0200
0400
0400
0000
3E00
6300
4180
C180
FF80
C000
C000
4000
7100
1F00
ENDCHAR
STARTCHAR uni1EBC
ENCODING -1
SWIDTH 600 0
DWIDTH 11 0
BBX 8 17 2 0
BITMAP
31
7F
46
00
FF
C0
C0
C0
C0
FF
C0
C0
C0
C0
C0
C0
FF
ENDCHAR
STARTCHAR uni1EBD
ENCODING -1
SWIDTH 600 0
DWIDTH 11 0
BBX 9 14 1 0
BITMAP
1880
3F80
2300
0000
3E00
6300
4180
C180
FF80
C000
C000
4000
7100
1F00
ENDCHAR
STARTCHAR uni1EBE
ENCODING -1
SWIDTH 600 0
DWIDTH 11 0
BBX 9 18 2 0
BITMAP
0180
3B00
2800
4400
0000
FF00
C000
C000
C000
C000
FF00
C000
C000
C000
C000
C000
C000
FF00
ENDCHAR
STARTCHAR uni1EBF
ENCODING -1
SWIDTH 600 0
DWIDTH 11 0
BBX 10 15 1 0
BITMAP
00C0
1D80
1400
2200
0000
3E00
6300
4180
C180
FF80
C000
C000
4000
7100
1F00
ENDCHAR
STARTCHAR uni1EC0
ENCODING -1
SWIDTH 600 0
DWIDTH 11 0
BBX 9 18 1 0
BITMAP
C000
6E00
0A00
1100
0000
7F80
6000
6000
6000
6000
7F80
6000
6000
6000
6000
6000
6000
7F80
ENDCHAR
STARTCHAR uni1EC1
ENCODING -1
SWIDTH 600 0
DWIDTH 11 0
BBX 9 15 1 0
BITMAP
C000
6E00
0A00
1100
0000
3E00
6300
4180
C180
FF80
C000
C000
4000
7100
1F00
ENDCHAR
STARTCHAR uni1EC2
ENCODING -1
SWIDTH 600 0
DWIDTH 11 0
BBX 8 19 2 0
BITMAP
03
01
1E
14
22
00
FF
C0
C0
C0
C0
FF
C0
C0
C0
C0
C0
C0
FF
ENDCHAR
STARTCHAR uni1EC3
ENCODING -1
SWIDTH 600 0
DWIDTH 11 0
BBX 9 16 1 0
BITMAP
0300
0100
1E00
1400
2200
0000
3E00
6300
4180
C180
FF80
C000
C000
4000
7100
1F00
ENDCHAR
STARTCHAR uni1EC4
ENCODING -1
SWIDTH 600 0
DWIDTH 11 0
BBX 8 20 2 0
BITMAP
32
4C
00
18
3C
66
00
FF
C0
C0
C0
C0
FF
C0
C0
C0
C0
C0
C0
FF
ENDCHAR
STARTCHAR uni1EC5
ENCODING -1
SWIDTH 600 0
DWIDTH 11 0
BBX 9 17 1 0
BITMAP
1900
2600
0000
0C00
1E00
3300
0000
3E00
6300
4180
C180
FF80
C000
C000
4000
7100
1F00
ENDCHAR
STARTCHAR uni1EC6
ENCODING -1
SWIDTH 600 0
DWIDTH 11 0
BBX 8 20 2 -3
BITMAP
1C
14
36
00
FF
C0
C0
C0
C0
FF
C0
C0
C0
C0
C0
C0
FF
00
18
18
ENDCHAR
STARTCHAR uni1EC7
ENCODING -1
SWIDTH 600 0
DWIDTH 11 0
BBX 9 17 1 -3
BITMAP
1C00
1400
3600
0000
3E00
6300
4180
C180
FF80
C000
C000
4000
7100
1F00
0000
0C00
0C00
ENDCHAR
STARTCHAR uni1EC8
ENCODING -1
SWIDTH 600 0
DWIDTH 11 0
BBX 7 18 2 0
BITMAP
38
08
10
10
00
FE
30
30
30
30
30
30
30
30
30
30
30
FE
ENDCHAR
STARTCHAR uni1EC9
ENCODING -1
SWIDTH 600 0
DWIDTH 11 0
BBX 8 15 2 0
BITMAP
1C
04
08
08
00
78
18
18
18
18
18
18
18
18
FF
ENDCHAR
STARTCHAR uni1ECA
ENCODING -1
SWIDTH 600 0
DWIDTH 11 0
BBX 7 16 2 -3
BITMAP
FE
30
30
30
30
30
30
30
30
30
30
30
FE
00
30
30
ENDCHAR
STARTCHAR uni1ECB
ENCODING -1
SWIDTH 600 0
DWIDTH 11 0
BBX 8 17 2 -3
BITMAP
18
18
00
00
78
18
18
18
18
18
18
18
18
FF
00
18
18
ENDCHAR
STARTCHAR uni1ECC
ENCODING -1
SWIDTH 600 0
DWIDTH 11 0
BBX 9 16 1 -3
BITMAP
3E00
7700
6300
C180
C180
C180
C180
C180
C180
C180
6300
7700
3E00
0000
0C00
0C00
ENDCHAR
STARTCHAR uni1ECD
ENCODING -1
SWIDTH 600 0
DWIDTH 11 0
BBX 9 13 1 -3
BITMAP
3E00
6300
C180
C180
C180
C180
C180
4180
6300
3E00
0000
0C00
0C00
ENDCHAR
STARTCHAR uni1ECE
ENCODING -1
SWIDTH 600 0
DWIDTH 11 0
BBX 9 18 1 0
BITMAP
1C00
0400
0800
0800
0000
3E00
7700
6300
C180
C180
C180
C180
C180
C180
C180
6300
7700
3E00
ENDCHAR
STARTCHAR uni1ECF
ENCODING -1
SWIDTH 600 0
DWIDTH 11 0
BBX 9 15 1 0
BITMAP
0E00
0200
0400
0400
0000
3E00
6300
C180
C180
C180
C180
C180
4180
6300
3E00
ENDCHAR
STARTCHAR uni1ED0
ENCODING -1
SWIDTH 600 0
DWIDTH 11 0
BBX 10 18 1 0
BITMAP
00C0
1D80
1400
2200
0000
3E00
7700
6300
C180
C180
C180
C180
C180
C180
C180
6300
7700
3E00
ENDCHAR
STARTCHAR uni1ED1
ENCODING -1
SWIDTH 600 0
DWIDTH 11 0
BBX 10 15 1 0
BITMAP
00C0
1D80
1400
2200
0000
3E00
6300
C180
C180
C180
C180
C180
4180
6300
3E00
ENDCHAR
STARTCHAR uni1ED2
ENCODING -1
SWIDTH 600 0
DWIDTH 11 0
BBX 9 18 1 0
BITMAP
C000
6E00
0A00
1100
0000
3E00
7700
6300
C180
C180
C180
C180
C180
C180
C180
6300
7700
3E00
ENDCHAR
STARTCHAR uni1ED3
ENCODING -1
SWIDTH 600 0
DWIDTH 11 0
BBX 9 15 1 0
BITMAP
C000
6E00
0A00
1100
0000
3E00
6300
C180
C180
C180
C180
C180
4180
6300
3E00
ENDCHAR
STARTCHAR uni1ED4
ENCODING -1
SWIDTH 600 0
DWIDTH 11 0
BBX 9 19 1 0
BITMAP
0300
0100
1E00
1400
2200
0000
3E00
7700
6300
C180
C180
C180
C180
C180
C180
C180
6300
7700
3E00
ENDCHAR
STARTCHAR uni1ED5
ENCODING -1
SWIDTH 600 0
DWIDTH 11 0
BBX 9 16 1 0
BITMAP
0300
0100
1E00
1400
2200
0000
3E00
6300
C180
C180
C180
C180
C180
4180
6300
3E00
ENDCHAR
STARTCHAR uni1ED6
ENCODING -1
SWIDTH 600 0
DWIDTH 11 0
BBX 9 20 1 0
BITMAP
1900
2600
0000
0C00
1E00
3300
0000
3E00
7700
6300
C180
C180
C180
C180
C180
C180
C180
6300
7700
3E00
ENDCHAR
STARTCHAR uni1ED7
ENCODING -1
SWIDTH 600 0
DWIDTH 11 0
BBX 9 17 1 0
BITMAP
1900
2600
0000
0C00
1E00
3300
0000
3E00
6300
C180
C180
C180
C180
C180
4180
6300
3E00
ENDCHAR
STARTCHAR uni1ED8
ENCODING -1
SWIDTH 600 0
DWIDTH 11 0
BBX 9 20 1 -3
BITMAP
1C00
1400
3600
0000
3E00
7700
6300
C180
C180
C180
C180
C180
C180
C180
6300
7700
3E00
0000
0C00
0C00
ENDCHAR
STARTCHAR uni1ED9
ENCODING -1
SWIDTH 600 0
DWIDTH 11 0
BBX 9 17 1 -3
BITMAP
1C00
1400
3600
0000
3E00
6300
C180
C180
C180
C180
C180
4180
6300
3E00
0000
0C00
0C00
ENDCHAR
STARTCHAR uni1EDA
ENCODING -1
SWIDTH 600 0
DWIDTH 11 0
BBX 10 17 1 0
BITMAP
0600
0400
0C00
00C0
3EC0
7780
6300
C180
C180
C180
C180
C180
C180
C180
6300
7700
3E00
ENDCHAR
STARTCHAR uni1EDB
ENCODING -1
SWIDTH 600 0
DWIDTH 11 0
BBX 10 14 1 0
BITMAP
0600
0400
0C00
00C0
3EC0
6380
C180
C180
C180
C180
C180
4180
6300
3E00
ENDCHAR
STARTCHAR uni1EDC
ENCODING -1
SWIDTH 600 0
DWIDTH 11 0
BBX 10 17 1 0
BITMAP
1800
0800
0400
00C0
3EC0
7780
6300
C180
C180
C180
C180
C180
C180
C180
6300
7700
3E00
ENDCHAR
STARTCHAR uni1EDD
ENCODING -1
SWIDTH 600 0
DWIDTH 11 0
BBX 10 14 1 0
BITMAP
1800
0800
0400
00C0
3EC0
6380
C180
C180
C180
C180
C180
4180
6300
3E00
ENDCHAR
STARTCHAR uni1EDE
ENCODING -1
SWIDTH 600 0
DWIDTH 11 0
BBX 10 18 1 0
BITMAP
1C00
0400
0800
0800
00C0
3EC0
7780
6300
C180
C180
C180
C180
C180
C180
C180
6300
7700
3E00
ENDCHAR
STARTCHAR uni1EDF
ENCODING -1
SWIDTH 600 0
DWIDTH 11 0
BBX 10 15 1 0
BITMAP
1C00
0400
0800
0800
00C0
3EC0
6380
C180
C180
C180
C180
C180
4180
6300
3E00
ENDCHAR
STARTCHAR uni1EE0
ENCODING -1
SWIDTH 600 0
DWIDTH 11 0
BBX 10 17 1 0
BITMAP
3100
7F00
4600
00C0
3EC0
7780
6300
C180
C180
C180
C180
C180
C180
C180
6300
7700
3E00
ENDCHAR
STARTCHAR uni1EE1
ENCODING -1
SWIDTH 600 0
DWIDTH 11 0
BBX 10 14 1 0
BITMAP
3100
7F00
4600
00C0
3EC0
6380
C180
C180
C180
C180
C180
4180
6300
3E00
ENDCHAR
STARTCHAR uni1EE2
ENCODING -1
SWIDTH 600 0
DWIDTH 11 0
BBX 10 17 1 -3
BITMAP
00C0
3EC0
7780
6300
C180
C180
C180
C180
C180
C180
C180
6300
7700
3E00
0000
0C00
0C00
ENDCHAR
STARTCHAR uni1EE3
ENCODING -1
SWIDTH 600 0
DWIDTH 11 0
BBX 10 14 1 -3
BITMAP
00C0
3EC0
6380
C180
C180
C180
C180
C180
4180
6300
3E00
0000
0C00
0C00
ENDCHAR
STARTCHAR uni1EE4
ENCODING -1
SWIDTH 600 0
DWIDTH 11 0
BBX 9 16 1 -3
BITMAP
C180
C180
C180
C180
C180
C180
C180
C180
C180
C180
C180
7700
3E00
0000
0C00
0C00
ENDCHAR
STARTCHAR uni1EE5
ENCODING -1
SWIDTH 600 0
DWIDTH 11 0
BBX 8 13 1 -3
BITMAP
C3
C3
C3
C3
C3
C3
C3
C3
E7
79
00
18
18
ENDCHAR
STARTCHAR uni1EE6
ENCODING -1
SWIDTH 600 0
DWIDTH 11 0
BBX 9 18 1 0
BITMAP
1C00
0400
0800
0800
0000
C180
C180
C180
C180
C180
C180
C180
C180
C180
C180
C180
7700
3E00
ENDCHAR
STARTCHAR uni1EE7
ENCODING -1
SWIDTH 600 0
DWIDTH 11 0
BBX 8 15 1 0
BITMAP
1C
04
08
08
00
C3
C3
C3
C3
C3
C3
C3
C3
E7
79
ENDCHAR
STARTCHAR uni1EE8
ENCODING -1
SWIDTH 600 0
DWIDTH 11 0
BBX 11 17 1 0
BITMAP
0C00
0800
1800
0060
C360
C340
C380
C300
C300
C300
C300
C300
C300
C300
C300
6600
3C00
ENDCHAR
STARTCHAR uni1EE9
ENCODING -1
SWIDTH 600 0
DWIDTH 11 0
BBX 10 14 1 0
BITMAP
0C00
0800
1800
00C0
C6C0
C780
C600
C600
C600
C600
C600
C600
CE00
7A00
ENDCHAR
STARTCHAR uni1EEA
ENCODING -1
SWIDTH 600 0
DWIDTH 11 0
BBX 11 17 1 0
BITMAP
3000
1000
0800
0060
C360
C340
C380
C300
C300
C300
C300
C300
C300
C300
C300
6600
3C00
ENDCHAR
STARTCHAR uni1EEB
ENCODING -1
SWIDTH 600 0
DWIDTH 11 0
BBX 10 14 1 0
BITMAP
6000
2000
1000
00C0
C6C0
C780
C600
C600
C600
C600
C600
C600
CE00
7A00
ENDCHAR
STARTCHAR uni1EEC
ENCODING -1
SWIDTH 600 0
DWIDTH 11 0
BBX 11 18 1 0
BITMAP
1C00
0400
0800
0800
0060
C360
C340
C380
C300
C300
C300
C300
C300
C300
C300
C300
6600
3C00
ENDCHAR
STARTCHAR uni1EED
ENCODING -1
SWIDTH 600 0
DWIDTH 11 0
BBX 10 15 1 0
BITMAP
3800
0800
1000
1000
00C0
C6C0
C780
C600
C600
C600
C600
C600
C600
CE00
7A00
ENDCHAR
STARTCHAR uni1EEE
ENCODING -1
SWIDTH 600 0
DWIDTH 11 0
BBX 11 17 1 0
BITMAP
3100
7F00
4600
0060
C360
C340
C380
C300
C300
C300
C300
C300
C300
C300
C300
6600
3C00
ENDCHAR
STARTCHAR uni1EEF
ENCODING -1
SWIDTH 600 0
DWIDTH 11 0
BBX 10 14 1 0
BITMAP
3100
7F00
4600
00C0
C6C0
C780
C600
C600
C600
C600
C600
C600
CE00
7A00
ENDCHAR
STARTCHAR uni1EF0
ENCODING -1
SWIDTH 600 0
DWIDTH 11 0
BBX 11 17 1 -3
BITMAP
0060
C360
C340
C380
C300
C300
C300
C300
C300
C300
C300
C300
6600
3C00
0000
1800
1800
ENDCHAR
STARTCHAR uni1EF1
ENCODING -1
SWIDTH 600 0
DWIDTH 11 0
BBX 10 14 1 -3
BITMAP
00C0
C6C0
C780
C600
C600
C600
C600
C600
C600
CE00
7A00
0000
1800
1800
ENDCHAR
STARTCHAR uni1EF4
ENCODING -1
SWIDTH 600 0
DWIDTH 11 0
BBX 9 16 1 -3
BITMAP
8180
C100
4300
6200
2600
3400
1C00
1800
1800
1800
1800
1800
1800
0000
1800
1800
ENDCHAR
STARTCHAR uni1EF5
ENCODING -1
SWIDTH 600 0
DWIDTH 11 0
BBX 9 14 1 -4
BITMAP
C180
4100
6300
6300
2200
3600
3600
1400
1400
0800
0800
1B00
3300
E000
ENDCHAR
STARTCHAR uni1EF6
ENCODING -1
SWIDTH 600 0
DWIDTH 11 0
BBX 9 18 1 0
BITMAP
1C00
0400
0800
0800
0000
8180
C100
4300
6200
2600
3400
1C00
1800
1800
1800
1800
1800
1800
ENDCHAR
STARTCHAR uni1EF7
ENCODING -1
SWIDTH 600 0
DWIDTH 11 0
BBX 9 19 1 -4
BITMAP
1C00
0400
0800
0800
0000
C180
4100
6300
6300
2200
3600
3600
1400
1400
0800
0800
1800
3000
E000
ENDCHAR
STARTCHAR uni1EF8
ENCODING -1
SWIDTH 600 0
DWIDTH 11 0
BBX 9 17 1 0
BITMAP
3100
7F00
4600
0000
8180
C100
4300
6200
2600
3400
1C00
1800
1800
1800
1800
1800
1800
ENDCHAR
STARTCHAR uni1EF9
ENCODING -1
SWIDTH 600 0
DWIDTH 11 0
BBX 9 18 1 -4
BITMAP
3100
7F00
4600
0000
C180
4100
6300
6300
2200
3600
3600
1400
1400
0800
0800
1800
3000
E000
ENDCHAR
STARTCHAR dong
ENCODING -1
SWIDTH 600 0
DWIDTH 11 0
BBX 9 16 1 -2
BITMAP
0300
0300
1F80
0300
3F00
6700
C300
C300
C300
C300
C300
C300
6700
3900
0000
7F00
ENDCHAR
STARTCHAR uni030F
ENCODING -1
SWIDTH 600 0
DWIDTH 11 0
BBX 6 3 2 11
BITMAP
D8
48
24
ENDCHAR
STARTCHAR glyph884
ENCODING -1
SWIDTH 600 0
DWIDTH 11 0
BBX 8 4 2 11
BITMAP
03
76
50
88
ENDCHAR
STARTCHAR glyph885
ENCODING -1
SWIDTH 600 0
DWIDTH 11 0
BBX 8 4 1 11
BITMAP
C0
6E
0A
11
ENDCHAR
STARTCHAR glyph886
ENCODING -1
SWIDTH 600 0
DWIDTH 11 0
BBX 6 5 2 11
BITMAP
0C
04
78
50
88
ENDCHAR
STARTCHAR glyph887
ENCODING -1
SWIDTH 600 0
DWIDTH 11 0
BBX 6 6 3 11
BITMAP
64
98
00
30
78
CC
ENDCHAR
STARTCHAR glyph888
ENCODING -1
SWIDTH 600 0
DWIDTH 11 0
BBX 5 4 3 11
BITMAP
30
60
88
70
ENDCHAR
STARTCHAR glyph889
ENCODING -1
SWIDTH 600 0
DWIDTH 11 0
BBX 5 4 3 11
BITMAP
C0
60
88
70
ENDCHAR
STARTCHAR glyph890
ENCODING -1
SWIDTH 600 0
DWIDTH 11 0
BBX 5 6 3 11
BITMAP
30
10
20
00
88
70
ENDCHAR
STARTCHAR glyph891
ENCODING -1
SWIDTH 600 0
DWIDTH 11 0
BBX 5 5 3 11
BITMAP
E8
B8
00
88
70
ENDCHAR
STARTCHAR glyph892
ENCODING -1
SWIDTH 600 0
DWIDTH 11 0
BBX 3 4 4 -4
BITMAP
40
20
20
E0
ENDCHAR
STARTCHAR glyph893
ENCODING -1
SWIDTH 600 0
DWIDTH 11 0
BBX 4 5 4 -4
BITMAP
30
30
30
20
E0
ENDCHAR
STARTCHAR glyph894
ENCODING -1
SWIDTH 600 0
DWIDTH 11 0
BBX 4 5 4 -4
BITMAP
30
30
30
20
E0
ENDCHAR
STARTCHAR uni0162
ENCODING -1
SWIDTH 600 0
DWIDTH 11 0
BBX 10 17 0 -4
BITMAP
FFC0
0C00
0C00
0C00
0C00
0C00
0C00
0C00
0C00
0C00
0C00
0C00
0C00
0400
0600
0200
0C00
ENDCHAR
STARTCHAR uni0163
ENCODING -1
SWIDTH 600 0
DWIDTH 11 0
BBX 7 17 2 -4
BITMAP
10
30
30
FE
30
30
30
30
30
30
30
30
1E
08
0C
04
18
ENDCHAR
ENDFONT
